<svg width="27" height="26" viewBox="0 0 27 26" fill="none" xmlns="http://www.w3.org/2000/svg">
<g clip-path="url(#clip0_1_649)">
<circle cx="13.55" cy="12.85" r="12.85" fill="#612B1C"/>
<path fill-rule="evenodd" clip-rule="evenodd" d="M16.4507 10.1965C17.3989 10.8739 18.5605 11.2726 19.8151 11.2726V8.85951C19.5777 8.85961 19.3408 8.83484 19.1085 8.78561V10.685C17.8541 10.685 16.6926 10.2864 15.7441 9.60896V14.5332C15.7441 16.9966 13.7461 18.9934 11.2816 18.9934C10.3621 18.9934 9.50739 18.7156 8.79736 18.239C9.60772 19.0672 10.7378 19.581 11.988 19.581C14.4527 19.581 16.4507 17.5841 16.4507 15.1207V10.1965H16.4507ZM17.3223 7.76203C16.8377 7.23291 16.5195 6.54905 16.4507 5.79302V5.48267H15.7811C15.9496 6.44352 16.5245 7.26445 17.3223 7.76203ZM10.3561 16.3488C10.0854 15.994 9.93908 15.5599 9.93973 15.1136C9.93973 13.987 10.8536 13.0735 11.9811 13.0735C12.1912 13.0733 12.4 13.1056 12.6003 13.1691V10.7021C12.3663 10.6701 12.1301 10.6565 11.894 10.6615V12.5816C11.6936 12.5181 11.4847 12.4859 11.2745 12.4861C10.1471 12.4861 9.23326 13.3995 9.23326 14.5263C9.23326 15.323 9.69003 16.0128 10.3561 16.3488Z" fill="#612B1C"/>
<path fill-rule="evenodd" clip-rule="evenodd" d="M15.7441 9.60896C16.6926 10.2864 17.8541 10.685 19.1086 10.685V8.78561C18.4084 8.63658 17.7884 8.27078 17.3223 7.76203C16.5245 7.26444 15.9497 6.44352 15.7811 5.48267H14.0224V15.1206C14.0184 16.2441 13.1061 17.1539 11.981 17.1539C11.3181 17.1539 10.7291 16.838 10.3561 16.3488C9.68999 16.0128 9.23321 15.323 9.23321 14.5263C9.23321 13.3995 10.147 12.4861 11.2745 12.4861C11.4905 12.4861 11.6987 12.5197 11.894 12.5816V10.6615C9.47278 10.7115 7.52551 12.6888 7.52551 15.1206C7.52551 16.3346 8.01044 17.4351 8.79741 18.2391C9.50743 18.7157 10.3622 18.9935 11.2817 18.9935C13.7462 18.9935 15.7441 16.9966 15.7441 14.5333V9.60896Z" fill="#FFF06A"/>
<path fill-rule="evenodd" clip-rule="evenodd" d="M19.1086 8.78563V8.27202C18.4771 8.27298 17.8581 8.09622 17.3223 7.76197C17.7966 8.28093 18.4211 8.63881 19.1086 8.78563ZM15.7811 5.48269C15.765 5.39087 15.7527 5.29844 15.7441 5.20561V4.89526H13.3157V14.5332C13.3118 15.6567 12.3996 16.5665 11.2745 16.5665C10.9441 16.5665 10.6323 16.4881 10.3561 16.3488C10.7291 16.8381 11.3181 17.1539 11.981 17.1539C13.106 17.1539 14.0184 16.2442 14.0224 15.1206V5.48269H15.7811ZM11.894 10.6615V10.1147C11.6911 10.087 11.4866 10.0731 11.2818 10.0732C8.81698 10.0732 6.81903 12.0701 6.81903 14.5332C6.81903 16.0775 7.60426 17.4385 8.79749 18.2391C8.01052 17.435 7.52559 16.3345 7.52559 15.1206C7.52559 12.6888 9.47277 10.7115 11.894 10.6615Z" fill="#612B1C"/>
</g>
<defs>
<clipPath id="clip0_1_649">
<rect width="25.7" height="25.7" fill="white" transform="translate(0.699951)"/>
</clipPath>
</defs>
</svg>
