<svg width="27" height="26" viewBox="0 0 27 26" fill="none" xmlns="http://www.w3.org/2000/svg">
<path fill-rule="evenodd" clip-rule="evenodd" d="M13.2499 25.7C20.3468 25.7 26.0999 19.9469 26.0999 12.85C26.0999 5.75314 20.3468 0 13.2499 0C6.15304 0 0.399902 5.75314 0.399902 12.85C0.399902 19.9469 6.15304 25.7 13.2499 25.7ZM4.79336 11.0818C4.80279 6.12913 5.67896 4.85962 9.33878 4.49522C9.9756 4.43187 11.0734 4.36901 11.7786 4.35578L13.0605 4.33147V5.47742C13.0605 8.54012 12.4141 10.5604 11.1179 11.5491C10.293 12.1783 8.82717 12.5314 6.40278 12.6851L4.79005 12.7873L4.79336 11.0818ZM16.5521 12.1943C14.3627 11.4672 13.3913 9.3622 13.3913 5.34559V4.28333L15.5963 4.3978C19.0463 4.5766 20.1778 4.98682 20.9045 6.32216C21.4106 7.25208 21.6539 8.78509 21.6584 11.0719C21.6614 12.5786 21.6295 12.767 21.3722 12.7646C20.1375 12.7531 17.1816 12.4034 16.5521 12.1943ZM5.54729 19.3778C5.04114 18.4479 4.79782 16.9149 4.79336 14.6281C4.79038 13.1214 4.8223 12.933 5.07951 12.9354C6.31429 12.9469 9.27014 13.2966 9.89968 13.5057C12.0746 14.228 13.0605 16.3304 13.0605 20.2467V21.4167L10.8554 21.3022C7.40549 21.1234 6.27393 20.7132 5.54729 19.3778ZM14.1545 15.6239C14.9311 14.008 16.2474 13.3236 19.0152 13.0966C19.7885 13.0333 20.7111 12.9704 21.0654 12.957L21.7098 12.9327L21.6126 15.3725C21.508 17.9967 21.3691 18.705 20.7917 19.5533C19.9626 20.7712 18.8933 21.1313 15.5963 21.3022L13.3913 21.4167V20.2467C13.3913 18.4314 13.698 16.574 14.1545 15.6239Z" fill="#612B1C"/>
</svg>
