<svg width="62" height="57" viewBox="0 0 62 57" fill="none" xmlns="http://www.w3.org/2000/svg">
<path d="M52.5625 43.8435C52.3877 44.4115 52.0148 44.852 51.6886 45.3389C51.4439 45.6983 51.1409 46.1388 51.2108 46.5909C51.2225 46.6721 51.3507 46.7068 51.4089 46.6373C51.7235 46.2431 51.8983 45.6983 52.1896 45.2694C52.4692 44.8404 52.7489 44.4231 52.8887 43.9246C52.9353 43.7276 52.6207 43.6464 52.5625 43.8435ZM34.6418 53.4304C34.3738 53.9289 34.1291 54.439 34.1174 55.0186C34.1291 55.2505 34.4903 55.2852 34.5019 55.0186C34.5019 55.007 34.5019 54.9954 34.5019 54.9838C34.5136 54.9722 34.5136 54.9722 34.5136 54.9606C34.5369 54.9259 34.5369 54.8795 34.5136 54.8447C34.5136 54.8447 34.5136 54.8447 34.5136 54.8331C34.5602 54.3926 34.7117 53.9985 34.9098 53.5811C35.003 53.4073 34.735 53.2566 34.6418 53.4304ZM33.4649 53.245C33.395 53.4304 32.2881 55.2041 32.9755 55.1461C33.1037 55.1345 33.1387 55.0534 33.1503 54.9606C33.1736 54.7983 33.1853 54.6592 33.2552 54.4854C33.4067 54.0912 33.628 53.7202 33.7679 53.3145C33.8261 53.129 33.5348 53.0595 33.4649 53.245ZM52.1313 43.3102C52.2712 43.1595 52.0498 42.9277 51.8983 43.0784C51.5138 43.4609 51.1992 43.9015 50.9428 44.3652C50.7448 44.7129 50.3952 45.2346 50.5117 45.6519C50.535 45.7331 50.6399 45.7562 50.6982 45.6983C51.0011 45.4317 51.0943 44.91 51.2807 44.5506C51.5138 44.1101 51.7934 43.6812 52.1313 43.3102ZM30.6568 53.5464C30.4354 53.9869 30.2723 54.4506 30.1558 54.9259C30.1558 54.9375 30.1441 54.9491 30.1441 54.9722C30.0975 55.2273 30.4704 55.3432 30.5403 55.0766C30.6568 54.6129 30.7617 54.1608 30.9598 53.7202C31.0646 53.5116 30.7617 53.3377 30.6568 53.5464ZM27.4176 53.9057C27.2311 54.2419 26.6718 54.9143 27.103 55.2389C27.1845 55.3084 27.336 55.2157 27.3243 55.1113C27.2777 54.7288 27.5224 54.381 27.6739 54.0564C27.7671 53.8825 27.5224 53.7318 27.4176 53.9057ZM16.6046 45.223C16.29 45.8142 16.0103 46.4286 15.7074 47.0314C15.451 47.5531 15.1364 48.0747 14.9849 48.6196C14.9616 48.7123 15.0898 48.8051 15.1597 48.7239C15.5442 48.295 15.7656 47.7154 15.9987 47.1937C16.2783 46.5793 16.5463 45.9649 16.8259 45.3505C16.8959 45.1998 16.6861 45.0723 16.6046 45.223ZM25.4717 53.9869C25.1804 54.2767 24.7726 54.8563 24.9473 55.2968C24.9823 55.378 25.0639 55.4475 25.1571 55.4127C25.2736 55.378 25.4367 55.2041 25.3086 55.0766C25.2969 55.065 25.2853 55.0534 25.2736 55.0534C25.2853 54.7404 25.4717 54.4158 25.6814 54.1839C25.7979 54.0564 25.5999 53.8594 25.4717 53.9869ZM32.1949 53.3261C31.9385 53.9173 31.6705 54.4969 31.4258 55.0882C31.3559 55.2505 31.5423 55.3664 31.6822 55.3432C31.8453 55.32 31.9269 55.2041 31.9618 55.0534C31.9735 55.007 31.9502 54.9606 31.9269 54.9375C32.1133 54.439 32.2881 53.9405 32.4745 53.442C32.5328 53.2797 32.2648 53.1638 32.1949 53.3261ZM29.5033 53.8941C29.3867 54.1144 29.2236 54.3115 29.1304 54.5433C29.0605 54.7172 28.9673 55.0766 29.2469 55.1345C29.48 55.1809 29.41 54.8795 29.445 54.752C29.5033 54.4969 29.6897 54.2883 29.8062 54.068C29.8878 53.871 29.6081 53.7087 29.5033 53.8941ZM28.373 53.8594C28.0817 54.1492 27.9419 54.6129 27.9419 55.0186C27.9419 55.1925 28.2215 55.2968 28.3031 55.1113C28.3497 55.0186 28.3497 55.0186 28.3614 54.9027C28.3614 54.8795 28.3497 54.8679 28.3497 54.8447C28.373 54.5781 28.4313 54.2883 28.6061 54.0912C28.7342 53.9405 28.5128 53.7087 28.373 53.8594ZM24.4347 54.3578C24.2482 54.5433 24.1084 54.7752 24.0035 55.007C23.922 55.1809 23.7938 55.4707 23.922 55.6446C23.9802 55.7257 24.1434 55.7373 24.1667 55.6098C24.2366 55.2157 24.3298 54.8447 24.5978 54.5317C24.7143 54.4158 24.5512 54.2419 24.4347 54.3578ZM61.2432 47.2517C60.0314 47.7849 58.7147 47.982 57.4097 48.1791C57.13 47.0894 56.5707 46.0345 55.9532 45.1303C55.4405 44.3767 54.8928 43.6348 54.2054 43.0204C53.8442 42.6958 53.483 42.464 53.0984 42.2785C53.4946 42.0699 53.8325 41.78 54.0772 41.3743C54.6249 40.4585 54.2636 39.3688 53.3781 38.8124C52.2012 38.0936 50.6865 38.2791 49.3815 38.3255C49.2067 38.3371 49.0436 38.3371 48.8688 38.3371C48.9853 37.2706 49.1251 35.8911 50.2204 35.6708C50.7331 35.5665 51.2807 35.5897 51.7934 35.5201C52.3527 35.439 52.8887 35.2767 53.4014 35.0332C55.3007 34.129 56.4659 32.1931 57.3514 30.3731C58.5516 27.8807 59.4488 25.3304 60.1129 22.6525C60.8587 19.6733 61.6044 16.7056 61.7908 13.622C61.8957 11.8484 61.919 10.1327 61.7908 8.35905C61.6626 6.63178 61.8374 4.89291 61.5578 3.17723C61.4995 2.82946 60.9985 2.64398 60.7188 2.84105C59.7634 3.50182 58.9943 4.33648 58.2603 5.22909C57.4796 6.17967 56.7455 7.15344 56.1047 8.21994C54.788 10.3993 53.7393 12.7178 52.8421 15.0943C52.1896 16.8331 51.6187 18.5952 51.0477 20.3688C51.0477 19.3835 51.0127 18.4097 51.0127 17.4243C50.9894 15.2218 50.9545 13.0076 50.7215 10.8166C50.3719 7.40847 49.6611 3.36271 46.2937 1.61225C44.6275 0.719636 42.6816 0.510972 40.8056 0.371863C38.685 0.221161 36.5643 0.209569 34.432 0.209569C30.0626 0.197976 25.6931 0.0356822 21.3236 0.0124974C18.8883 0.000904918 16.4647 0.000904918 14.0295 0.0240898C12.7944 0.0356822 11.5593 0.0472747 10.3125 0.0704595C9.65999 0.082052 8.97253 0.0704595 8.30837 0.128422C6.4091 -0.207759 4.52149 0.534157 2.94847 1.79773C1.22398 3.17723 -0.605371 5.69279 0.198613 7.99968C0.186961 8.01128 0.163657 8.03446 0.152005 8.04605C-0.0344257 8.24313 0.105398 8.54453 0.373392 8.56771C0.792863 8.60249 1.22398 8.67205 1.64345 8.67205C2.20275 8.67205 2.76204 8.56771 3.32134 8.50975C4.50983 8.35905 5.68668 8.24313 6.88683 8.24313C8.04037 8.24313 9.20557 8.2779 10.3824 8.40542C10.8601 8.45179 11.3495 8.46338 11.8273 8.53294C11.8273 8.54453 11.8273 8.55612 11.8273 8.56771C11.8506 8.67205 11.9904 8.67205 12.037 8.5909C12.037 8.57931 12.0486 8.57931 12.0486 8.56771C12.3632 8.62568 13.0507 8.71842 13.2604 8.95026C13.2837 8.97345 13.2954 8.98504 13.3187 9.00823C13.342 9.12415 13.3653 9.24008 13.377 9.356C13.8663 12.3468 13.878 15.442 13.843 18.4561C13.7848 24.971 13.0973 31.428 12.7361 37.9314C12.573 40.9106 12.5147 43.9826 12.8876 46.9503C13.2022 49.5354 13.913 52.3987 15.8239 54.3115C15.9054 54.3926 15.987 54.4738 16.0802 54.5433C16.8026 55.5982 18.0377 56.2706 19.2262 56.6531C20.8226 57.1748 22.5587 56.9777 24.2016 56.8154C27.9302 56.4445 31.6938 56.4793 35.4341 56.5256C37.8227 56.5604 40.223 56.5952 42.6117 56.6068C43.8235 56.9198 45.1052 56.9661 46.3636 56.9082C47.7852 56.8386 49.2183 56.7575 50.6166 56.4329C51.071 56.4097 51.5254 56.3749 51.9799 56.3517C53.5762 56.2474 55.3356 56.3517 56.8737 55.8185C58.4583 55.2736 59.8449 54.126 60.7654 52.7581C61.7791 51.2511 61.919 49.4426 62.0005 47.6806C62.0122 47.2633 61.5694 47.1126 61.2432 47.2517ZM49.8009 39.6818C50.6632 39.6354 52.1197 39.4152 52.8072 40.0875C53.4713 40.7251 52.1546 41.2468 51.6886 41.3048C50.6632 41.4439 49.5796 41.2236 48.5542 41.2004C46.1888 41.1425 43.8235 41.4091 41.4582 41.3279C41.0037 41.3163 39.4657 41.3395 39.6288 40.586C39.7104 40.1919 39.8968 39.9484 40.1415 39.7746C42.2388 39.8093 44.3362 39.6007 46.4452 39.6934C47.5638 39.7282 48.6824 39.7282 49.8009 39.6818ZM56.2561 29.5384C55.4172 31.2889 54.3103 33.306 52.3411 33.9667C51.2574 34.3261 49.9757 34.0595 49.0086 34.7318C47.8784 35.5201 47.7619 37.0271 47.6453 38.3255C47.4706 38.3255 47.3074 38.3139 47.1327 38.3139C47.5987 37.4329 47.8085 36.4939 47.9716 35.5085C48.0648 34.9637 48.1697 34.4188 48.2745 33.8856C48.7523 33.6422 49.1368 33.2364 49.5796 32.9234C49.9757 32.6452 50.3835 32.4134 50.7797 32.1467C51.607 31.5787 52.3644 30.9179 53.2266 30.3963C54.0889 29.8746 54.9977 29.4341 55.8716 28.924C56.1047 28.7849 56.4309 28.6574 56.7222 28.5067C56.5824 28.8661 56.4193 29.2022 56.2561 29.5384ZM56.9203 28.0894C56.7106 28.1821 56.4775 28.2401 56.2911 28.3212C55.9066 28.4951 55.5337 28.7154 55.1608 28.9008C54.2986 29.3414 53.4014 29.7703 52.5974 30.2919C51.7818 30.8252 51.0477 31.4512 50.2204 31.9728C49.6495 32.3322 48.9154 32.7263 48.426 33.248C48.5076 32.9002 48.5775 32.5641 48.6707 32.2163C48.6824 32.2047 48.694 32.1815 48.7057 32.1699C49.0669 31.7178 49.498 31.3816 49.9874 31.0686C50.9894 30.431 52.0381 29.9094 53.0751 29.3529C53.6111 29.0631 54.1238 28.7617 54.6831 28.5183C55.1375 28.3328 55.592 28.1357 56.0231 27.9155C56.4076 27.7184 56.7805 27.5329 57.1766 27.3706C57.1883 27.3706 57.1883 27.3591 57.1999 27.3591C57.1184 27.6025 57.0135 27.8459 56.9203 28.0894ZM57.3747 26.9533C57.1533 27.0576 56.9319 27.1272 56.6872 27.2083C56.2445 27.3591 55.8367 27.6025 55.4172 27.7764C54.4967 28.1589 53.6461 28.5647 52.7605 29.0284C51.8051 29.5268 50.8496 30.0021 49.9291 30.5702C49.5446 30.802 49.2067 31.057 48.9038 31.3353C49.1834 30.3035 49.4747 29.2834 49.7893 28.2749C49.9524 28.1589 50.1039 28.0198 50.2554 27.8807C50.6632 27.4982 51.071 27.1504 51.5254 26.8258C52.4459 26.1998 53.4364 25.7361 54.4384 25.2608C55.4288 24.7855 56.4426 24.3334 57.4446 23.8813C57.8175 23.7074 58.1903 23.5451 58.5749 23.3828C58.2137 24.5885 57.8291 25.7709 57.3747 26.9533ZM60.4392 15.0711C58.8662 15.6971 57.398 16.5085 55.8833 17.2389C55.1259 17.5982 54.3452 17.8996 53.5878 18.2358C53.5412 18.259 53.4946 18.2822 53.4364 18.3054C53.7393 18.0851 54.0423 17.8764 54.3569 17.691C55.1841 17.1925 56.0231 16.7404 56.8853 16.3115C57.7476 15.8825 58.6448 15.5464 59.542 15.187C59.81 15.0827 60.1945 14.9783 60.4741 14.7813C60.4625 14.874 60.4508 14.9783 60.4392 15.0711ZM56.2794 10.2602C56.9669 9.00823 57.6893 7.76784 58.5865 6.65496C59.2157 5.86668 59.8449 5.07839 60.5907 4.40603C60.6839 5.64642 60.579 6.88681 60.6489 8.1272C60.6606 8.40542 60.6722 8.67205 60.6839 8.95026C59.9148 9.21689 59.1924 9.59944 58.47 9.95881C57.6427 10.3761 56.8387 10.8051 56.1047 11.3615C55.8833 11.5238 55.6735 11.6977 55.4638 11.8716C55.7201 11.3267 55.9881 10.7935 56.2794 10.2602ZM55.0676 12.741C55.6386 12.2541 56.1979 11.744 56.8154 11.3267C58.0272 10.4921 59.4138 9.94721 60.6955 9.22848C60.7072 9.47192 60.7072 9.70377 60.7072 9.94721C60.0547 10.0284 59.4371 10.3761 58.8778 10.7007C58.2137 11.0833 57.5378 11.4542 56.8737 11.8368C56.2212 12.2077 55.5687 12.5903 54.9511 12.996C54.9861 12.9149 55.021 12.8221 55.0676 12.741ZM53.3548 17.2041C53.5296 16.6824 53.716 16.1608 53.9024 15.6391C54.3802 15.3029 54.788 14.8044 55.2541 14.4451C55.8833 13.9466 56.5707 13.5177 57.2698 13.1235C57.8175 12.8221 58.3535 12.5439 58.8778 12.2193C59.3788 11.9063 59.9381 11.5817 60.544 11.5354C60.6489 11.5238 60.6722 11.3847 60.5673 11.3499C60.1013 11.1992 59.5769 11.4542 59.1691 11.6513C58.5516 11.9527 57.9573 12.3121 57.3398 12.6367C56.5824 13.0308 55.8483 13.4829 55.1608 13.993C54.8928 14.19 54.5782 14.4103 54.2869 14.6653C54.4035 14.3523 54.5316 14.0509 54.6598 13.7379C54.8812 13.5756 55.1026 13.4134 55.3356 13.2742C55.9532 12.8917 56.5591 12.4976 57.1883 12.1498C58.3535 11.489 59.4954 10.7123 60.7305 10.1907C60.7421 11.0369 60.7188 11.8947 60.6606 12.7526C60.6256 13.309 60.579 13.877 60.5207 14.4335C60.2877 14.6074 59.9381 14.6885 59.6818 14.7813C59.3322 14.9088 58.9943 15.0363 58.6448 15.1638C57.8524 15.4536 57.0718 15.7782 56.3144 16.1608C55.5221 16.5549 54.7414 16.9838 53.9723 17.4475C53.7044 17.6098 53.4131 17.7721 53.1218 17.9576C53.1917 17.691 53.2732 17.4475 53.3548 17.2041ZM52.6906 19.1748C53.0635 18.9777 53.4364 18.7922 53.8209 18.6184C54.6132 18.259 55.4288 17.9692 56.1979 17.575C56.9436 17.1925 57.6427 16.752 58.4001 16.4042C59.0876 16.0796 59.7983 15.7898 60.4042 15.3493C60.3693 15.6391 60.3227 15.9405 60.276 16.2303C59.6119 16.2303 58.971 16.6708 58.3768 16.9143C57.5145 17.262 56.6523 17.6562 55.8017 18.0271C54.9395 18.3981 54.1005 18.7922 53.2849 19.2443C53.0518 19.3719 52.7955 19.511 52.5392 19.6617C52.5858 19.511 52.6324 19.3371 52.6906 19.1748ZM52.2362 20.5775C52.5625 20.3572 52.8771 20.0442 53.1567 19.8935C53.9257 19.453 54.7064 19.0357 55.5104 18.6647C56.3493 18.2938 57.1766 17.9112 58.0156 17.5287C58.6914 17.2157 59.4604 16.7404 60.2178 16.6129C60.1712 16.8563 60.1246 17.0997 60.0663 17.3432C59.9381 17.888 59.81 18.4329 59.6818 18.9893C59.0992 19.3139 58.4117 19.4878 57.8291 19.7892C56.897 20.2761 56.0114 20.7977 55.1375 21.4005C54.2636 22.0149 53.3315 22.5482 52.4692 23.1742C52.0614 23.464 51.7352 23.8118 51.374 24.1479C51.2458 24.2639 51.106 24.3798 50.9661 24.4957C51.374 23.1858 51.8051 21.8758 52.2362 20.5775ZM50.7098 25.3304C51.4555 24.9015 52.0381 24.0552 52.7023 23.5567C53.6111 22.8728 54.6132 22.3048 55.5221 21.6324C56.3843 20.9948 57.3398 20.4963 58.2719 19.9631C58.6098 19.7776 59.1575 19.6385 59.5886 19.4066C59.4604 19.9167 59.3322 20.4384 59.2041 20.9484C59.1924 20.9484 59.1924 20.9484 59.1808 20.9484C58.4234 21.3194 57.6078 21.5512 56.8271 21.899C55.8716 22.3163 54.9278 22.7916 54.019 23.3249C53.215 23.8002 52.4226 24.2986 51.6653 24.8551C51.3157 25.1101 50.9428 25.3767 50.5933 25.655C50.6399 25.539 50.6748 25.4347 50.7098 25.3304ZM52.0148 25.2145C52.7722 24.658 53.5645 24.1595 54.3569 23.6727C55.2191 23.1394 56.128 22.6757 57.0485 22.2584C57.7243 21.9454 58.4816 21.7251 59.1109 21.3078C59.0642 21.4933 59.0176 21.6903 58.971 21.8758C58.8778 22.2584 58.7729 22.6409 58.6681 23.0119C58.4467 23.0814 58.2137 23.1394 58.0156 23.2206C57.5961 23.3944 57.1883 23.5915 56.7688 23.777C55.825 24.1827 54.8928 24.5885 53.9607 25.0174C53.0518 25.4347 52.1313 25.8752 51.304 26.4433C50.8613 26.7447 50.4535 27.0808 50.0573 27.4286C50.1389 27.1736 50.2204 26.9301 50.2903 26.6751C50.8613 26.1766 51.3973 25.655 52.0148 25.2145ZM7.18978 7.17662C5.90807 7.16503 4.64966 7.25777 3.37959 7.44325C2.72709 7.53599 2.06292 7.6751 1.41042 7.70987C1.14242 7.72147 0.862774 7.72147 0.618083 7.79102C0.851122 5.73916 2.00467 3.91915 3.65924 2.69035C3.47281 2.9222 3.29803 3.16564 3.14656 3.42067C2.91352 3.82641 2.57561 4.37125 2.64552 4.85814C2.65717 4.92769 2.77369 4.96247 2.80865 4.90451C3.09995 4.53355 3.21647 4.02348 3.44951 3.60615C3.72915 3.11927 4.05541 2.64398 4.46323 2.26143C4.49818 2.22665 4.50983 2.19188 4.49818 2.1571C4.89435 1.93684 5.31382 1.73977 5.74494 1.58907C5.46529 2.07595 5.15069 2.53965 4.84774 3.02653C4.52149 3.55978 4.07871 4.19737 4.07871 4.84654C4.07871 4.90451 4.16028 4.95087 4.19523 4.89291C4.6147 4.38285 4.84774 3.67571 5.18565 3.10768C5.50025 2.57443 5.8265 2.04117 6.0945 1.47314C6.33919 1.40359 6.58388 1.35722 6.82857 1.33404C6.93344 1.32244 7.04996 1.32244 7.15483 1.31085C6.6771 1.87888 6.32754 2.51646 6.03624 3.18882C5.75659 3.82641 5.27886 4.69584 5.30217 5.41457C5.30217 5.49572 5.43034 5.56527 5.4886 5.49572C5.89642 4.98565 6.02459 4.19737 6.25763 3.59456C6.57223 2.80627 6.94509 2.0064 7.48108 1.34563L7.49273 1.33404C7.86559 1.36881 8.23846 1.44996 8.59967 1.58907C8.2035 2.28461 7.80733 2.96857 7.45778 3.6873C7.16648 4.27851 6.78196 4.98565 6.81692 5.65801C6.81692 5.76235 6.95674 5.79712 7.015 5.71598C7.39952 5.10158 7.58595 4.33648 7.8889 3.6873C8.2035 3.01494 8.56471 2.36576 8.91427 1.71659C9.19392 1.8441 9.47356 2.0064 9.71825 2.18028C9.43861 2.78309 9.14731 3.39749 8.85601 4.01189C8.56471 4.63788 8.16854 5.27546 7.98211 5.95942C7.95881 6.06375 8.08698 6.1449 8.16854 6.06375C8.63462 5.54209 8.90262 4.83495 9.18226 4.20896C9.46191 3.59456 9.71825 2.98016 9.98625 2.36576C9.9979 2.37735 10.0096 2.38895 10.0212 2.40054C10.2659 2.59761 10.4873 2.80627 10.697 3.03812C10.6621 3.04972 10.6271 3.0729 10.6038 3.11927C10.2309 3.79163 9.89303 4.47558 9.56678 5.17113C9.27548 5.79712 8.91427 6.43471 8.7861 7.11866C8.77445 7.16503 8.8094 7.22299 8.85601 7.25777C8.30837 7.2114 7.74907 7.17662 7.18978 7.17662ZM11.2447 7.42006C10.8485 7.39688 10.464 7.3621 10.0795 7.33892C10.3125 6.91 10.4523 6.42311 10.697 5.9826C10.9767 5.47253 11.2796 4.97406 11.5127 4.44081C11.5942 4.25533 11.3262 4.09303 11.233 4.27851C10.9534 4.85814 10.5805 5.3798 10.2659 5.93623C10.0329 6.34197 9.75321 6.81726 9.72991 7.30414C9.47356 7.28095 9.22887 7.26936 8.97253 7.24618C8.98418 7.23458 8.99583 7.23458 9.00749 7.22299C9.43861 6.67815 9.67165 5.99419 9.95129 5.3682C10.2659 4.66106 10.5921 3.96552 10.9534 3.29316C10.9534 3.29316 10.9534 3.29316 10.9534 3.28156C11.4777 3.90756 11.9088 4.6031 12.2467 5.34502C12.2467 5.35661 12.2351 5.3798 12.2351 5.39139C12.2118 5.79712 11.9787 6.20286 11.7806 6.55063C11.6525 6.77089 11.3029 7.13025 11.3612 7.39688C11.3612 7.40847 11.3612 7.40847 11.3728 7.42006C11.3146 7.43166 11.2796 7.42006 11.2447 7.42006ZM12.0253 7.50121C11.8972 7.47802 11.769 7.46643 11.6408 7.45484C11.8972 7.31573 12.0719 6.88681 12.1768 6.67815C12.2933 6.4463 12.4099 6.20286 12.4798 5.94782C12.538 6.11012 12.5963 6.26082 12.6545 6.42311C12.6312 6.43471 12.6196 6.45789 12.5963 6.48108C12.4332 6.77089 12.2001 7.13025 12.0253 7.50121ZM12.9109 7.68669C12.7478 7.64032 12.5963 7.60554 12.4332 7.57077C12.538 7.31573 12.6662 7.07229 12.7944 6.82885C12.8876 7.13025 12.9691 7.42006 13.0507 7.72147C13.0041 7.70987 12.9575 7.69828 12.9109 7.68669ZM22.0227 49.5238C21.6615 50.5787 21.1255 51.5525 20.6711 52.561C20.473 52.9899 20.2982 53.4188 20.1584 53.871C20.1001 54.0448 20.0302 54.2419 19.9836 54.439C19.4476 54.4506 18.9233 54.3578 18.4223 54.1724C18.4805 53.8941 18.5271 53.6159 18.6203 53.3493C18.8301 52.7581 19.0864 52.1785 19.3311 51.5988C19.5758 51.0192 19.8438 50.4512 20.0535 49.8716C20.2167 49.3963 20.4613 48.9326 20.4963 48.4341C20.508 48.2254 20.205 48.237 20.1817 48.4341C20.1118 49.0253 19.7156 49.6977 19.4826 50.2309C19.2262 50.799 18.9816 51.3786 18.7252 51.9466C18.4689 52.5146 18.061 53.2681 17.9562 53.9753C17.6299 53.8014 17.3153 53.5811 17.024 53.3145C17.1289 52.9436 17.2105 52.5494 17.3619 52.1901C17.595 51.6452 17.8047 51.112 18.0144 50.5555C18.2475 49.9643 18.4922 49.3731 18.7951 48.8282C19.0515 48.3645 19.2962 47.9356 19.3311 47.4024C19.3428 47.2053 19.0398 47.2053 19.0165 47.4024C18.9582 48.04 18.5038 48.55 18.2125 49.1065C17.9445 49.6281 17.6998 50.173 17.4901 50.7294C17.2687 51.309 16.756 52.1205 16.5813 52.874C16.4414 52.7001 16.3016 52.5146 16.1734 52.3176C16.0336 52.0973 15.9054 51.8655 15.7889 51.6336C15.9054 51.2858 15.9637 50.9033 16.0686 50.5439C16.255 49.9643 16.4764 49.3731 16.7327 48.8167C17.1172 47.9704 17.5717 47.1705 17.6765 46.2315C17.6998 46.0808 17.4318 46.0461 17.4085 46.1968C17.2338 47.2285 16.6046 48.1211 16.2084 49.0717C15.9753 49.6281 15.6374 50.3353 15.4976 51.0076C14.9034 49.6745 14.6004 48.237 14.4256 46.788C15.0781 46.1272 15.0665 45.0143 15.7656 44.3536C15.8821 44.2492 15.7074 44.0753 15.5908 44.1797C15.218 44.5043 14.9966 44.9332 14.7985 45.3737C14.6587 45.6867 14.5072 46.0113 14.3674 46.3359C14.3208 45.8142 14.2858 45.281 14.2625 44.7593C14.2975 44.6897 14.3324 44.6318 14.3674 44.5622C14.5072 44.284 14.6587 44.0058 14.7169 43.7044C14.7402 43.5769 14.5538 43.5305 14.5189 43.6464C14.4606 43.8667 14.3557 44.0522 14.2392 44.2492C14.146 41.1425 14.2509 38.0589 14.4956 34.9637C15.0082 28.4603 15.5559 21.9106 15.3811 15.3841C15.2995 12.4164 15.1481 9.36759 14.2276 6.52745C13.5634 4.4524 12.3749 2.3078 10.5222 1.06741C11.3146 1.06741 12.1069 1.079 12.8992 1.079C14.9849 1.079 17.0706 1.09059 19.1447 1.11378C23.351 1.16015 27.5457 1.25289 31.7404 1.32244C33.7795 1.35722 35.8186 1.33404 37.8694 1.392C39.8968 1.44996 41.9708 1.47314 43.9517 1.94843C45.6995 2.36576 47.1093 3.25838 48.0299 4.81177C48.9387 6.33037 49.2883 8.10402 49.498 9.83129C50.034 14.3292 49.6728 18.8734 50.1039 23.3713C49.3582 25.6781 48.6124 27.9966 47.9949 30.3267C47.6337 31.7062 47.2492 33.1089 47.0627 34.5232C46.888 35.7868 46.8763 37.1315 46.4335 38.3371C45.7228 38.3255 45.012 38.3255 44.3012 38.3719C43.4506 38.4298 42.6 38.5226 41.7495 38.6037C40.1065 37.6647 37.4382 40.2267 38.7433 41.8264C39.1511 42.3249 39.7337 42.5451 40.3512 42.6379C38.5102 44.0406 36.9722 45.9881 36.6342 48.2718C36.5643 48.237 36.4828 48.2254 36.3896 48.2254C35.4924 48.2138 34.6068 48.1443 33.7096 48.0515C32.7891 47.9588 31.857 47.924 30.9364 47.8197C30.1325 47.727 29.3634 47.7038 28.5478 47.727C28.0118 47.7386 27.3477 47.7038 26.8117 47.9008C26.532 47.7501 26.1708 47.8081 26.1009 48.2023C25.8912 49.3383 25.5299 50.486 24.8774 51.4481C25.0522 51.0076 25.227 50.5671 25.4018 50.1266C25.495 49.8947 25.1221 49.802 25.0289 50.0223C24.7842 50.6135 24.5279 51.2047 24.2832 51.8075C24.2016 52.0162 24.0968 52.2364 24.0152 52.4683C23.4676 53.0131 22.8267 53.4884 22.1509 53.8594C22.1858 53.755 22.2324 53.6391 22.2907 53.5348C22.4771 53.1754 22.6403 52.8856 22.7684 52.503C23.083 51.5872 23.4442 50.6946 23.7472 49.7788C23.8171 49.5586 23.4676 49.4658 23.3976 49.6861C23.0481 50.6598 22.6636 51.6452 22.2557 52.5958C22.0344 53.1059 21.6382 53.6043 21.5333 54.1608C21.1838 54.2999 20.8226 54.3926 20.4613 54.439C20.4963 54.2651 20.5313 54.0912 20.5895 53.9289C20.7643 53.3957 20.9857 52.874 21.2187 52.3639C21.6265 51.4713 22.0577 50.5903 22.349 49.6513C22.4305 49.4079 22.0926 49.3151 22.0227 49.5238ZM23.0131 55.32C22.9549 55.4591 22.8617 55.6562 22.8733 55.8185C22.2557 55.8649 21.6382 55.8764 21.0323 55.8417C21.7664 55.691 22.4771 55.4243 23.1529 55.0186C23.1063 55.1229 23.0597 55.2157 23.0131 55.32ZM36.541 55.3664C36.5527 55.3432 36.5643 55.32 36.576 55.2968C36.5876 55.2505 36.5993 55.2157 36.6109 55.1693C36.6109 55.1577 36.6109 55.1577 36.6226 55.1461C36.7741 54.6476 37.0304 54.1839 37.1353 53.6739C37.1702 53.4884 36.8906 53.4073 36.8556 53.5927C36.7158 54.1608 36.3663 54.6361 36.2497 55.2041C36.2381 55.2736 36.2614 55.32 36.2963 55.3664C35.9817 55.3664 35.6671 55.3548 35.3409 55.3548C35.3409 55.3432 35.3525 55.32 35.3642 55.2852C35.3758 55.2505 35.3642 55.2041 35.3409 55.1809C35.3875 54.6476 35.539 54.1724 35.8536 53.7202C35.9817 53.5348 35.6904 53.3725 35.5506 53.5464C35.1545 54.068 34.9098 54.694 34.9098 55.3548C31.9735 55.3316 29.0488 55.3548 26.1242 55.5287C26.1475 55.4939 26.1708 55.4707 26.2174 55.4359C26.2757 55.3896 26.2407 55.2968 26.1708 55.2736C26.1242 55.262 26.0892 55.262 26.0659 55.262C26.0776 54.9143 26.3339 54.5433 26.4971 54.2651C26.5903 54.1144 26.3572 53.9869 26.264 54.126C25.996 54.4969 25.6232 55.0302 25.7513 55.5171C25.7513 55.5287 25.763 55.5287 25.763 55.5403C24.9007 55.5982 24.0268 55.7141 23.1646 55.7837C23.1763 55.7373 23.1763 55.6794 23.1996 55.6214C23.2345 55.4707 23.2928 55.32 23.351 55.1693C23.386 55.0534 23.4209 54.949 23.4442 54.8331C25.5416 53.5 27.2661 51.2511 27.1729 48.7123C27.6623 48.7587 28.1982 48.7471 28.6643 48.7471C29.48 48.7587 30.2723 48.8514 31.0879 48.921C32.859 49.0717 34.6418 49.3035 36.4129 49.3151C36.4711 49.3151 36.5294 49.3035 36.5876 49.2919C36.6226 50.8453 37.2402 52.3523 38.2073 53.5927C38.1956 53.6043 38.184 53.6043 38.1723 53.6159C37.7761 54.126 37.38 54.7056 37.2868 55.3548C37.0304 55.378 36.7857 55.3664 36.541 55.3664ZM38.5801 54.8563C38.5219 55.007 38.4286 55.2041 38.4286 55.3896C38.184 55.3896 37.9276 55.378 37.6829 55.378C37.6829 55.3664 37.6829 55.3432 37.6829 55.3316C37.7761 54.7868 38.0674 54.2999 38.3937 53.8478C38.5335 54.0217 38.685 54.1955 38.8481 54.3578C38.7433 54.5201 38.6617 54.6824 38.5801 54.8563ZM38.8481 55.4012C38.8831 55.2505 38.8947 55.0998 38.9413 54.949C38.9763 54.8215 39.0229 54.7056 39.0812 54.5897C39.3958 54.8911 39.7337 55.1693 40.0832 55.4127C39.6638 55.4127 39.2559 55.4012 38.8481 55.4012ZM51.9566 54.6129C51.6769 54.7288 51.3856 54.8331 51.0827 54.9259C51.0943 54.8911 51.106 54.8679 51.1176 54.8331C51.1875 54.6361 50.8729 54.5549 50.8147 54.752C50.7797 54.8563 50.7331 54.949 50.6982 55.0418C50.3253 55.1461 49.9524 55.2157 49.5679 55.2852C49.6844 55.065 49.8476 54.8679 49.9524 54.6476C50.0573 54.4506 49.766 54.2767 49.6495 54.4738C49.5446 54.6592 49.2417 55.0186 49.0902 55.3548C48.962 55.378 48.8338 55.3896 48.694 55.4012C48.3561 55.4127 48.0299 55.4243 47.6919 55.4359C47.7502 55.2736 47.8085 55.0998 47.8784 54.9375C48.0532 54.6013 48.2396 54.2767 48.4144 53.9405C48.5076 53.755 48.2396 53.5927 48.1347 53.7782C47.925 54.1724 47.6686 54.5317 47.4589 54.9259C47.3773 55.0882 47.2841 55.262 47.2259 55.4359C47.1093 55.4359 46.9812 55.4475 46.8647 55.4475C46.6083 55.4475 46.352 55.4475 46.0956 55.4475C46.2937 54.9954 46.585 54.5781 46.7831 54.1724C46.8763 53.9869 46.5967 53.813 46.4918 54.0101C46.2821 54.4042 46.0374 54.7752 45.8393 55.1809C45.7927 55.262 45.7461 55.3664 45.7111 55.4591C45.4198 55.4591 45.1285 55.4591 44.8256 55.4591C44.8372 55.3896 44.8489 55.3084 44.8722 55.2505C45.0003 54.9143 45.1751 54.5897 45.3849 54.2999C45.513 54.1144 45.2101 53.9521 45.0819 54.126C44.8489 54.439 44.6508 54.7868 44.511 55.1577C44.476 55.2505 44.4294 55.3548 44.4061 55.4707C44.1148 55.4707 43.8352 55.4707 43.5439 55.4707C43.4856 55.4591 43.4273 55.4475 43.3691 55.4359C43.4972 54.7172 43.9284 54.0332 44.4178 53.5116C44.5459 53.3725 44.3478 53.1638 44.1964 53.2913C43.8352 53.6391 43.5322 54.0448 43.2875 54.4854C43.1477 54.7288 42.9962 55.0302 42.938 55.3316C42.8913 55.32 42.8564 55.3084 42.8098 55.2968C42.5418 55.2273 42.2621 55.1229 42.0058 55.0186C42.0058 55.007 42.0058 55.007 42.0174 54.9954C42.0874 54.7172 42.2155 54.4506 42.3437 54.1955C42.5651 53.755 42.8331 53.3377 43.0312 52.8856C43.1127 52.7117 42.8564 52.5494 42.7632 52.7349C42.4952 53.2797 42.134 53.7666 41.866 54.3115C41.7844 54.4622 41.6912 54.6476 41.6213 54.8447C41.4232 54.7404 41.2251 54.6361 41.027 54.5085C41.1785 54.126 41.3533 53.6623 41.3999 53.5695C41.6329 53.1406 41.8893 52.7349 42.099 52.306C42.1922 52.1321 41.9242 51.9698 41.831 52.1437C41.4582 52.8276 40.9222 53.5 40.6542 54.2419C40.4677 54.1144 40.293 53.9637 40.1182 53.813C40.1182 53.8014 40.1298 53.7782 40.1415 53.7666C40.3512 53.2681 40.6658 52.7349 41.0387 52.3292C41.1785 52.1785 40.9571 51.9582 40.8173 52.1089C40.6658 52.2596 40.1298 52.932 39.8152 53.5348C39.6638 53.3957 39.5239 53.245 39.3958 53.0943C39.4307 52.9552 39.4424 52.7929 39.489 52.6653C39.5938 52.3755 39.7453 52.0973 39.8735 51.8191C39.9434 51.6684 39.722 51.5293 39.6405 51.68C39.4773 51.9814 39.3142 52.2712 39.186 52.5842C39.1627 52.6422 39.1394 52.7001 39.1161 52.7697C38.9879 52.5958 38.8598 52.4335 38.7433 52.248C38.8132 52.0162 38.8831 51.7959 38.9996 51.5641C39.1627 51.2511 39.3492 50.9613 39.5472 50.6598C39.6521 50.486 39.3958 50.3469 39.2792 50.5091C39.1627 50.6714 38.685 51.2974 38.4753 51.8075C38.3587 51.5988 38.2539 51.3786 38.1607 51.1583C38.184 51.1004 38.184 51.0424 38.2073 50.9613C38.2422 50.7642 38.3121 50.5671 38.4053 50.3932C38.5568 50.0686 38.7666 49.7672 39.0462 49.5238C39.1511 49.431 39.0112 49.2456 38.8947 49.3267C38.5568 49.5818 38.3005 49.9063 38.114 50.2773C38.0674 50.3584 38.0092 50.4744 37.9626 50.6019C37.916 50.4396 37.8694 50.2657 37.8344 50.1034C37.9509 49.8947 38.0325 49.6629 38.1373 49.4658C38.3005 49.1644 38.4636 48.863 38.5801 48.5384C38.6151 48.4457 38.452 48.3761 38.417 48.4689C38.2539 48.8051 38.0441 49.1181 37.8577 49.4426C37.8227 49.5006 37.7878 49.5586 37.7528 49.6165C37.4149 46.7648 39.454 44.4463 41.4931 42.6727C41.5514 42.6727 41.6096 42.6727 41.6679 42.6727C43.2059 42.719 44.744 42.6147 46.2937 42.5683C46.3753 42.5683 46.4452 42.5683 46.5267 42.5683C46.4452 42.6727 46.3753 42.7886 46.3054 42.9045C46.1655 43.1248 45.9325 43.3914 45.9791 43.6696C45.9908 43.7392 46.0723 43.7508 46.1189 43.7276C46.3403 43.6116 46.4452 43.2755 46.5734 43.0552C46.6666 42.8929 46.7714 42.719 46.8763 42.5567C47.2375 42.5567 47.5987 42.5567 47.9599 42.5683C47.4939 43.09 46.585 43.8319 46.9113 44.3883C46.9579 44.4579 47.0511 44.4463 47.0977 44.3883C47.2026 44.2376 47.2142 44.029 47.2958 43.8667C47.4006 43.6696 47.5405 43.5073 47.6919 43.345C47.9133 43.1016 48.1464 42.8581 48.3212 42.5799C48.6008 42.5915 48.8804 42.6031 49.1601 42.6147C48.9387 42.9045 48.729 43.1943 48.5425 43.5073C48.3445 43.8435 47.9716 44.3999 48.2629 44.7593C48.3678 44.8868 48.5309 44.7361 48.5076 44.6202C48.4493 44.2376 48.8804 43.6812 49.0552 43.3682C49.2067 43.1132 49.3582 42.8697 49.5213 42.6379C49.8709 42.6495 50.2321 42.6727 50.5816 42.6843C50.2554 43.0784 49.9524 43.4841 49.6961 43.9246C49.463 44.3072 49.1135 44.852 49.2067 45.3157C49.23 45.4085 49.3582 45.4433 49.4164 45.3737C49.7194 45.0375 49.8126 44.5159 50.034 44.1217C50.302 43.6348 50.6049 43.1711 50.9545 42.7306C50.9661 42.719 50.9661 42.7074 50.9778 42.6958C51.1642 42.6958 51.3623 42.6958 51.5604 42.6727C52.4809 43.2639 53.2965 43.8899 53.9956 44.7013C53.984 44.7129 53.9723 44.7245 53.9723 44.7361C53.7044 45.1766 53.4247 45.594 53.1451 46.0229C52.9004 46.3822 52.5508 46.788 52.4809 47.2285C52.4576 47.356 52.5858 47.4256 52.6906 47.3444C53.0285 47.0662 53.2383 46.5793 53.4713 46.2084C53.7277 45.8026 53.984 45.3853 54.217 44.968C54.3219 45.1071 54.4268 45.2462 54.5316 45.3853C54.5782 45.4433 54.6249 45.5128 54.6598 45.5824C54.3336 45.9301 54.0423 46.3127 53.7976 46.7184C53.5529 47.1126 53.215 47.6342 53.2849 48.1095C53.2965 48.2023 53.4364 48.237 53.4946 48.1675C53.7859 47.8081 53.8791 47.3096 54.1122 46.9039C54.3219 46.5329 54.5666 46.1852 54.8462 45.8606C55.021 46.1272 55.1958 46.4054 55.3589 46.6836C54.7414 47.3444 53.8558 48.3414 54.3103 48.7471C54.4268 48.8514 54.6016 48.7819 54.6016 48.6312C54.6249 48.1791 54.9977 47.7617 55.2541 47.414C55.3473 47.2864 55.4405 47.1705 55.5337 47.043C55.6852 47.3328 55.8134 47.6342 55.9182 47.9356C55.8017 48.0863 55.6968 48.2486 55.592 48.4109C55.4521 48.6312 54.9511 49.2688 55.1492 49.5354C55.1841 49.5817 55.2308 49.6049 55.289 49.5933C55.5803 49.547 55.7318 48.921 55.86 48.7007C55.9182 48.5848 55.9881 48.4689 56.058 48.353C56.1513 48.6775 56.2095 49.0137 56.2328 49.3499C56.2328 49.431 56.2445 49.5122 56.2445 49.5933C55.8949 50.057 55.5454 50.5439 55.3822 51.0656C55.3473 51.1815 55.5104 51.2742 55.592 51.1815C55.8017 50.9613 55.9648 50.7062 56.1396 50.4512C55.6619 52.3523 53.6694 53.8825 51.9566 54.6129ZM53.984 55.0766C54.3685 54.8447 54.7297 54.5781 55.0793 54.2883C54.9278 54.5201 54.7181 54.7752 54.6365 55.0302C54.4151 55.0534 54.2054 55.065 53.984 55.0766ZM59.8799 52.0393C59.2041 53.0015 58.2137 53.8941 57.1184 54.4274C57.2349 54.1839 57.3747 53.9521 57.5378 53.7202C57.666 53.5348 57.3631 53.3725 57.2349 53.5464C56.9902 53.8594 56.7805 54.2071 56.6173 54.5781C56.6057 54.6013 56.594 54.6245 56.5824 54.6592C56.5125 54.6824 56.4309 54.7172 56.3493 54.7404C56.1513 54.7983 55.9532 54.8447 55.7434 54.8911C55.8017 54.7056 55.8833 54.5317 55.9648 54.3462C56.1629 53.9173 56.4193 53.5232 56.6989 53.1522C56.8154 53.0015 56.5591 52.8044 56.4426 52.9551C56.093 53.3957 55.7784 53.871 55.5337 54.3694C55.4521 54.5317 55.3473 54.752 55.2774 54.9722C55.1958 54.9838 55.1026 54.9954 55.021 55.007C55.2075 54.7752 55.3356 54.4622 55.4405 54.2303C55.4987 54.0912 55.5687 53.9521 55.6153 53.813C56.6173 52.8276 57.3631 51.622 57.5611 50.2309C57.6194 49.7788 57.6194 49.3267 57.5611 48.8862C58.7263 48.9558 59.8566 48.7819 60.9519 48.4225C60.847 49.6861 60.6489 50.9497 59.8799 52.0393ZM31.2627 34.4884C33.4649 34.5695 35.6671 34.6507 37.8694 34.5C38.9297 34.4304 40.0017 34.3145 41.062 34.2102C41.5048 34.1638 41.9592 34.0827 42.402 34.0595C42.7632 34.0363 43.1244 34.1406 43.4739 34.1174C43.6604 34.1059 43.8352 33.9667 43.8235 33.7697C43.7885 32.8539 42.8214 32.7032 42.0757 32.7843C41.027 32.9002 39.9667 32.9814 38.918 33.1089C36.6109 33.3871 34.2456 33.3176 31.9269 33.248C29.6431 33.1785 27.3826 33.1785 25.0988 33.2132C23.9919 33.2248 22.8966 33.2132 21.7897 33.0973C20.776 32.993 19.7622 32.993 18.7718 33.306C18.5388 33.3755 18.5271 33.7117 18.7718 33.7813C19.704 34.0595 20.6944 33.9783 21.6498 34.1174C22.6403 34.2681 23.654 34.3261 24.656 34.3493C26.8699 34.3957 29.0605 34.4073 31.2627 34.4884ZM23.4559 26.791C25.3319 26.8026 27.1845 26.9881 29.0488 26.9997C30.9831 27.0113 32.9289 26.9069 34.8632 27.0461C35.7487 27.104 36.6342 27.2083 37.5198 27.2199C38.4286 27.2315 39.3375 27.162 40.2464 27.1504C41.295 27.1272 42.3087 27.0461 43.3458 26.9301C43.6021 26.8954 43.8585 26.8722 44.1031 26.8606C44.2779 26.849 44.4411 26.849 44.6158 26.8606C44.7557 26.8606 44.9304 27.0113 44.709 26.8258C45.1285 27.1736 45.7577 26.849 45.6296 26.2925C45.3499 25.0522 43.0661 25.7245 42.2388 25.8057C41.2601 25.8984 40.2813 25.8752 39.3025 25.9216C38.3354 25.9564 37.3683 25.9796 36.4012 25.9216C35.4458 25.8636 34.5019 25.7593 33.5581 25.7477C32.5328 25.7361 31.5074 25.7941 30.4704 25.8288C29.4566 25.8636 28.4429 25.8868 27.4409 25.8752C26.4738 25.8636 25.5066 25.7245 24.5395 25.7361C23.4326 25.7477 22.3373 25.6781 21.2304 25.6897C20.706 25.6897 20.17 25.597 19.6574 25.6781C19.2262 25.7477 18.8184 25.8984 18.399 26.0027C18.1892 26.0491 18.1776 26.3853 18.399 26.4317C19.1214 26.5592 19.8787 26.5824 20.6128 26.6403C21.545 26.6983 22.5237 26.7794 23.4559 26.791ZM18.6903 10.4921C19.6341 10.8398 20.7293 10.6312 21.7198 10.7239C22.8383 10.8166 23.9569 10.8282 25.0755 10.7819C27.3243 10.6891 29.5615 10.7587 31.7987 10.7935C34.0009 10.8282 36.1915 10.7819 38.3937 10.8862C39.4657 10.9326 40.526 11.0369 41.5863 11.1412C42.2505 11.1992 43.0778 11.1065 43.6371 11.5006C44.0682 11.802 44.6391 11.3035 44.511 10.8398C44.2663 9.95881 43.3574 9.92403 42.5884 9.88925C41.5397 9.84288 40.5027 9.69218 39.4657 9.61103C37.1819 9.43715 34.8865 9.48352 32.6027 9.46033C30.249 9.43715 27.8953 9.33282 25.5416 9.44874C24.3531 9.5067 23.1529 9.58785 21.9644 9.55307C20.8925 9.51829 19.7156 9.52989 18.7019 9.92403C18.399 10.0168 18.399 10.3877 18.6903 10.4921ZM18.399 18.7691C19.4127 19.1052 20.508 19.0473 21.5683 19.0821C22.6519 19.1052 23.7472 19.198 24.8308 19.2096C27.068 19.2328 29.3168 19.1632 31.554 19.14C33.8261 19.1052 36.0983 19.0589 38.3587 19.0473C39.454 19.0473 40.5377 19.0589 41.6213 19.1052C42.635 19.1516 43.8585 19.3255 44.7906 18.8734C45.0936 18.7227 45.0936 18.2126 44.7906 18.0735C43.8701 17.633 42.7282 17.8301 41.7262 17.8069C40.6425 17.7721 39.5589 17.7489 38.4636 17.7605C36.1565 17.7837 33.8494 17.8533 31.5423 17.888C29.3401 17.9344 27.1263 18.004 24.924 18.0387C23.8404 18.0619 22.7451 17.9924 21.6615 18.004C20.5779 18.0155 19.4243 17.9692 18.3873 18.317C18.1776 18.3865 18.1776 18.6995 18.399 18.7691Z" fill="#FFF06A"/>
</svg>
