<svg width="25" height="28" viewBox="0 0 25 28" fill="none" xmlns="http://www.w3.org/2000/svg">
<circle cx="10.958" cy="16.2188" r="10.958" fill="#612B1C"/>
<circle cx="10.958" cy="16.2188" r="10.958" fill="url(#paint0_linear_1_624)"/>
<path d="M24.9925 1.09204C23.689 2.37262 22.6943 3.35593 22.0083 4.04196C20.6819 5.39115 19.893 6.47736 19.6415 7.3006C19.5043 7.73508 19.3556 8.59262 19.1955 9.87321C18.8525 12.5487 18.0179 13.8865 16.6915 13.8865C15.3424 13.8865 14.6678 13.189 14.6678 11.7941C14.6678 10.1705 15.8111 8.1467 18.0979 5.72273C21.2994 2.31546 23.3918 0.611816 24.3751 0.611816C24.8096 0.611816 25.0154 0.77189 24.9925 1.09204ZM17.0689 1.09204C16.3828 1.73233 15.3881 2.69277 14.0846 3.97336C12.804 5.25395 12.0151 6.36303 11.7178 7.3006C11.5578 7.82655 11.3977 8.69552 11.2376 9.90751C10.8946 12.5602 10.0714 13.8865 8.76791 13.8865C7.35012 13.8865 6.64122 13.189 6.64122 11.7941C6.64122 10.1934 7.79604 8.16957 10.1057 5.72273C13.3071 2.31546 15.3881 0.611816 16.3485 0.611816C16.8059 0.611816 17.046 0.77189 17.0689 1.09204Z" fill="#612B1C"/>
<defs>
<linearGradient id="paint0_linear_1_624" x1="21.546" y1="9.9483" x2="4.11505" y2="22.9515" gradientUnits="userSpaceOnUse">
<stop stop-color="#FFC500"/>
<stop offset="1" stop-color="#FF9346"/>
</linearGradient>
</defs>
</svg>
