<svg width="58" height="59" viewBox="0 0 58 59" fill="none" xmlns="http://www.w3.org/2000/svg">
<g clip-path="url(#clip0_701_123)">
<path d="M10.0382 24.9437C9.99467 25.7385 9.67895 26.4461 9.48298 27.1973C9.30879 27.8397 9.01483 28.6344 9.08016 29.2985C9.09104 29.4074 9.24346 29.4836 9.30879 29.3639C9.65717 28.678 9.68984 27.8506 9.89669 27.1211C10.1035 26.4026 10.3104 25.6949 10.3213 24.9437C10.3213 24.7586 10.0491 24.7586 10.0382 24.9437ZM17.0169 30.4961C16.9624 31.6611 16.5923 32.8042 16.429 33.9582C16.2765 35.0034 16.1241 36.0812 16.0479 37.1373C16.037 37.2461 16.2221 37.3006 16.2657 37.1917C16.7229 36.2119 16.6903 35.0578 16.8209 34.0018C16.9733 32.8369 17.2782 31.6719 17.2782 30.4852C17.2782 30.3328 17.0169 30.3328 17.0169 30.4961ZM21.3826 34.6332C21.3391 35.4715 21.1104 36.3207 20.9689 37.159C20.8383 37.9429 20.7076 38.7268 20.6314 39.5216C20.5661 40.3272 20.4899 41.122 20.4245 41.9276C20.3592 42.7224 20.2286 43.5825 20.4137 44.3554C20.4354 44.4643 20.6096 44.4643 20.6314 44.3554C20.8165 43.6042 20.7838 42.7877 20.8491 42.0256C20.9145 41.1873 20.9798 40.349 21.0451 39.5107C21.0995 38.705 21.2411 37.9103 21.3391 37.1046C21.4479 36.2881 21.6221 35.4607 21.6221 34.6332C21.6221 34.4917 21.3935 34.4917 21.3826 34.6332ZM30.1794 43.7458C30.0596 44.4752 30.0814 45.2155 30.027 45.945C29.9617 46.6962 29.8528 47.4474 29.7766 48.1986C29.6895 48.9716 29.6242 49.7337 29.5697 50.5067C29.5153 51.2361 29.4173 52.0091 29.5915 52.7385C29.6133 52.8365 29.7657 52.8365 29.7875 52.7385C29.9508 52.0744 29.929 51.3776 29.9725 50.7026C30.0161 49.9296 30.0814 49.1567 30.1576 48.3946C30.2338 47.676 30.2992 46.9575 30.3645 46.2389C30.4407 45.4333 30.3754 44.6276 30.4951 43.8111C30.4951 43.6369 30.2121 43.5498 30.1794 43.7458ZM32.5637 43.9962C32.5419 44.9978 32.4766 45.9994 32.3459 46.9901C32.2153 47.9917 31.9213 48.9825 31.8342 49.9841C31.8234 50.1038 32.0193 50.1583 32.0738 50.0494C32.4875 49.1675 32.6072 48.1442 32.727 47.197C32.8576 46.1409 32.9012 45.074 32.8903 44.0071C32.8685 43.8002 32.5637 43.8002 32.5637 43.9962ZM35.2746 43.6696C35.2746 43.4627 34.948 43.4627 34.948 43.6696C34.9371 44.5732 34.9262 45.4768 34.9153 46.3804C34.9044 47.1861 34.8282 48.0244 35.0351 48.8083C35.0568 48.8845 35.1766 48.8845 35.1984 48.8083C35.3943 48.0244 35.3181 47.1752 35.3181 46.3804C35.2964 45.4768 35.2855 44.5732 35.2746 43.6696ZM37.8766 42.0365C37.8657 42.9183 37.7786 43.8002 37.6806 44.6821C37.6044 45.4224 37.3758 46.3587 37.6044 47.0772C37.6371 47.1861 37.8004 47.1861 37.8331 47.0772C38.0726 46.3478 37.9964 45.4442 38.0726 44.6821C38.1488 43.8002 38.225 42.9183 38.225 42.0365C38.225 41.8187 37.8766 41.8187 37.8766 42.0365ZM39.8036 41.2744C39.7492 42.1018 39.5968 42.9075 39.4661 43.724C39.3681 44.3446 39.1286 45.172 39.3573 45.7708C39.4008 45.8905 39.5532 45.8905 39.6077 45.7708C39.7383 45.4333 39.7165 45.0631 39.7492 44.7038C39.7818 44.3228 39.8254 43.9526 39.8798 43.5716C39.9669 42.8095 40.0649 42.0474 40.0323 41.2744C39.9996 41.1437 39.8036 41.1437 39.8036 41.2744ZM42.0028 40.9478C41.981 41.699 41.8831 42.4284 41.7851 43.1796C41.7089 43.7893 41.502 44.5732 41.7524 45.1502C41.7851 45.2264 41.9266 45.2264 41.9593 45.1502C42.2206 44.5841 42.1444 43.7893 42.2097 43.1796C42.2859 42.4393 42.3621 41.699 42.3621 40.9478C42.373 40.7191 42.0137 40.7191 42.0028 40.9478ZM27.7407 2.1896L27.7298 2.20049C27.7189 2.21138 27.7189 2.21138 27.708 2.22226C27.6863 2.24404 27.7189 2.21138 27.7407 2.1896ZM52.9117 30.0498C51.725 26.6094 50.4839 23.1364 48.3065 20.186C48.9053 19.9247 49.4932 19.6308 50.0702 19.3042C53.7174 17.2138 57.321 13.4904 57.0815 8.97228C56.8529 4.63921 53.1404 0.948471 48.9706 0.175485C44.3327 -0.695485 39.8254 1.9392 36.5157 4.93316C36.2326 5.18356 35.9605 5.44485 35.6883 5.70614C34.5451 4.65009 33.2713 3.75735 31.9322 2.98436C31.1919 2.55977 30.4407 2.17872 29.6568 1.84122C29.0907 1.6017 28.4592 1.35129 27.8278 1.34041C27.806 1.32952 27.7842 1.30775 27.7625 1.29686C27.6536 1.23154 27.5556 1.23154 27.4467 1.24242H27.4576H27.4467C27.4141 1.24242 27.3923 1.24242 27.3596 1.24242C27.3161 1.24242 27.2181 1.29686 27.1854 1.31863C27.1528 1.32952 27.1201 1.34041 27.0766 1.36218C26.8915 1.46017 26.7391 1.59081 26.5758 1.71057C25.9225 2.21138 25.2802 2.72307 24.6379 3.23477C22.5149 4.92227 20.4028 6.64244 18.2907 8.3626C13.4023 12.3582 8.52491 16.3755 3.64748 20.3929C2.80917 21.0788 1.97086 21.7647 1.1761 22.4941C0.958361 22.6901 0.631747 22.9622 0.501101 23.1147C0.414004 23.2235 0.348682 23.278 0.305133 23.3433C0.294246 23.3542 0.294246 23.3651 0.294246 23.3759C0.283359 23.3868 0.272472 23.4086 0.250698 23.4195C0.218036 23.4522 0.196262 23.4957 0.196262 23.5393C0.0329551 23.5501 -0.065029 23.7679 0.0547293 23.9094C0.39223 24.3014 0.893038 24.5082 1.36118 24.7042C2.0253 24.9872 2.58054 25.2921 3.11401 25.7929C4.11563 26.7401 5.28055 27.5239 6.32571 28.4385C8.39427 30.2457 10.2886 32.2381 12.0306 34.3719C15.4491 38.5744 18.5411 43.1034 20.7403 48.0788C22.1012 51.1599 22.9721 54.4478 23.9302 57.6595C24.0608 58.095 24.7358 58.3781 25.0625 57.9535C25.8681 56.9192 27.2399 56.3748 28.3286 55.6889C28.873 55.3405 29.4173 54.9922 29.9617 54.6438C31.9867 53.3373 34.0226 52.0526 36.0476 50.7462C40.8597 47.6542 45.6827 44.5623 50.4077 41.3397C51.2242 40.7845 52.0516 40.2183 52.8464 39.6304C53.2166 39.3582 53.8371 39.0099 53.9895 38.5308C54.0222 38.4328 54.0222 38.3349 54.0113 38.2586C54.8387 37.5945 54.2835 35.7982 54.0984 34.9599C53.7283 33.3159 53.467 31.6502 52.9117 30.0498ZM46.4121 19.511C46.325 19.4675 46.2379 19.4239 46.1508 19.3804C45.7262 19.1626 45.3125 18.9449 44.9097 18.6836C43.9734 18.0739 42.9391 17.5513 41.9157 17.1159C40.8923 16.6804 39.8036 16.3102 38.7367 15.9836C38.2685 15.8421 37.5826 15.5372 37.0274 15.6025C37.3105 15.2542 37.6044 14.9058 37.8984 14.5683C39.9778 14.884 41.9157 15.5263 43.8972 16.2013C44.4415 16.3864 44.9532 16.6586 45.4758 16.8872C45.944 17.0832 46.4339 17.1812 46.902 17.3663C47.4137 17.5731 47.9254 17.7909 48.4262 18.0195C48.6331 18.1175 48.8399 18.2263 49.0468 18.3352C48.1976 18.8142 47.3157 19.1953 46.4121 19.511ZM43.0589 20.2949C42.9173 19.7614 42.3186 19.3695 41.894 19.0646C41.3278 18.6618 40.729 18.357 40.0649 18.1392C38.7367 17.6929 37.3976 17.1267 35.9931 16.9961C36.2653 16.615 36.5484 16.234 36.8314 15.8638C37.1907 15.7985 37.6371 16.038 37.9419 16.136C38.3774 16.2667 38.802 16.4082 39.2266 16.5606C40.25 16.9199 41.2734 17.2683 42.2532 17.7473C43.4617 18.3352 44.6375 19.032 45.7915 19.7396C44.8879 20.0227 43.9734 20.2513 43.0371 20.4364C43.0589 20.3711 43.0698 20.3276 43.0589 20.2949ZM36.0802 22.1457C36.5375 22.1675 36.9839 22.3308 37.4302 22.3961C37.4847 22.407 37.5391 22.407 37.5935 22.4179C37.3322 22.505 37.0601 22.5703 36.8641 22.6465C36.6246 22.7227 36.4286 22.7989 36.2218 22.886C36.2218 22.886 36.2218 22.8751 36.2109 22.8751C35.7318 22.3308 34.8718 22.0259 34.175 21.9062C33.7286 21.83 33.2278 21.732 32.7705 21.8191C33.0754 21.3509 33.3802 20.8937 33.6851 20.4255C34.4036 19.3477 35.1004 18.2481 35.8516 17.1812C37.1363 17.4751 38.3447 17.965 39.5859 18.4114C40.2173 18.64 40.7944 18.8905 41.3605 19.2606C41.6653 19.4675 41.9593 19.6743 42.2206 19.9247C42.4056 20.0989 42.5472 20.3058 42.7431 20.4582C40.5548 20.8501 38.3012 20.9699 36.0693 20.9481C35.3181 20.959 35.3181 22.113 36.0802 22.1457ZM31.9322 16.4844C32.0738 17.0179 32.2153 17.5622 32.3242 18.1066C32.4222 18.6292 32.4222 19.1517 32.629 19.6526C32.6617 19.7396 32.7379 19.7723 32.8141 19.7614C31.6492 21.536 30.5169 23.3215 29.5153 25.1941C29.3084 25.586 29.1016 25.978 28.9056 26.3808C28.579 24.7477 28.5354 23.082 28.5681 21.4163C28.5899 20.4038 28.6117 19.3477 28.8403 18.357C28.8621 18.2481 28.8947 18.1392 28.9165 18.0413C28.9383 17.965 28.96 17.8997 28.9818 17.8235C28.9927 17.8126 28.9927 17.8126 28.9927 17.8017C29.254 17.8888 29.4826 18.2372 29.6024 18.455C29.8528 18.9013 30.4516 18.6509 30.4951 18.2155C30.6367 16.8219 30.9197 15.4937 31.3552 14.2199C31.3879 14.4267 31.4314 14.6336 31.475 14.8296C31.6274 15.3957 31.7907 15.94 31.9322 16.4844ZM31.5185 13.7844C31.6709 13.3598 31.8451 12.9461 32.0302 12.5324C32.1609 13.3816 32.4439 14.2199 32.629 15.0473C32.7705 15.6679 32.8794 16.2884 33.0318 16.909C33.1734 17.4751 33.2822 18.1392 33.5435 18.6618C33.4782 18.7707 33.402 18.8687 33.3367 18.9776C33.206 19.1735 33.0754 19.3695 32.9556 19.5546C32.8141 19.0755 32.7923 18.5856 32.6834 18.0957C32.5637 17.5187 32.4113 16.9525 32.2588 16.3864C32.0084 15.5481 31.8016 14.6336 31.5185 13.7844ZM31.9867 23.0493C32.5746 23.1147 33.1407 23.2453 33.7177 23.3868C33.9681 23.4522 34.2621 23.5393 34.5451 23.5828C34.0661 23.8114 33.598 24.0618 33.1189 24.3014C32.1609 24.7913 31.2246 25.3139 30.2992 25.8582C30.8326 24.9219 31.3988 23.9747 31.9867 23.0493ZM33.5326 23.0058C33.0427 22.8969 32.5963 22.8425 32.1064 22.8534C32.2697 22.5921 32.433 22.3417 32.5963 22.0913C33.1189 21.9497 33.7722 22.1348 34.2839 22.2655C34.8718 22.4179 35.3508 22.8098 35.906 23.0058C35.8516 23.0276 35.7972 23.0493 35.7427 23.0711C35.5359 23.1473 35.3399 23.2344 35.1439 23.3215C34.6431 23.1473 34.0443 23.1147 33.5326 23.0058ZM50.3424 17.5949C50.0811 17.7582 49.8307 17.9215 49.5585 18.0739C49.3734 17.8997 49.123 17.8017 48.8835 17.6929C48.3609 17.4642 47.8274 17.2574 47.3049 17.0179C46.8258 16.8001 46.325 16.713 45.8351 16.5279C45.2798 16.3211 44.7464 16.0489 44.1911 15.8421C43.146 15.461 42.0573 15.1453 40.9903 14.8296C40.0758 14.5574 39.0742 14.2961 38.1052 14.3287C39.1177 13.24 40.2282 12.2711 41.3496 11.313C41.3605 11.3239 41.3714 11.3348 41.3823 11.3348C41.8722 11.4545 42.3621 11.2912 42.852 11.2912C43.4182 11.2804 43.9843 11.2912 44.5504 11.3021C45.7698 11.3239 46.9782 11.4654 48.1867 11.4872C48.7637 11.4981 49.3516 11.4654 49.9178 11.5308C50.571 11.5961 51.2133 11.7703 51.8557 11.9009C52.4218 12.0098 52.9879 12.0969 53.5432 12.2166C54.0331 12.3146 54.5666 12.4453 55.0674 12.4344C54.1202 14.5465 52.2694 16.3538 50.3424 17.5949ZM55.296 11.9989C54.1746 11.8138 53.0424 11.6614 51.921 11.4437C50.7343 11.2041 49.6347 11.0517 48.4262 11.0517C47.2395 11.0517 46.0637 10.932 44.877 10.9102C44.3109 10.8993 43.7557 10.932 43.1895 10.9429C42.6234 10.9646 42.0899 11.1279 41.5347 11.1824C41.8722 10.8993 42.1988 10.6162 42.5363 10.3332C42.8847 10.2461 43.4182 10.3005 43.723 10.2678C44.2782 10.2134 44.8335 10.2134 45.3996 10.1916C46.6081 10.159 47.8057 10.1699 49.0141 10.1699C50.1355 10.1808 51.2895 10.1154 52.3891 10.3223C52.9662 10.4312 53.5214 10.5836 54.0984 10.6816C54.5992 10.7687 55.1218 10.932 55.6335 10.9864C55.5355 11.3348 55.4266 11.6614 55.296 11.9989ZM47.098 1.11178C50.9847 1.09 54.8061 3.9642 55.6662 7.79647C55.8839 8.74365 55.8839 9.66906 55.7097 10.5509C55.2198 10.3441 54.621 10.3005 54.1093 10.2134C53.4779 10.1045 52.8573 9.91946 52.2258 9.83237C51.0609 9.65817 49.8633 9.73438 48.6984 9.74527C47.4028 9.75616 46.1073 9.7997 44.8117 9.86503C44.2347 9.89769 43.6577 9.98478 43.0807 10.0392C43.0044 10.0501 42.9173 10.0501 42.8302 10.061C42.8629 10.0392 42.8956 10.0066 42.9173 9.98478C43.2113 9.73438 43.4944 9.47309 43.7883 9.2118C44.5722 9.09204 45.3996 9.19002 46.1944 9.19002C47.1851 9.17914 48.1758 9.08115 49.1666 9.07027C50.2117 9.05938 51.2678 9.08115 52.3129 9.08115C52.7593 9.08115 53.1948 9.14648 53.6412 9.19002C54.1529 9.24446 54.7299 9.14648 55.1871 9.41865C55.4158 9.56019 55.6335 9.19002 55.4049 9.05938C55.0783 8.86341 54.7408 8.83075 54.3706 8.81986C53.8807 8.80898 53.4016 8.73277 52.9226 8.7001C51.7577 8.60212 50.5601 8.68922 49.3843 8.68922C48.2847 8.7001 47.196 8.81986 46.0964 8.85252C45.4214 8.8743 44.7573 8.85252 44.104 8.93962C44.6484 8.47147 45.2145 8.0251 45.8569 7.67671C46.6299 7.25212 47.6315 6.97994 48.2194 6.28316C48.6984 5.72792 47.8819 4.91138 47.4028 5.46663C47.2178 5.68437 46.9782 5.85856 46.7169 6.0001C46.7932 5.31421 46.7823 4.58477 46.804 3.94243C46.8258 3.00614 46.7387 2.06984 46.6843 1.13355C46.8149 1.12266 46.9565 1.11178 47.098 1.11178ZM46.3577 1.14444C46.3468 2.06984 46.3794 3.00614 46.3468 3.93154C46.325 4.67187 46.1617 5.4884 46.1617 6.26139C45.8786 6.38115 45.5956 6.5009 45.3452 6.63155C45.4214 5.84768 45.2581 4.96582 45.2036 4.2255C45.1274 3.26743 45.0294 2.30936 44.9859 1.34041C45.4323 1.25331 45.8895 1.18799 46.3577 1.14444ZM44.6919 1.40573C44.6702 2.35291 44.7137 3.2892 44.779 4.2255C44.8117 4.70453 44.8444 5.18356 44.8661 5.6626C44.8879 6.05453 44.877 6.46824 44.9423 6.86018C44.6157 7.05615 44.3109 7.27389 44.0169 7.51341C44.0496 7.16502 43.9843 6.79486 43.9516 6.46824C43.9081 5.97832 43.8427 5.49929 43.7665 5.00937C43.6141 3.94243 43.4399 2.87549 43.3637 1.80855C43.7992 1.65613 44.2347 1.5146 44.6919 1.40573ZM43.1351 1.88476C43.1133 2.88638 43.2222 3.86622 43.3528 4.85695C43.4182 5.39042 43.4944 5.92389 43.5488 6.46824C43.5923 6.89284 43.5488 7.37187 43.6794 7.78559C43.3419 8.06865 43.0044 8.3626 42.6778 8.65656C41.7851 9.45132 40.8706 10.2134 39.9669 10.9973C40.0323 10.5074 39.9016 9.93035 39.8363 9.48398C39.7383 8.75454 39.6403 8.01422 39.5314 7.28478C39.4226 6.55534 39.2375 5.84768 38.998 5.1509C38.9109 4.9005 38.8891 4.61743 38.7911 4.37792C40.1302 3.35453 41.5782 2.47267 43.1351 1.88476ZM38.5298 4.58477C38.5407 4.70453 38.5407 4.8134 38.5625 4.93316C38.5952 5.17268 38.6823 5.4013 38.7476 5.64082C38.9435 6.32671 39.0633 7.04526 39.1504 7.75292C39.2375 8.38438 39.3246 9.01583 39.4117 9.65817C39.477 10.1916 39.4335 10.8122 39.6185 11.3239C39.4226 11.4981 39.2157 11.6723 39.0197 11.8574C38.9762 11.4545 38.8456 11.0299 38.7693 10.6489C38.6387 10.0283 38.4754 9.41865 38.323 8.80898C38.1706 8.22107 38.0617 7.61139 37.8984 7.03437C37.7568 6.53357 37.55 6.04364 37.4193 5.53195C37.7786 5.19445 38.1488 4.87872 38.5298 4.58477ZM37.1798 5.72792C37.2125 6.13074 37.3758 6.53357 37.4847 6.91462C37.6589 7.53518 37.7786 8.16663 37.9202 8.7872C38.0617 9.3751 38.2032 9.95212 38.3339 10.5291C38.4427 11.0517 38.4972 11.6396 38.6714 12.1513C38.3774 12.4235 38.0835 12.7066 37.8004 13.0005C37.7242 12.7392 37.6262 12.4779 37.5935 12.2493C37.4738 11.5634 37.3867 10.8775 37.2234 10.2025C37.0601 9.51664 36.8532 8.84164 36.6246 8.16663C36.4831 7.73115 36.2218 7.23034 36.0911 6.75131C36.4395 6.41381 36.7988 6.06542 37.1798 5.72792ZM35.8734 6.97994C35.9387 7.28478 36.0585 7.58962 36.1455 7.88357C36.3742 8.59123 36.581 9.2989 36.777 10.0174C36.9621 10.7251 37.0818 11.4437 37.1907 12.1622C37.2343 12.467 37.3214 12.7501 37.4085 13.055C37.4302 13.1529 37.452 13.2509 37.4738 13.3489C36.0585 14.8513 34.9262 16.5715 33.7939 18.2917C33.7722 17.878 33.6088 17.4751 33.5109 17.0832C33.3476 16.4735 33.2278 15.8638 33.0863 15.2433C32.8359 14.1546 32.4766 13.1203 32.2806 12.0316C33.1625 10.2025 34.3818 8.51502 35.8734 6.97994ZM27.61 2.24404C27.5121 2.28759 27.3923 2.2767 27.229 2.1896C27.3705 2.26581 27.5012 2.2767 27.61 2.24404ZM2.9507 24.5082C2.74385 24.3667 2.52611 24.2469 2.28659 24.1489C1.76401 23.9312 1.13255 23.9203 0.609973 23.7243C0.62086 23.7243 0.62086 23.7243 0.631747 23.7134C0.653521 23.7026 0.664408 23.7026 0.675295 23.6917C0.707957 23.6808 0.740618 23.6699 0.795054 23.6372C0.969248 23.561 1.20876 23.3977 1.43739 23.2453C2.13417 22.7663 2.80917 22.2437 3.47329 21.732C3.47329 21.732 3.48417 21.732 3.48417 21.7211C3.40796 22.211 3.27732 22.6901 3.16845 23.1691C3.08135 23.5937 2.93982 24.0727 2.9507 24.5082ZM53.075 37.4312C53.0641 37.4857 53.0641 37.5401 53.0533 37.5945C53.0533 37.6054 53.0424 37.6163 53.0424 37.6272C52.9988 37.7361 52.9988 37.8558 53.0315 37.9538C52.9988 37.9865 52.9662 38.03 52.9335 38.0736C52.8682 38.128 52.8137 38.1824 52.7484 38.2369C52.6722 38.3022 52.5851 38.3675 52.5089 38.4328C52.5633 38.3893 52.5416 38.4111 52.4545 38.4764C52.3891 38.5308 52.3129 38.5853 52.2367 38.6397C51.8666 38.9228 51.4855 39.1841 51.1045 39.4562C51.2569 39.1187 51.3549 38.7268 51.442 38.4002C51.5944 37.8123 51.6924 37.2026 51.6815 36.5929C51.6815 36.4405 51.4529 36.4405 51.4529 36.5929C51.4093 37.2026 51.2569 37.8014 51.0718 38.3893C50.9194 38.8574 50.6472 39.3365 50.5928 39.8264C50.4512 39.9244 50.3097 40.0224 50.1682 40.1203C49.5911 40.5123 49.025 40.9042 48.448 41.2853C48.5351 40.9369 48.5133 40.5449 48.546 40.1966C48.6113 39.3474 48.829 38.5526 48.8182 37.6816C48.8182 37.4639 48.4915 37.4639 48.4807 37.6816C48.448 38.4982 48.2194 39.2494 48.0996 40.0441C48.067 40.3163 48.0887 40.5994 48.0452 40.8716C48.0016 41.1329 47.9254 41.3941 47.8819 41.6554C47.2613 42.0691 46.6407 42.4829 46.0311 42.8857C46.0311 42.8748 46.0419 42.8748 46.0419 42.8639C46.3032 42.276 46.2815 41.5248 46.4012 40.8933C46.5319 40.2292 46.6407 39.5542 46.6407 38.8792C46.6407 38.6506 46.2924 38.6506 46.2924 38.8792C46.2597 39.6304 46.0855 40.349 45.9222 41.0784C45.8024 41.6119 45.5847 42.3087 45.7915 42.8421C45.8133 42.9075 45.9004 42.951 45.9657 42.9401C45.4105 43.3103 44.8444 43.6804 44.2891 44.0397C44.2891 44.0397 44.2891 44.0288 44.3 44.0288C44.4742 43.5062 44.3871 42.8966 44.4089 42.3522C44.4415 41.7099 44.5069 41.0675 44.6811 40.447C44.7355 40.2401 44.4198 40.153 44.3544 40.3599C44.1802 40.9478 44.0932 41.5466 44.0496 42.1562C44.0061 42.755 43.9081 43.4409 44.0932 44.0179C44.1149 44.0724 44.1585 44.0942 44.202 44.0942C44.0387 44.203 43.8754 44.3119 43.7012 44.4208C39.096 47.4256 34.4907 50.4413 29.8201 53.3264C29.156 53.7401 28.481 54.1539 27.806 54.5567C27.4576 54.7635 27.0875 54.9595 26.7173 55.1555C26.8697 54.2627 26.8262 53.3155 26.9133 52.4228C27.0113 51.345 27.1854 50.2889 27.3161 49.222C27.5774 47.1534 28.0238 45.0958 28.0238 43.0054C28.0238 42.8204 27.7298 42.8204 27.7298 43.0054C27.6863 45.1175 27.2072 47.2079 26.9133 49.2982C26.7717 50.2998 26.6084 51.3014 26.5104 52.3139C26.4125 53.272 26.2492 54.3498 26.4342 55.3079C25.9334 55.5801 25.4326 55.8631 24.9754 56.2115C24.8121 55.6127 24.6379 55.0248 24.4637 54.426C24.5943 53.4026 24.6052 52.3684 24.7141 51.345C24.8556 50.0712 25.0298 48.7974 25.1931 47.5236C25.5306 45.0087 25.8354 42.5046 25.781 39.9679C25.781 39.8373 25.585 39.8373 25.585 39.9679C25.5197 42.5155 25.1604 45.0522 24.8012 47.578C24.6379 48.7321 24.4746 49.8861 24.3439 51.0401C24.2568 51.7805 24.1479 52.5426 24.1044 53.3047C23.6471 51.824 23.1354 50.3542 22.5584 48.928C22.7108 48.2421 22.7326 47.5127 22.7762 46.8486C22.8415 45.8252 22.8959 44.7909 23.0157 43.7675C23.277 41.6445 23.2225 39.4671 23.854 37.3986C23.9084 37.2135 23.6254 37.1264 23.56 37.3224C22.885 39.3365 22.8633 41.4159 22.5802 43.4954C22.4495 44.4752 22.3842 45.455 22.308 46.4458C22.2754 46.9466 22.21 47.4583 22.1447 47.97C21.1213 45.6075 19.9237 43.3429 18.552 41.1655C18.3233 40.7953 18.0838 40.4252 17.8334 40.0659C18.3451 38.901 18.3451 37.5619 18.552 36.3316C18.7915 34.9163 18.835 33.4465 19.2378 32.0639C19.2814 31.9115 19.0528 31.8461 18.9983 31.9986C18.5411 33.3377 18.4757 34.7639 18.1818 36.1465C18.0294 36.8542 17.9749 37.5836 17.8552 38.2913C17.779 38.7595 17.6701 39.2276 17.5721 39.6849C16.5052 38.0953 15.3511 36.5603 14.1644 35.0578C14.5999 34.078 14.6653 32.9348 14.8612 31.8897C15.0354 30.899 15.0245 29.8429 15.4165 28.9066C15.46 28.7977 15.2749 28.7106 15.2205 28.8195C14.7632 29.7231 14.7197 30.7356 14.5128 31.7046C14.306 32.7171 14.0773 33.7623 13.9576 34.7965C13.8705 34.6877 13.7834 34.5679 13.6854 34.459C13.2935 33.9691 12.8906 33.4901 12.4878 33.0219C12.8689 32.2054 12.8798 31.2582 13.0322 30.3873C13.1846 29.4727 13.2717 28.5147 13.4894 27.611C13.533 27.426 13.2499 27.3497 13.2064 27.5348C12.956 28.4167 12.8144 29.3748 12.6511 30.2784C12.4987 31.0949 12.3681 31.9441 12.281 32.7715C11.8346 32.2598 11.3773 31.7481 10.9092 31.2473C10.931 31.2365 10.9527 31.2147 10.9636 31.182C11.2249 30.3873 11.2249 29.4836 11.3665 28.6562C11.5189 27.8179 11.704 26.9905 11.9761 26.1848C12.0415 25.9997 11.7475 25.9235 11.6822 26.1086C11.3665 26.9687 11.116 27.8506 10.9419 28.7542C10.8003 29.4836 10.6261 30.3002 10.7132 31.0514C9.79871 30.0933 8.84064 29.1679 7.83902 28.286C7.70838 28.1772 7.57773 28.0683 7.44709 27.9485C7.57773 27.4804 7.59951 26.9578 7.69749 26.5114C7.93701 25.4881 8.12209 24.4538 8.55757 23.4848C8.6229 23.3433 8.41604 23.2235 8.35072 23.3651C7.6866 24.6606 7.32733 26.1848 7.07692 27.6437C6.6741 27.3171 6.27128 27.0014 5.86845 26.6965C5.90112 26.6965 5.93378 26.6747 5.94466 26.6421C6.09708 26.3046 6.09708 25.9235 6.18418 25.5534C6.29305 25.107 6.43458 24.6824 6.56523 24.2469C6.79386 23.4848 6.97894 22.7118 6.92451 21.9062C6.91362 21.7755 6.71765 21.7755 6.72854 21.9062C6.73942 22.788 6.45636 23.5937 6.18418 24.4211C5.97733 25.0417 5.5745 25.9344 5.73781 26.5985C5.29144 26.261 4.83418 25.9235 4.3878 25.586C4.71442 24.9219 4.8124 24.0727 5.04103 23.3977C5.30232 22.6574 5.63982 21.9606 5.56361 21.155C5.54184 20.9808 5.26966 20.9699 5.28055 21.155C5.3241 21.9933 4.8995 22.6901 4.63821 23.4522C4.50756 23.8332 4.40958 24.2143 4.28982 24.5953C4.21361 24.8348 4.11563 25.0852 4.06119 25.3356C3.7999 25.1288 3.53861 24.9219 3.27732 24.726C3.42974 24.1489 3.44063 23.4957 3.57127 22.9078C3.65837 22.4614 3.73458 22.0151 3.76724 21.5578C5.83579 19.9247 7.90435 18.2263 9.9729 16.5497C14.7523 12.6521 19.5318 8.74365 24.333 4.87872C25.1604 4.21461 25.977 3.56138 26.8153 2.90815C26.9677 2.7884 27.1963 2.62509 27.4576 2.41823C27.5447 2.35291 27.6209 2.28759 27.708 2.21138L27.7189 2.20049H27.7298C27.7407 2.1896 27.7516 2.1896 27.7516 2.17872C27.7842 2.14605 27.7625 2.16783 27.7407 2.1896C27.7951 2.15694 27.8496 2.10251 27.8931 2.04807C28.3177 2.29847 28.7859 2.50533 29.2213 2.72307C29.929 3.08235 30.6149 3.48517 31.279 3.90977C32.5201 4.70453 33.7286 5.58639 34.7955 6.60978C33.5762 7.91623 32.4875 9.34244 31.6492 10.9211C30.604 12.8699 29.9725 14.9711 29.6677 17.1376C29.3193 16.8981 28.9165 16.7892 28.5354 17.0179C28.2197 17.2138 28.1544 17.5949 28.0891 17.9324C27.9693 18.5094 27.8931 19.0973 27.8496 19.6852C27.6645 22.1675 27.708 24.7586 28.5354 27.1211C28.285 27.6546 28.0564 28.1881 27.8387 28.7324C27.3596 29.9191 27.033 31.1602 26.5649 32.3469C26.456 32.6409 26.8697 32.7607 27.033 32.5429C27.6971 31.6284 28.002 30.5615 28.4592 29.5381C28.6879 29.0264 28.9165 28.5256 29.1669 28.0356C29.3738 28.003 29.5697 27.8832 29.6568 27.6328C29.5697 27.8832 29.548 27.807 29.733 27.6546C29.7004 27.6873 29.9508 27.4913 30.027 27.4477C30.4189 27.1864 30.8109 26.9469 31.2137 26.7074C32.2044 26.1304 33.206 25.586 34.2185 25.0635C34.9262 24.7042 35.623 24.3667 36.3197 24.0945C37.3214 23.7026 38.8347 23.4522 39.4226 22.4614C39.4879 22.3526 39.5097 22.2328 39.4988 22.113C42.1117 21.9824 44.6919 21.5578 47.1307 20.6651C49.2754 23.463 50.375 26.8054 51.5508 30.0933C51.8666 30.986 52.1278 31.9115 52.3238 32.8369C52.4654 33.5228 52.5416 34.2195 52.7158 34.9054C52.8464 35.428 52.9662 35.9615 53.0315 36.4949C53.0641 36.7453 53.0859 37.0175 53.0859 37.2679C53.0859 37.2788 53.075 37.4095 53.075 37.4312Z" fill="#FFF06A"/>
</g>
<defs>
<clipPath id="clip0_701_123">
<rect width="57.0921" height="58.1699" fill="white"/>
</clipPath>
</defs>
</svg>
