<svg width="41" height="28" viewBox="0 0 41 28" fill="none" xmlns="http://www.w3.org/2000/svg">
<path d="M40.144 4.32351C39.9064 3.49148 39.4531 2.73342 38.828 2.12261C38.203 1.51179 37.4272 1.06887 36.5757 0.836667C33.3799 2.39883e-05 20.5182 2.36891e-05 20.5182 2.36891e-05C20.5182 2.36891e-05 7.68902 -0.0166755 4.46078 0.836667C3.6093 1.06887 2.83353 1.51179 2.20844 2.12261C1.58335 2.73342 1.13008 3.49148 0.892451 4.32351C0.286657 7.52064 -0.0120029 10.7661 0.000369124 14.0175C-0.009664 17.2567 0.288986 20.4898 0.892451 23.6748C1.13008 24.5069 1.58335 25.2649 2.20844 25.8757C2.83353 26.4866 3.6093 26.9295 4.46078 27.1617C7.65313 28 20.5182 28 20.5182 28C20.5182 28 33.3458 28 36.5757 27.1617C37.4272 26.9295 38.203 26.4866 38.828 25.8757C39.4531 25.2649 39.9064 24.5069 40.144 23.6748C40.7349 20.4886 41.021 17.2556 40.9985 14.0175C41.0233 10.7673 40.7372 7.5218 40.144 4.32351ZM16.4133 20.0143V8.0024L27.1183 14.0175L16.4133 20.0143Z" fill="white"/>
</svg>
