<svg width="27" height="26" viewBox="0 0 27 26" fill="none" xmlns="http://www.w3.org/2000/svg">
<rect x="0.662994" width="25.7348" height="25.7348" rx="12.8674" fill="#612B1C"/>
<path d="M13.2877 17.9523H14.3055C14.3055 17.9523 14.6123 17.9179 14.7688 17.7446C14.9176 17.5829 14.9176 17.2838 14.9176 17.2838C14.9176 17.2838 14.8956 15.8742 15.5331 15.6672C16.1614 15.4617 16.9583 17.0278 17.8076 17.6297C18.4564 18.0898 18.9444 17.9911 18.9444 17.9911L21.2189 17.9589C21.2189 17.9589 22.4103 17.8821 21.8472 16.9158C21.804 16.839 21.5278 16.2027 20.1677 14.897C18.7426 13.5357 18.9338 13.7552 20.6466 11.3955C21.6871 9.95814 22.1128 9.07965 21.9747 8.7066C21.8571 8.3555 21.0822 8.44254 21.0822 8.44254L18.5308 8.46522C18.5308 8.46522 18.3395 8.44254 18.2014 8.53105C18.0633 8.61809 17.979 8.81705 17.979 8.81705C17.979 8.81705 17.5738 9.93546 17.0326 10.8798C15.883 12.876 15.4261 12.9857 15.2455 12.854C14.8177 12.568 14.9275 11.6983 14.9275 11.0751C14.9275 9.14329 15.2136 8.33209 14.3743 8.12362C14.098 8.05706 13.8919 8.0139 13.1807 8.0022C12.267 7.99196 11.4963 8.00952 11.0592 8.22969C10.7724 8.37817 10.5492 8.7066 10.6774 8.72343C10.8474 8.74537 11.2292 8.83022 11.4311 9.11622C11.6967 9.48634 11.6854 10.3129 11.6854 10.3129C11.6854 10.3129 11.8349 12.5921 11.3355 12.8752C10.9849 13.0669 10.5174 12.6704 9.49735 10.8593C8.97672 9.93766 8.58289 8.90629 8.58289 8.90629C8.58289 8.90629 8.50851 8.71904 8.3711 8.60932C8.2103 8.48863 7.97655 8.44474 7.97655 8.44474L5.54341 8.46668C5.54341 8.46668 5.18216 8.47838 5.05537 8.64223C4.93778 8.78487 5.04404 9.09208 5.04404 9.09208C5.04404 9.09208 6.94663 13.6908 9.10423 16.0066C11.0805 18.1293 13.3231 17.9926 13.3231 17.9926L13.2877 17.9523Z" fill="#FFF06A"/>
</svg>
