<svg width="26" height="26" viewBox="0 0 26 26" fill="none" xmlns="http://www.w3.org/2000/svg">
<path fill-rule="evenodd" clip-rule="evenodd" d="M12.85 25.7C19.9469 25.7 25.7 19.9469 25.7 12.85C25.7 5.75314 19.9469 0 12.85 0C5.75314 0 0 5.75314 0 12.85C0 19.9469 5.75314 25.7 12.85 25.7ZM16.7733 18.4966L18.8121 8.86736L18.8065 8.86171C19.0155 8.02021 18.4902 7.64182 17.9424 7.88467L5.93552 12.5157C5.11661 12.8489 5.12226 13.3064 5.78868 13.5041L8.86665 14.4642L9.9397 17.9601C9.96852 18.0417 9.98815 18.1129 10.0051 18.1744C10.0679 18.4021 10.0939 18.4966 10.4141 18.4966C10.7193 18.4966 10.8609 18.3549 11.0264 18.1892L11.0353 18.1803L12.5376 16.7289L15.6438 19.0275C16.2199 19.3437 16.6322 19.18 16.7733 18.4966Z" fill="#612B1C"/>
</svg>
