<svg width="26" height="26" viewBox="0 0 26 26" fill="none" xmlns="http://www.w3.org/2000/svg">
<rect x="0.265198" width="25.7348" height="25.7348" rx="12.8674" fill="#612B1C"/>
<path fill-rule="evenodd" clip-rule="evenodd" d="M6.32043 10.3576C6.32043 7.98144 8.24669 6.05518 10.6228 6.05518H15.6423C18.0185 6.05518 19.9447 7.98143 19.9447 10.3576V15.3771C19.9447 17.7532 18.0185 19.6795 15.6423 19.6795H10.6229C8.24669 19.6795 6.32043 17.7532 6.32043 15.3771V10.3576ZM18.2417 8.6097C18.2417 9.07998 17.8605 9.46122 17.3902 9.46122C16.9199 9.46122 16.5387 9.07998 16.5387 8.6097C16.5387 8.13942 16.9199 7.75818 17.3902 7.75818C17.8605 7.75818 18.2417 8.13942 18.2417 8.6097ZM15.4033 12.8673C15.4033 14.1214 14.3867 15.1381 13.1326 15.1381C11.8785 15.1381 10.8619 14.1214 10.8619 12.8673C10.8619 11.6133 11.8785 10.5966 13.1326 10.5966C14.3867 10.5966 15.4033 11.6133 15.4033 12.8673ZM16.5387 12.8673C16.5387 14.7485 15.0137 16.2734 13.1326 16.2734C11.2515 16.2734 9.72652 14.7485 9.72652 12.8673C9.72652 10.9862 11.2515 9.46126 13.1326 9.46126C15.0137 9.46126 16.5387 10.9862 16.5387 12.8673Z" fill="#FFF06A"/>
</svg>
