<svg width="26" height="26" viewBox="0 0 26 26" fill="none" xmlns="http://www.w3.org/2000/svg">
<rect width="25.7348" height="25.7348" rx="12.8674" fill="#612B1C"/>
<path d="M21.3914 8.63914C21.2916 8.28757 21.1014 7.96726 20.839 7.70916C20.5766 7.45106 20.251 7.26391 19.8936 7.16579C18.5522 6.81227 13.1537 6.81227 13.1537 6.81227C13.1537 6.81227 7.7688 6.80521 6.41379 7.16579C6.0564 7.26391 5.73078 7.45106 5.46841 7.70916C5.20603 7.96726 5.01578 8.28757 4.91604 8.63914C4.66176 9.99008 4.5364 11.3614 4.5416 12.7353C4.53739 14.104 4.66274 15.4702 4.91604 16.816C5.01578 17.1676 5.20603 17.4879 5.46841 17.746C5.73078 18.0041 6.0564 18.1912 6.41379 18.2894C7.75374 18.6436 13.1537 18.6436 13.1537 18.6436C13.1537 18.6436 18.5379 18.6436 19.8936 18.2894C20.251 18.1912 20.5766 18.0041 20.839 17.746C21.1014 17.4879 21.2916 17.1676 21.3914 16.816C21.6394 15.4697 21.7594 14.1036 21.75 12.7353C21.7604 11.3619 21.6403 9.99057 21.3914 8.63914ZM11.4307 15.2693V10.1936L15.924 12.7353L11.4307 15.2693Z" fill="#FFF06A"/>
</svg>
