<svg width="61" height="59" viewBox="0 0 61 59" fill="none" xmlns="http://www.w3.org/2000/svg">
<g clip-path="url(#clip0_701_122)">
<path d="M58.7482 30.0381C58.1627 29.9255 57.5435 29.9818 56.9468 30.0156C56.26 30.0493 55.562 30.1169 54.8977 30.3195C54.3235 30.4884 53.8168 30.7474 53.3665 31.0851C53.6705 30.2407 53.952 29.3738 54.2109 28.5069C54.391 27.8989 54.5487 27.2909 54.695 26.683C56.5865 26.6492 58.2866 25.7034 59.5701 24.3186C60.2231 23.6206 61.9344 21.5602 60.3357 20.9185C59.2211 20.4681 57.6561 21.0874 56.7666 21.7291C56.2375 22.1119 55.7871 22.5848 55.4043 23.1139C55.6295 21.6503 55.7759 20.1754 55.8209 18.6892C56.4964 18.6442 57.172 18.0137 57.6673 17.6197C58.2978 17.1243 58.9058 16.5951 59.3674 15.9421C59.8178 15.3116 60.9662 13.195 59.6039 12.8347C58.7257 12.6095 57.6448 13.3638 57.0481 13.9268C56.564 14.3771 56.1136 14.9513 55.7759 15.5818C55.7196 14.6473 55.6183 13.7129 55.4719 12.7896C55.4043 12.3393 55.3143 11.8777 55.2242 11.4386L55.2805 11.4161C55.3255 11.3936 55.3706 11.371 55.4156 11.3485C56.7892 10.7068 57.7574 9.50208 58.129 8.03844C58.3541 7.13774 58.5793 6.14697 58.5906 5.21249C58.6018 4.62703 58.3992 3.95151 57.7124 3.89521C56.6766 3.8164 55.7871 5.13368 55.3706 5.93305C54.9427 6.73242 54.6725 7.61061 54.4924 8.50005C54.4811 8.53383 54.4811 8.55634 54.4699 8.59012C54.0871 7.39669 53.6142 6.23704 53.0625 5.11116C52.0492 3.06207 50.4955 0.956676 48.3451 0.0334566C48.21 -0.0228372 48.1087 0.146044 48.2325 0.236114C49.0769 0.877864 49.8875 1.56465 50.5405 2.3978C51.1936 3.23095 51.7227 4.18794 52.1843 5.14494C52.691 6.20326 53.1188 7.30662 53.4566 8.4325C53.085 7.99341 52.6685 7.57683 52.2519 7.19403C51.0247 6.09067 49.4822 5.2913 47.8047 5.23501C47.5682 5.22375 47.3881 5.43766 47.3768 5.66284C47.3431 6.47347 47.7709 7.12648 48.255 7.73445C48.8067 8.4325 49.3133 9.18683 49.9551 9.81733C50.5631 10.414 51.3512 10.7518 52.1843 10.9094C52.5896 10.9882 53.0175 11.0783 53.4228 11.1121C53.6142 11.1233 53.8168 11.1346 53.997 11.0783C54.0195 11.0783 54.0533 11.0445 54.0983 11.022C54.1434 11.2472 54.1884 11.4724 54.2334 11.6975C54.4699 13.0261 54.605 14.3546 54.6613 15.6944C54.3798 15.2215 54.0645 14.805 53.8281 14.501C53.3215 13.8367 52.7247 13.2513 52.0492 12.7559C51.6889 12.4857 51.2836 12.3055 50.8783 12.1029C50.5068 11.9115 50.1915 11.6525 49.775 11.5624C49.4935 11.5061 49.2683 11.6863 49.2458 11.9678C49.0769 13.7354 49.7299 15.6606 50.777 17.068C51.2499 17.6985 51.8578 18.2164 52.6122 18.4866C53.2989 18.7343 53.9632 18.6329 54.6387 18.5654C54.5599 20.1304 54.3798 21.6841 54.1096 23.2378C53.9857 22.7311 53.8056 22.2357 53.5804 21.7629C52.8599 20.2542 51.7002 18.9257 50.169 18.2164C49.8988 18.0925 49.6624 18.2051 49.5498 18.4641C49.1332 19.4661 49.1107 20.5132 49.257 21.5715C49.3471 22.1795 49.471 22.7762 49.6961 23.3391C49.6961 23.4292 49.7074 23.508 49.7187 23.5981C49.7299 23.6544 49.7862 23.6769 49.8425 23.6544C50.0001 23.9696 50.1915 24.2736 50.428 24.5438C51.0359 25.2418 51.7903 25.7147 52.6685 25.9737C52.8486 26.03 53.1526 26.1425 53.4566 26.2101C53.389 26.5028 53.3102 26.7843 53.2314 27.0658C52.9161 28.2367 52.5559 29.3851 52.1393 30.5109C52.1055 30.0381 52.0267 29.5652 51.8916 29.1261C51.3061 27.336 49.775 26.0412 48.6266 24.6226C48.4126 24.3524 47.906 24.4988 47.8497 24.8253C47.6583 25.816 47.3093 26.773 47.2417 27.7863C47.1854 28.6645 47.3093 29.5652 47.602 30.3871C47.8722 31.1414 48.3338 31.7381 48.9418 32.2448C49.471 32.6951 49.9776 33.1793 50.5293 33.6071C50.5293 33.7309 50.5856 33.8435 50.6869 33.9561C50.1127 35.1608 49.471 36.3317 48.7504 37.4689C48.9193 36.5569 48.9643 35.6224 48.5703 34.7668C48.1537 33.8435 47.4894 33.0892 46.904 32.2673C46.5887 31.817 46.2735 31.3553 46.0033 30.8825C45.7781 30.4772 45.6092 30.0831 45.3052 29.7341C45.08 29.4864 44.6072 29.6102 44.5396 29.9367C44.3482 30.9163 44.1005 31.8507 43.9767 32.8528C43.8528 33.8661 44.0105 34.9244 44.2582 35.9151C44.4608 36.737 44.7986 37.5252 45.3052 38.2007C45.5642 38.5384 45.8456 38.8087 46.2059 39.0338C46.4424 39.1689 46.6788 39.304 46.9265 39.4279C47.0391 39.4842 47.1629 39.5292 47.2868 39.5742C47.2642 39.608 47.2305 39.6531 47.208 39.6868C46.2735 40.9253 45.2377 42.085 44.1456 43.1883C44.3482 42.5803 44.4946 41.9048 44.4045 41.2968C44.2807 40.3736 43.8866 39.4954 43.5151 38.651C43.3124 38.1782 43.0647 37.7165 42.8621 37.2437C42.6707 36.7821 42.4905 36.343 42.1978 35.9377C42.0402 35.7238 41.7362 35.6337 41.5223 35.8476C40.2613 37.1424 39.7209 39.0451 39.6083 40.8127C39.5407 41.7247 39.552 42.7042 39.9235 43.5486C40.2613 44.3254 40.9819 44.9897 41.7024 45.4626C40.7905 46.2394 39.856 46.9825 38.899 47.6918C39.0341 47.1964 39.0791 46.6673 39.0904 46.1494C39.1129 45.0798 38.8765 44.1115 38.64 43.0757C38.5274 42.5691 38.4374 42.0624 38.3248 41.5558C38.2122 41.0491 37.9645 40.5763 37.942 40.0584C37.9307 39.8332 37.7393 39.5742 37.4804 39.5968C37.0075 39.6418 36.6585 39.8782 36.3207 40.216C35.9379 40.6101 35.5326 41.0041 35.1723 41.4094C34.3617 42.3214 33.7875 43.3347 33.3822 44.4943C33.0106 45.5639 32.7292 46.7573 32.8868 47.8945C33.0332 48.9528 33.6637 49.831 34.463 50.5065C34.4855 50.5628 34.5193 50.6191 34.5644 50.6641C33.2246 51.4973 31.851 52.2854 30.4662 53.0285C29.0701 52.2854 27.7078 51.4973 26.368 50.6754C26.413 50.6304 26.4468 50.5741 26.4693 50.5178C27.2462 49.8648 27.8766 49.0091 28.0343 47.9846C28.2144 46.8249 27.9217 45.5977 27.5501 44.5056C27.1561 43.3797 26.6044 42.4002 25.8276 41.4995C25.456 41.0717 25.0507 40.6889 24.6566 40.2836C24.3076 39.9233 23.9586 39.6643 23.452 39.6193C23.193 39.5968 23.0016 39.8557 22.9903 40.0809C22.9566 40.5988 22.7201 41.0829 22.6075 41.5783C22.495 42.085 22.4049 42.5916 22.2923 43.0982C22.0559 44.134 21.8082 45.091 21.8419 46.1719C21.8532 46.7123 21.8982 47.2415 22.0446 47.7481C21.0764 47.0276 20.1419 46.2732 19.2299 45.4964C19.9392 45.0348 20.6485 44.393 20.9975 43.6387C21.3916 42.7717 21.4029 41.7697 21.3353 40.8352C21.2115 39.0789 20.6823 37.1649 19.4213 35.8701C19.2074 35.6562 18.9034 35.735 18.7458 35.9602C18.4418 36.3655 18.2729 36.8046 18.0815 37.2662C17.8789 37.7391 17.6312 38.2007 17.4285 38.6735C17.2484 39.1014 17.057 39.5292 16.8881 39.9796C16.8656 40.0021 16.8543 40.0246 16.8656 40.0584C16.7192 40.4749 16.5954 40.8915 16.5391 41.3306C16.4603 41.9386 16.5954 42.6029 16.798 43.2108C16.1225 42.5353 15.4695 41.826 14.8503 41.1054C14.4337 40.6213 14.0396 40.1259 13.6568 39.6193C13.7469 39.5855 13.837 39.5517 13.927 39.518C14.1747 39.3941 14.4224 39.259 14.6589 39.1239C15.0304 38.91 15.3344 38.6398 15.5933 38.302C16.1225 37.6152 16.4828 36.7933 16.6854 35.9602C16.9219 34.9919 17.0795 33.9561 16.9782 32.9654C16.8656 31.9408 16.6066 30.9838 16.4152 29.9818C16.3477 29.6553 15.8635 29.5314 15.6496 29.7791C15.3569 30.1056 15.188 30.4772 14.9854 30.86C14.7264 31.3441 14.4224 31.7944 14.1072 32.2335C13.5105 33.0779 12.8124 33.8661 12.3846 34.823C12.0018 35.6675 12.0356 36.5794 12.1932 37.4801C12.1932 37.5026 12.2044 37.5252 12.2044 37.5477C11.4839 36.4218 10.8309 35.2396 10.2567 34.0349L10.2679 34.0237C10.3805 33.9111 10.4256 33.7872 10.4256 33.6747C10.9772 33.2468 11.4839 32.7627 12.013 32.3123C12.621 31.7944 13.0826 31.209 13.3528 30.4546C13.6456 29.6328 13.7694 28.7321 13.7131 27.8539C13.6456 26.8406 13.2853 25.8836 13.1051 24.8928C13.0489 24.5663 12.5422 24.4199 12.3283 24.6902C11.1799 26.1088 9.63744 27.4035 9.06325 29.1937C8.91688 29.644 8.83807 30.1281 8.81555 30.6123C8.60164 30.0268 8.39898 29.4301 8.21884 28.8221C7.95989 27.9777 7.72345 27.1333 7.50954 26.2776C7.791 26.2101 8.07247 26.1088 8.24135 26.0637C9.14206 25.7935 9.91891 25.3319 10.5381 24.6226C11.2474 23.812 11.5402 22.7762 11.6978 21.7291C11.8554 20.6483 11.8442 19.5674 11.4163 18.5429C11.3037 18.2727 11.0673 18.1713 10.7971 18.2952C9.2659 18.9932 8.10625 20.333 7.38569 21.8417C7.16051 22.3033 6.98037 22.7987 6.85653 23.2941C6.58632 21.7516 6.40618 20.1979 6.32736 18.6442C7.00289 18.723 7.66716 18.8131 8.35394 18.5654C9.10828 18.2952 9.71625 17.7773 10.1891 17.1468C11.2474 15.7507 11.8892 13.8142 11.7203 12.0466C11.6978 11.7651 11.4726 11.585 11.1912 11.6412C10.7746 11.7313 10.4593 11.9903 10.0878 12.1817C9.68248 12.3843 9.28842 12.5645 8.91688 12.8347C8.24135 13.3301 7.64464 13.9268 7.138 14.5798C6.90156 14.8838 6.58632 15.3116 6.30485 15.7732C6.32736 15.1089 6.3724 14.4447 6.45121 13.7804C6.54128 12.8797 6.68765 11.9903 6.86779 11.1008C6.91282 11.1346 6.95786 11.1571 6.96911 11.1571C7.11548 11.2022 7.30688 11.2134 7.45324 11.2022C7.85856 11.1909 8.28639 11.0783 8.69171 11.0108C9.55863 10.8531 10.3805 10.5154 11.011 9.89614C11.6302 9.28816 12.1256 8.5676 12.6661 7.88082C13.1614 7.25033 13.623 6.5748 13.6005 5.74165C13.5893 5.51648 13.4091 5.31382 13.1727 5.31382C11.4839 5.38137 9.95269 6.16949 8.72548 7.27284C8.29765 7.65564 7.89233 8.07222 7.52079 8.51131C7.79101 7.63312 8.10625 6.7662 8.46653 5.92179C8.91688 4.89724 9.44604 3.8727 10.0765 2.94948C10.7971 1.90241 11.7316 1.08052 12.7336 0.314926C12.8462 0.224856 12.7561 0.0559742 12.621 0.112268C10.7746 0.82157 9.29968 2.57794 8.33143 4.33431C7.58835 5.6741 6.99163 7.0927 6.51876 8.55634C6.51876 8.53383 6.5075 8.51131 6.5075 8.48879C6.33862 7.59935 6.05715 6.73242 5.62932 5.92179C5.21275 5.13368 4.3233 3.80514 3.2875 3.88396C2.60071 3.92899 2.39805 4.61578 2.40931 5.20123C2.42057 6.13571 2.63449 7.12648 2.87092 8.02718C3.25372 9.50208 4.22197 10.7068 5.58429 11.3373C5.61806 11.3598 5.6631 11.3936 5.71939 11.4048C5.74191 11.4161 5.75317 11.4161 5.77569 11.4273C5.49422 12.8009 5.31408 14.1857 5.22401 15.5818C4.88624 14.9401 4.43589 14.3659 3.94051 13.9155C3.34379 13.3638 2.26295 12.5982 1.38477 12.8234C0.0337135 13.1724 1.17085 15.3003 1.6212 15.9308C2.09407 16.5838 2.70204 17.113 3.32127 17.6084C3.82792 18.0137 4.50344 18.6442 5.17897 18.6892C5.22401 20.1641 5.37037 21.639 5.59554 23.1139C5.22401 22.5848 4.77365 22.1119 4.24449 21.7291C3.35505 21.0874 1.79008 20.4681 0.675463 20.9185C-0.934541 21.5602 0.788051 23.6318 1.44106 24.3186C2.72456 25.6922 4.42463 26.6492 6.31611 26.683C6.31611 26.6942 6.32736 26.7055 6.32736 26.728C6.6989 28.2029 7.12674 29.6553 7.64464 31.0851C7.3294 30.86 6.99163 30.6686 6.62009 30.5109C5.44918 30.0268 4.00806 29.9255 2.74708 29.993C2.24043 30.0268 1.6212 30.1281 1.37351 30.6235C1.1033 31.1527 1.4298 31.6819 1.76756 32.0872C2.65701 33.123 3.8054 34.0349 5.0889 34.5303C6.39492 35.037 7.791 34.9807 9.0745 34.5303C9.69374 35.8251 10.3918 37.0861 11.1686 38.2907C10.6057 38.0093 10.009 37.7954 9.37849 37.694C7.88108 37.4463 6.32736 37.7728 4.93128 38.3245C4.46967 38.5047 3.96302 38.7636 3.77162 39.2477C3.54645 39.7882 3.81666 40.3624 4.24449 40.7226C5.31408 41.6346 7.138 41.781 8.46653 41.826C9.38975 41.8598 10.2905 41.781 11.1461 41.4207C11.6978 41.1842 12.2495 40.8915 12.7561 40.5425C13.7131 41.781 14.7489 42.9519 15.8523 44.0665C15.492 44.0215 15.1317 44.0102 14.7714 44.0215C13.9383 44.0665 13.1277 44.2692 12.3508 44.5619C11.6415 44.8433 10.9097 45.1023 10.2004 45.395C9.68248 45.5977 8.89436 45.9467 8.78178 46.5659C8.65793 47.2302 9.28842 47.6017 9.80632 47.8269C11.3938 48.5137 13.0151 48.8627 14.7489 48.7952C16.4152 48.7276 17.6762 47.917 18.6445 46.6335C19.7591 47.5792 20.9187 48.4799 22.1009 49.3469C22.0333 49.3469 21.9658 49.3469 21.887 49.3469C21.0426 49.3694 20.2094 49.4482 19.3763 49.6283C18.4981 49.831 17.6537 50.1237 16.8318 50.5065C16.1788 50.8105 15.3794 51.1483 14.839 51.6437C14.3886 52.049 14.1635 52.7245 14.6138 53.2199C15.0304 53.6927 15.751 53.749 16.3364 53.8053C18.0703 53.9742 19.8041 54.4921 21.5605 54.1769C22.4387 54.0192 23.2155 53.6027 23.8798 53.0172C24.3414 52.6006 24.8706 52.049 25.2083 51.4635C26.458 52.2629 27.7303 53.0172 29.0363 53.7265C28.0568 54.2332 27.0548 54.706 26.0527 55.1676C24.7355 55.7644 23.3731 56.2485 22.0896 56.9015C21.4817 57.2167 21.9095 58.1625 22.5513 57.9936C23.801 57.6671 24.9944 57.1154 26.1766 56.5862C27.37 56.0571 28.5409 55.5054 29.7006 54.9199C29.9708 54.7848 30.241 54.6497 30.4999 54.5034C31.7384 55.1451 32.9881 55.7644 34.2604 56.3273C35.6227 56.9465 37.0075 57.5995 38.4486 57.9823C39.0904 58.1512 39.5295 57.2055 38.9102 56.8902C37.8069 56.3273 36.6472 55.9107 35.5101 55.4041C34.3504 54.8862 33.2133 54.3458 32.0874 53.7716C32.0536 53.749 32.0086 53.7378 31.9748 53.7153C33.2809 53.006 34.5531 52.2516 35.8028 51.4522C36.0843 51.9251 36.4896 52.3642 36.8386 52.7357C37.379 53.2874 38.0208 53.7265 38.7526 53.9967C40.5202 54.6272 42.423 54.053 44.2019 53.8391C44.7986 53.7716 45.4516 53.7828 45.992 53.4901C46.5437 53.1974 46.7914 52.5781 46.4761 52.0152C46.1384 51.441 45.4178 51.137 44.8549 50.833C44.0668 50.4052 43.2336 50.0674 42.3779 49.8085C41.4322 49.527 40.4752 49.3806 39.4957 49.3356C39.3043 49.3243 39.1016 49.3131 38.899 49.3131C40.0812 48.4574 41.2408 47.5567 42.3554 46.611C43.1661 47.6806 44.2244 48.5362 45.5979 48.7164C47.2642 48.9303 49.0882 48.6939 50.6306 48.0408C51.1485 47.8269 51.8916 47.613 52.1506 47.0501C52.4545 46.3745 51.824 45.8679 51.2949 45.5864C50.6419 45.2374 49.9101 45.0573 49.2345 44.7645C48.4577 44.438 47.6921 44.1566 46.8477 44.044C46.2847 43.9652 45.7218 43.9539 45.1701 44.0215C45.992 43.1883 46.7801 42.3326 47.5119 41.4207C47.7596 41.1167 47.9961 40.8127 48.2325 40.4975C49.3021 41.2293 50.5293 41.7247 51.824 41.7697C53.2764 41.826 55.0666 41.6796 56.3501 40.9478C57.4309 40.3398 57.6223 39.0901 56.4627 38.4596C55.2355 37.7954 53.5917 37.4576 52.2181 37.5589C51.3624 37.6265 50.5631 37.8742 49.7975 38.2457C50.5743 37.0298 51.2836 35.7688 51.9029 34.474C52.995 34.8568 54.1546 34.9582 55.303 34.6654C56.7329 34.3051 57.8925 33.3707 58.9171 32.3461C59.2661 31.9971 59.6939 31.558 59.7164 31.0288C59.7615 30.4772 59.2774 30.1507 58.7482 30.0381ZM59.3224 13.7129C59.3111 13.6903 59.3336 13.6678 59.3224 13.7129V13.7129ZM56.2262 16.6401C56.4739 16.1335 56.7554 15.6381 57.1157 15.2103C57.6336 14.591 58.2866 13.9718 59.0972 13.7804C59.176 13.7579 59.2323 13.7466 59.2999 13.7466C59.2999 13.7579 59.2886 13.7692 59.2886 13.7804C59.2323 13.8817 59.2323 14.0957 59.1985 14.2082C59.0184 14.8275 58.6469 15.4017 58.2078 15.8745C57.7799 16.3362 57.2733 16.7527 56.7666 17.1243C56.4964 17.3269 56.1362 17.4845 55.8322 17.6872C55.8322 17.6309 55.8322 17.5859 55.8322 17.5296C55.9785 17.2256 56.0911 16.9216 56.2262 16.6401ZM52.0267 8.01592C51.9929 8.03844 51.9704 8.06096 51.9704 8.10599C51.9479 8.6239 51.8015 9.23187 51.824 9.78355C51.5989 9.70474 51.3737 9.60341 51.1598 9.49082C51.171 9.17558 51.1485 8.86033 51.1485 8.5676C51.1373 8.12851 51.126 7.68942 51.1035 7.25033C51.3399 7.41921 51.5651 7.59935 51.779 7.79075C51.8578 7.8583 51.9479 7.93711 52.0267 8.01592ZM49.8988 8.33117C49.7524 8.16229 49.6061 7.98215 49.4597 7.80201C49.471 7.56557 49.471 7.31788 49.4822 7.08145C49.4935 6.85627 49.5047 6.61984 49.516 6.39466C49.7187 6.47347 49.9101 6.55228 50.1127 6.65361C50.0677 6.98012 50.0339 7.31788 50.0001 7.64438C49.9664 7.86956 49.9213 8.09473 49.8988 8.33117ZM49.2345 6.29333C49.2008 6.55228 49.1895 6.82249 49.167 7.08145C49.1557 7.18277 49.1445 7.29536 49.1445 7.40795C48.8067 7.00263 48.4352 6.58606 48.2888 6.09067C48.604 6.12445 48.9305 6.20326 49.2345 6.29333ZM50.2478 8.71397C50.3154 8.39872 50.2929 8.06096 50.3266 7.74571C50.3604 7.43047 50.3942 7.11522 50.4054 6.81123C50.5518 6.89005 50.6982 6.98012 50.8445 7.07019C50.7995 7.56557 50.7882 8.06096 50.777 8.55634C50.777 8.77026 50.7657 8.98418 50.7545 9.20935C50.7094 9.17558 50.6644 9.1418 50.6306 9.10802C50.4955 8.98418 50.3717 8.84907 50.2478 8.71397ZM53.7268 10.1101C53.5354 10.1663 53.2539 10.0988 53.0062 10.0425C52.995 9.99747 52.995 9.95243 52.9837 9.9074C52.9499 9.60341 52.9049 9.29942 52.8936 8.99544C52.8824 8.83781 52.6459 8.83781 52.6459 8.99544C52.6347 9.32194 52.6572 9.64844 52.6797 9.97495C52.5108 9.95243 52.3307 9.91865 52.1618 9.87362C52.2519 9.32194 52.2294 8.70271 52.2068 8.16229C52.5446 8.47753 52.8711 8.79278 53.1976 9.11928C53.4228 9.35572 53.6592 9.60341 53.8281 9.87362C53.8506 9.9074 53.8731 9.95243 53.8957 9.99747C53.8957 10.0087 53.8957 10.0087 53.9069 10.02C53.8506 10.065 53.7831 10.0988 53.7268 10.1101ZM55.7196 24.1723C56.1249 23.553 56.6428 22.9676 57.2508 22.5285C57.7462 22.1682 58.2978 21.9205 58.9058 21.8192C59.1197 21.7854 59.8853 21.6165 60.0429 21.8417C60.0317 21.8192 59.9191 22.1795 59.8741 22.2695C59.6714 22.6523 59.4125 23.0013 59.131 23.3278C58.5906 23.9583 57.9376 24.5663 57.1945 24.9491C56.4964 25.3094 55.7421 25.5458 54.9652 25.5796C54.9878 25.467 55.0103 25.3657 55.0328 25.2531C55.2467 24.8703 55.4944 24.51 55.7196 24.1723ZM55.3593 8.72523C55.5282 8.08348 55.7308 7.44173 56.001 6.82249C56.1812 6.41718 56.3951 6.01186 56.6653 5.66284C56.8455 5.43766 57.2395 4.93102 57.5435 4.88599C57.6448 4.87473 57.5998 4.7734 57.6111 4.99857C57.6223 5.39263 57.566 5.77543 57.5097 6.16948C57.4197 6.82249 57.3071 7.49802 57.0819 8.11725C56.6991 9.16432 55.956 9.9074 54.9878 10.3915C54.9652 10.3127 54.954 10.2339 54.9315 10.1551C55.0328 9.68222 55.2467 9.17558 55.3593 8.72523ZM50.6644 12.8347C50.7882 12.891 50.9008 12.9473 51.0134 13.0036C51.0697 13.3976 50.822 14.242 50.777 14.4447C50.7545 14.5347 50.7207 14.6473 50.6982 14.7599C50.428 14.0506 50.2816 13.3188 50.169 12.5532C50.3491 12.6545 50.518 12.7671 50.6644 12.8347ZM50.9346 15.2891C51.1147 14.8275 51.1485 14.2195 51.2048 13.7804C51.2273 13.6228 51.2724 13.3526 51.2611 13.1161C51.3737 13.1837 51.4863 13.24 51.5989 13.3188C51.7002 13.3864 51.8015 13.4652 51.8916 13.5327C51.8128 14.4222 51.3287 15.3003 51.475 16.2123C51.2611 15.9196 51.081 15.6043 50.9346 15.2891ZM51.7227 16.5388C51.9254 15.9421 51.824 15.2328 51.9366 14.6136C51.9929 14.3096 52.0605 14.0056 52.0943 13.7016C52.3307 13.893 52.5446 14.0957 52.7585 14.3096C52.7135 14.3208 52.6685 14.3546 52.6685 14.3996C52.6459 15.0076 52.5221 15.5818 52.3982 16.1785C52.3419 16.46 52.2631 16.764 52.2631 17.0567C52.0717 16.9103 51.8916 16.7302 51.7227 16.5388ZM53.4903 17.5634C53.5354 17.2819 53.5466 16.9892 53.5804 16.6964C53.6255 16.2686 53.6592 15.852 53.648 15.4129C53.648 15.2891 53.4678 15.3003 53.4678 15.4129C53.4228 16.0547 53.1413 16.8203 53.1864 17.5071C53.1526 17.4958 53.1188 17.4958 53.0738 17.4845C52.9049 17.4395 52.7473 17.3607 52.5896 17.2706C52.7248 16.8315 52.7585 16.3136 52.8373 15.8633C52.9161 15.3792 52.9612 14.9063 52.8711 14.4109C52.9499 14.501 53.04 14.591 53.1188 14.6811C53.5466 15.1652 53.952 15.6944 54.2672 16.2573C54.391 16.4938 54.5824 16.809 54.7175 17.1468C54.7175 17.2481 54.7175 17.3607 54.7175 17.462C54.2897 17.5296 53.8957 17.5971 53.4903 17.5634ZM52.8486 21.8867C52.8486 21.898 52.8373 21.898 52.8373 21.9092C52.7022 22.4046 52.5896 22.9113 52.4771 23.4179C52.387 23.812 52.2406 24.2285 52.2068 24.6339C52.0042 24.5213 51.8015 24.3862 51.6214 24.2285C51.8353 23.7332 51.9254 23.1139 52.0943 22.6185C52.2406 22.1457 52.387 21.6728 52.4208 21.1774C52.5446 21.3463 52.6572 21.5264 52.7585 21.7066C52.7923 21.7629 52.8148 21.8304 52.8486 21.8867ZM50.2253 19.1283C50.3829 19.2184 50.5293 19.3085 50.6757 19.4098C50.6644 19.4211 50.6419 19.4436 50.6419 19.4661C50.6306 20.0741 50.3829 20.682 50.1915 21.2675C50.1915 21.245 50.1803 21.2112 50.1803 21.1887C50.0902 20.5132 50.0677 19.8039 50.2253 19.1283ZM50.3379 22.0218C50.4054 21.7854 50.473 21.5602 50.5293 21.3238C50.6757 20.7383 50.9571 20.1416 50.8333 19.5336C51.3512 19.9164 51.8015 20.3668 52.1843 20.8734C52.0717 21.5039 51.8691 22.1006 51.6552 22.7086C51.5313 23.0689 51.3399 23.4967 51.2836 23.902C51.171 23.7782 51.0697 23.6544 50.9684 23.5305C51.0359 23.1139 51.0247 22.6636 51.1485 22.2583C51.3174 21.6953 51.5538 21.2112 51.5538 20.6032C51.5538 20.4118 51.2724 20.4118 51.2611 20.6032C51.1936 21.3125 50.822 21.8867 50.6982 22.5735C50.6757 22.6861 50.6531 22.8099 50.6306 22.9338C50.5068 22.6411 50.4167 22.3258 50.3379 22.0218ZM53.4341 25.0617C53.1864 24.9941 52.9387 24.9266 52.7022 24.8478C52.6459 24.8253 52.5784 24.8027 52.5221 24.7802C52.7247 24.4425 52.781 24.0146 52.8599 23.6318C52.9499 23.204 53.0062 22.7649 53.085 22.3371C53.2764 22.7424 53.4228 23.159 53.5241 23.5981C53.648 24.1497 53.648 24.6113 53.5692 25.1067C53.5129 25.0842 53.4678 25.073 53.4341 25.0617ZM11.7879 7.48676C11.619 7.68942 11.4614 7.89208 11.2925 8.09474C11.5627 7.71194 11.4388 6.96886 11.3488 6.4397C11.7879 6.27081 12.2382 6.14697 12.7111 6.07941C12.5647 6.61984 12.1481 7.05893 11.7879 7.48676ZM10.2229 7.02515C10.1779 7.41921 10.0765 7.80201 9.95269 8.17355C9.82884 8.57886 9.54737 9.02921 9.55863 9.45705C9.55863 9.5246 9.6487 9.55837 9.69374 9.51334C10.0428 9.18684 10.1666 8.53383 10.2905 8.08348C10.3918 7.68942 10.4593 7.29536 10.4256 6.9013C10.6507 6.7662 10.8872 6.64235 11.1236 6.54102C11.1236 6.74368 11.1236 6.93508 11.1123 7.13774C11.1011 7.52054 10.9772 7.83578 10.8984 8.19606C10.8872 8.25236 10.9435 8.33117 11.011 8.30865C11.1011 8.27488 11.1686 8.22984 11.2362 8.17355C10.966 8.50005 10.6845 8.82655 10.358 9.11928C9.88514 9.54712 9.31094 9.79481 8.69171 9.92991C8.97318 9.3332 8.92814 8.50005 9.11954 7.88082C9.15332 7.8583 9.17583 7.82452 9.20961 7.80201C9.53611 7.50928 9.87388 7.25033 10.2229 7.02515ZM7.74597 9.19809C8.10625 8.8153 8.48905 8.45502 8.87185 8.09474C8.78178 8.39872 8.72548 8.70271 8.66919 9.01795C8.6129 9.34446 8.51157 9.64844 8.4215 9.96369C8.39898 9.96369 8.37646 9.97495 8.35394 9.97495C8.06121 10.02 7.54331 10.1889 7.26184 10.1101C7.20555 10.0988 7.16051 10.0763 7.11548 10.0538C7.29562 9.76103 7.47576 9.47956 7.74597 9.19809ZM5.15645 17.6759C4.87498 17.4958 4.55974 17.3494 4.30079 17.1693C3.79414 16.7978 3.2875 16.3812 2.83715 15.9308C2.36428 15.4467 1.97022 14.85 1.79008 14.197C1.76756 14.1294 1.73379 13.8705 1.70001 13.7579C1.75631 13.7692 1.82386 13.7692 1.89141 13.7804C2.66827 13.9718 3.31002 14.5573 3.81666 15.1427C4.1882 15.5818 4.46967 16.0547 4.72862 16.5613C4.88624 16.8653 4.99883 17.2031 5.15645 17.5183C5.15645 17.5746 5.15645 17.6197 5.15645 17.6759ZM3.81666 24.9379C3.07358 24.5438 2.42057 23.9583 1.88015 23.3166C1.6212 23.0126 1.38477 22.6861 1.18211 22.3483C1.13707 22.2583 0.968191 21.8417 0.968191 21.8417C1.13707 21.6165 1.89141 21.7854 2.10533 21.8192C2.7133 21.9205 3.26498 22.1682 3.76037 22.5285C4.34582 22.945 4.84121 23.508 5.24652 24.0934C5.48296 24.4425 5.75317 24.8253 5.97834 25.2193C6.00086 25.3319 6.02338 25.4445 6.0459 25.5571C5.26904 25.5458 4.5147 25.3094 3.81666 24.9379ZM6.00086 10.3915C5.06638 9.92991 4.35708 9.23187 3.95176 8.21858C3.70407 7.59935 3.59148 6.92382 3.50141 6.27081C3.44512 5.88802 3.36631 5.49396 3.37757 5.0999C3.37757 5.06613 3.38883 4.94228 3.38883 4.87473C3.40009 4.87473 3.4226 4.88599 3.43386 4.88599C3.74911 4.95354 4.08687 5.39263 4.27827 5.61781C4.54848 5.94431 4.7624 6.34963 4.94254 6.73242C5.23526 7.36291 5.44918 8.03844 5.62932 8.71397C5.74191 9.15306 5.95583 9.6597 6.05715 10.1438C6.0459 10.2339 6.02338 10.3127 6.00086 10.3915ZM10.2454 12.8685C10.4143 12.7896 10.617 12.6545 10.8309 12.5419C10.6395 13.8705 10.3242 15.1089 9.5136 16.2461C9.43478 16.3587 9.34471 16.4713 9.24339 16.5838C9.3222 16.0547 9.22087 15.4805 9.18709 14.9626C9.16457 14.4897 9.11954 14.0281 9.08576 13.5552C9.16457 13.4989 9.24339 13.4314 9.3222 13.3751C9.61493 13.1724 9.91891 13.0148 10.2454 12.8685ZM8.87185 13.7354C8.86059 14.1407 8.86059 14.5573 8.87185 14.9626C8.88311 15.5706 8.80429 16.2686 8.98443 16.8541C8.748 17.068 8.48905 17.2594 8.20758 17.3832C8.26387 16.9103 8.2301 16.415 8.21884 15.9308C8.21884 15.4129 8.21884 14.8838 8.19632 14.3659C8.41024 14.1407 8.63541 13.938 8.87185 13.7354ZM7.92611 14.6586C7.91485 15.0864 7.91485 15.5143 7.91485 15.9421C7.91485 16.4487 7.86982 16.9779 7.94863 17.4845H7.93737C7.74597 17.5408 7.55457 17.5634 7.36317 17.5746C7.36317 17.3157 7.35191 17.068 7.36317 16.8203C7.37443 16.3249 7.37443 15.8408 7.36317 15.3454C7.53205 15.1202 7.71219 14.895 7.90359 14.6811C7.90359 14.6811 7.91485 14.6699 7.92611 14.6586ZM6.31611 17.4733C6.31611 17.372 6.31611 17.2594 6.31611 17.158C6.42869 16.8541 6.59758 16.5726 6.72142 16.3474C6.85653 16.0885 7.01415 15.8408 7.18303 15.5931C7.14925 15.9984 7.11548 16.4037 7.09296 16.809C7.0817 17.0455 7.04793 17.2931 7.03667 17.5521C6.78897 17.5408 6.55254 17.5071 6.31611 17.4733ZM10.8084 21.1999C10.707 21.8642 10.5607 22.6073 10.2342 23.2153C10.2792 22.6636 10.1328 22.0894 10.009 21.5602C9.88514 21.0311 9.73877 20.5019 9.62618 19.9727C9.97521 19.6462 10.358 19.3648 10.7746 19.1396C10.9435 19.8039 10.9209 20.5132 10.8084 21.1999ZM9.41227 20.1867C9.46856 20.5807 9.54737 20.9635 9.62618 21.3463C9.77255 22.0669 9.81758 22.8437 10.0202 23.553C9.82884 23.8232 9.58115 24.0709 9.3222 24.2848C9.40101 23.8683 9.25465 23.4179 9.15332 23.0013C9.05199 22.5848 8.98443 22.1795 8.92814 21.7516C8.90562 21.5039 8.88311 21.1774 8.82681 20.8622C8.99569 20.637 9.19835 20.4006 9.41227 20.1867ZM8.6129 21.1436C8.64667 21.5152 8.62415 21.9092 8.64667 22.1682C8.66919 22.4159 8.72548 22.6636 8.78178 22.9C8.89436 23.3954 8.9394 23.9583 9.11954 24.4199C8.91688 24.5663 8.69171 24.6902 8.46653 24.7802C8.41024 24.2848 8.21884 23.812 8.10625 23.3278C8.02744 23.0013 7.95989 22.6861 7.91485 22.3596C8.01618 22.1344 8.14003 21.9092 8.26387 21.6953C8.3652 21.5152 8.47779 21.335 8.6129 21.1436ZM7.4645 23.6769C7.53205 23.3616 7.63338 23.0464 7.74597 22.7424C7.76849 22.9 7.80226 23.0576 7.83604 23.2153C7.94863 23.7444 8.0387 24.3637 8.32017 24.8365H8.30891C8.07247 24.9153 7.81352 24.9829 7.57709 25.0504C7.53205 25.0617 7.48702 25.073 7.45324 25.0842C7.36317 24.6339 7.35191 24.1948 7.4645 23.6769ZM5.20149 33.4382C4.50344 33.168 3.87295 32.7402 3.31001 32.2561C3.16365 32.1322 2.09407 31.2765 2.1954 31.0401C2.31924 30.7474 3.60274 30.9275 3.86169 30.9388C4.5147 30.9613 5.16771 31.0063 5.78694 31.1865C6.81149 31.4679 7.59961 32.0984 8.30891 32.8302C8.39898 33.0554 8.50031 33.2806 8.60164 33.5058C7.49828 33.8548 6.38366 33.8886 5.20149 33.4382ZM11.0448 31.5355C11.0335 31.4454 11.0335 31.3441 11.0223 31.2991C10.9435 30.9388 10.8646 30.5898 10.7858 30.2295C10.6507 29.5877 10.4706 28.9235 10.4143 28.2592C10.5607 28.0228 10.7295 27.7863 10.9097 27.5611C10.9435 28.0678 11.056 28.5519 11.1912 29.0473C11.3713 29.6891 11.4614 30.3533 11.6415 30.9951C11.4726 31.1977 11.2587 31.3666 11.0448 31.5355ZM12.4071 25.9174C12.5422 26.5253 12.6773 27.1333 12.6886 27.7525C12.7111 28.6082 12.5422 29.4977 12.1819 30.2745C12.1031 30.4321 12.013 30.5785 11.9117 30.7136C11.9117 30.2407 11.7654 29.7791 11.6302 29.3288C11.4388 28.6645 11.2249 28.0115 11.1236 27.336C11.3037 27.1221 11.4951 26.9081 11.6978 26.6942C11.7428 27.5386 11.9793 28.4506 12.2607 29.1937C12.2945 29.295 12.4296 29.2725 12.4409 29.1711C12.5309 28.2704 12.1144 27.3472 11.923 26.4465C12.0919 26.2664 12.2495 26.0862 12.4071 25.9174ZM10.2567 28.5519C10.3355 29.4076 10.5719 31.2202 10.8534 31.7044C10.7971 31.7494 10.7408 31.7944 10.6845 31.8395C10.5607 31.9408 10.4481 32.0421 10.3467 32.1547C10.3242 31.7156 10.1553 31.2428 10.0653 30.8374C9.97521 30.4772 9.88514 30.1056 9.79507 29.7453C9.86262 29.4639 9.96395 29.1824 10.0765 28.9122C10.1328 28.7883 10.1891 28.6645 10.2567 28.5519ZM9.73877 32.6951C9.61493 31.9408 9.56989 31.1414 9.67122 30.3758C9.69374 30.4772 9.71625 30.5672 9.73877 30.6686C9.88514 31.2428 9.93017 31.8507 10.0653 32.4249C10.0315 32.4587 9.99772 32.4925 9.96395 32.5263C9.88514 32.5826 9.80632 32.6388 9.73877 32.6951ZM10.7746 40.3398C10.0428 40.6663 9.25464 40.7226 8.46653 40.7226C7.61086 40.7114 6.76646 40.6101 5.94457 40.3849C5.6631 40.3061 4.60477 40.0359 4.72862 39.608C4.81869 39.2928 5.75317 39.1014 6.03464 39.0113C6.82275 38.7524 7.64464 38.5947 8.47779 38.5947C9.25465 38.5947 9.97521 38.7411 10.707 39.0226C11.1461 39.1915 11.5514 39.4391 11.968 39.6531C11.574 39.8895 11.1912 40.1484 10.7746 40.3398ZM14.141 38.0318C14.0959 37.7165 13.9608 37.4013 13.837 37.1198C13.578 36.5119 13.274 35.9264 13.1051 35.2847C13.184 35.0595 13.2853 34.8343 13.4204 34.5979C13.4316 34.5754 13.4542 34.5528 13.4654 34.5303C13.6681 35.1383 13.8933 35.735 14.0734 36.343C14.2085 36.7933 14.2873 37.3112 14.5463 37.7166C14.4337 37.8404 14.2873 37.9417 14.141 38.0318ZM13.9608 33.8098C14.1297 34.2601 14.3098 34.6879 14.5125 35.127C14.7039 35.5324 14.884 35.9489 15.0417 36.3655C15.0979 36.5119 15.143 36.6582 15.188 36.7933C15.0642 37.0298 14.9291 37.2549 14.7714 37.4576C14.4787 36.3768 13.9946 35.3522 13.6005 34.3051C13.7244 34.1475 13.837 33.9786 13.9608 33.8098ZM15.6947 31.3779C15.7172 31.3441 15.7397 31.2991 15.7622 31.254C15.8635 31.7494 15.9536 32.2448 15.9874 32.774C16.0437 33.5058 15.9761 34.2151 15.8185 34.9244C15.8185 34.6317 15.6271 34.384 15.492 34.1137C15.2556 33.6409 15.0529 33.123 14.8615 32.6276C14.8728 32.6163 14.8728 32.6051 14.884 32.6051C15.1655 32.1998 15.447 31.7944 15.6947 31.3779ZM14.6814 32.8753C14.9741 33.6521 15.2893 34.4177 15.6609 35.1608C15.6834 35.2058 15.7284 35.2058 15.7622 35.1833C15.7397 35.2847 15.7059 35.3972 15.6834 35.4986C15.6046 35.7688 15.5258 36.0503 15.4132 36.3092C15.2781 35.9602 15.0979 35.6224 14.9628 35.3297C14.6926 34.7555 14.3886 34.1926 14.1184 33.6071C14.2986 33.3594 14.49 33.123 14.6814 32.8753ZM12.9588 37.0073C12.9137 36.5344 12.925 36.1065 12.9926 35.7012C13.0601 36.0503 13.184 36.3768 13.3303 36.7033C13.4654 37.0072 13.6118 37.3112 13.7131 37.6377C13.7694 37.8179 13.8032 37.998 13.8482 38.1782C13.6118 38.2907 13.3754 38.3921 13.1502 38.5159C13.0601 38.0093 13.0038 37.4914 12.9588 37.0073ZM20.1081 42.9857C20.0743 43.0757 20.0293 43.1545 19.9843 43.2333C19.7929 42.6254 19.3538 42.0174 19.0723 41.5445C18.667 40.8352 18.2842 40.1147 17.9352 39.3828C18.059 39.1126 18.1828 38.8537 18.318 38.5947C18.5769 39.1239 18.9034 39.608 19.1961 40.1259C19.3988 40.4862 19.5902 40.869 19.7816 41.2405C19.9617 41.5783 20.0743 41.9611 20.2995 42.2764C20.2657 42.524 20.2094 42.7605 20.1081 42.9857ZM19.1736 36.8271C19.9617 37.9192 20.2207 39.3603 20.3108 40.6776C20.322 40.914 20.3445 41.1617 20.3445 41.4207C20.1419 40.9703 19.8379 40.5312 19.6352 40.171C19.2749 39.5292 18.8133 38.9325 18.4643 38.2907C18.7008 37.8066 18.9034 37.3 19.1736 36.8271ZM17.451 40.5988C17.5524 40.2948 17.6762 39.9908 17.8001 39.6868C18.0477 40.3286 18.3405 40.9366 18.6782 41.5445C18.9147 41.9611 19.1511 42.3889 19.365 42.8168C19.4889 43.0757 19.5902 43.3459 19.7253 43.6049C19.5452 43.8188 19.3312 43.9989 19.1061 44.1791C18.9372 43.5711 18.5544 42.9857 18.2617 42.4565C17.9577 41.9048 17.6649 41.3531 17.3947 40.7789C17.4173 40.7226 17.4398 40.6664 17.451 40.5988ZM16.3927 47.1852C15.7172 47.5792 15.0191 47.658 14.2535 47.658C13.4542 47.6693 12.6548 47.5905 11.8779 47.3991C11.5064 47.309 11.1349 47.1964 10.7858 47.0501C10.707 47.0163 10.2792 46.7686 10.0315 46.6673C10.054 46.6448 10.0878 46.6335 10.1103 46.611C10.2567 46.5209 10.403 46.4421 10.5607 46.3745C10.8984 46.2282 11.2474 46.1156 11.5852 45.9917C12.272 45.7328 12.925 45.4175 13.6343 45.2149C14.3774 45.001 15.143 44.9109 15.9086 44.9897C16.3589 45.0348 16.7755 45.1473 17.1808 45.2937C17.3835 45.4851 17.5861 45.6652 17.7888 45.8454C17.3947 46.3858 16.9556 46.8587 16.3927 47.1852ZM18.4418 44.697C18.2729 44.5394 18.104 44.3817 17.9352 44.2241C17.6762 43.785 17.5298 43.1996 17.4285 42.8168C17.2821 42.2538 17.2259 41.7584 17.3159 41.2293C17.4735 41.5783 17.6424 41.9273 17.8226 42.2651C18.1828 42.9406 18.4643 43.7175 18.8809 44.3705C18.7233 44.4831 18.5769 44.5844 18.4418 44.697ZM25.6474 49.6396C25.2984 48.7952 24.6792 48.0521 24.15 47.3315C23.7897 46.8362 23.3168 46.0143 22.6751 45.7778C22.6864 45.5301 22.7089 45.2824 22.7426 45.0573C22.7764 44.8321 22.8215 44.5957 22.8665 44.3705C23.452 45.2599 24.0712 46.1381 24.6454 47.0501C25.107 47.7931 25.5348 48.57 26.0302 49.3018C25.9064 49.4257 25.76 49.527 25.6474 49.6396ZM23.6771 41.2068C23.7447 41.0154 23.801 40.8352 23.846 40.6551C24.0599 40.8352 24.2513 41.1167 24.3977 41.2743C24.7692 41.6796 25.1182 42.0737 25.4335 42.5128C26.0415 43.3685 26.4018 44.3142 26.6607 45.3275C26.7057 45.4851 26.7395 45.654 26.7845 45.8229C26.5594 45.4288 26.3117 45.0573 26.0752 44.697C25.456 43.7287 24.758 42.8168 23.9473 42.0061C23.8122 41.871 23.6096 42.0737 23.7334 42.2201C24.5553 43.0757 25.2308 44.044 25.8388 45.0685C26.2216 45.7215 26.5594 46.4308 26.9647 47.0838C26.9759 47.4441 26.9422 47.7931 26.8296 48.1309C26.7845 48.0183 26.7057 47.917 26.6494 47.8157C26.3905 47.3766 26.1315 46.9487 25.8501 46.5322C25.501 46.0143 25.1408 45.5076 24.7692 45.0122C24.5215 44.6857 24.2738 44.348 23.9924 44.0552C23.7222 43.7625 23.3394 43.5261 23.2831 43.1095C23.2831 43.0757 23.2606 43.0645 23.238 43.0419C23.2943 42.828 23.3506 42.6141 23.3957 42.4115C23.4632 41.9949 23.542 41.5896 23.6771 41.2068ZM23.1142 43.4135C23.1592 43.5373 23.2268 43.6499 23.3281 43.7625C23.6208 44.1228 23.9248 44.4606 24.2063 44.8433C24.6229 45.4175 25.0057 46.0255 25.4222 46.611C25.715 47.0276 25.9739 47.4892 26.2329 47.917C26.3342 48.0859 26.458 48.3899 26.6607 48.4799C26.5706 48.6488 26.458 48.8177 26.3342 48.9753C25.8838 48.2322 25.3997 47.5004 24.9268 46.7799C24.3301 45.8679 23.6996 44.9109 22.934 44.1228C22.9903 43.8864 23.0579 43.6499 23.1142 43.4135ZM23.0466 52.0715C22.4499 52.6119 21.7181 52.9271 20.9187 53.0172C20.0405 53.1073 19.1511 52.9722 18.2842 52.8596C17.5411 52.7583 16.8093 52.7357 16.0662 52.6795C15.9311 52.6682 15.796 52.6569 15.6609 52.6232C15.447 52.5669 15.4357 52.6119 15.5145 52.4881C15.6496 52.2741 15.9761 52.1728 16.1788 52.0602C16.9669 51.6211 17.755 51.2046 18.6107 50.9006C19.4889 50.5966 20.3671 50.439 21.279 50.3039C21.8982 50.2025 22.5625 50.1125 23.2043 50.1462C23.5082 50.3601 23.8122 50.5628 24.1162 50.7655C23.7559 51.182 23.4632 51.6887 23.0466 52.0715ZM23.3281 48.5813C23.1254 48.2998 22.9791 47.9733 22.8778 47.6468C22.7314 47.1514 22.6751 46.5772 22.6751 46.0255C23.238 46.4083 23.6321 47.2527 23.9811 47.7706C24.2288 48.1309 24.499 48.4687 24.7242 48.8402C24.9269 49.1892 25.0957 49.572 25.2984 49.9098C24.6341 49.482 23.9811 49.0316 23.3281 48.5813ZM34.3504 45.3275C34.4067 45.1023 34.4743 44.8884 34.5418 44.6632C34.812 44.4831 35.026 44.2241 35.2399 43.9877C35.5551 43.6387 35.8816 43.3122 36.2194 42.9857C36.5009 42.7154 36.8048 42.4452 37.0863 42.1638C37.2327 42.0287 37.3453 41.871 37.4691 41.7472C37.5254 41.9273 37.5704 42.1075 37.6155 42.2989C37.6493 42.434 37.683 42.5803 37.7168 42.7154C37.5479 42.9181 37.3115 43.0982 37.1426 43.2446C36.8499 43.5036 36.5684 43.7625 36.2757 44.0215C35.8929 44.3705 35.5101 44.7195 35.1386 45.0798C34.8008 45.4063 34.4067 45.7215 34.1703 46.1269C34.2153 45.8454 34.2829 45.5864 34.3504 45.3275ZM35.5214 42.5803C35.8479 42.1187 36.1969 41.7134 36.5797 41.3081C36.7373 41.1392 36.94 40.8465 37.1651 40.6438C37.2214 40.9028 37.3002 41.1617 37.379 41.4207L37.3678 41.4319C37.0413 41.6684 36.7711 42.0174 36.4783 42.2989C36.0505 42.7042 35.6114 43.087 35.2061 43.5148C35.0935 43.6387 34.9584 43.7625 34.8233 43.8864C34.9922 43.436 35.2286 42.9969 35.5214 42.5803ZM34.1253 46.3408C34.1478 46.3633 34.1928 46.3745 34.2379 46.352C34.7445 46.0931 35.1386 45.5864 35.5326 45.1924C35.9717 44.7533 36.4333 44.3367 36.8949 43.9089C37.1539 43.6724 37.5367 43.391 37.7956 43.0532C37.8632 43.3122 37.9307 43.5711 37.9983 43.8301C37.9758 43.8301 37.9645 43.8413 37.9532 43.8638C37.4128 44.6182 36.5797 45.2262 35.9041 45.8679C35.5326 46.2169 35.1836 46.5772 34.8458 46.96C34.6094 47.219 34.3167 47.4779 34.1027 47.7706C34.0127 47.309 34.0465 46.8136 34.1253 46.3408ZM34.2829 48.3561C34.2266 48.2435 34.1928 48.1422 34.159 48.0296C34.5193 47.9057 34.767 47.5455 35.0147 47.2752C35.3975 46.8587 35.7803 46.4308 36.1969 46.0368C36.8274 45.4401 37.6605 44.8208 38.0433 44.0215C38.1334 44.3705 38.2009 44.7195 38.2572 45.0685C38.2685 45.1473 38.2797 45.2262 38.2797 45.305C38.2347 45.2824 38.1672 45.2937 38.1559 45.35C38.0883 45.7441 37.593 46.0931 37.3115 46.3408C37.03 46.5885 36.7823 46.8699 36.5009 47.1176C35.9267 47.6355 34.9246 48.2998 34.8008 49.1217C34.5869 48.8965 34.418 48.6376 34.2829 48.3561ZM36.8161 49.1555C36.4108 49.4369 36.0055 49.7071 35.5889 49.9661C35.4988 49.7071 35.2511 49.5608 35.026 49.3469C34.9922 49.3131 34.9584 49.2793 34.9246 49.2455C35.2849 48.829 35.5551 48.3673 35.9604 47.9846C36.3095 47.658 36.6923 47.3541 37.0188 47.005C37.4128 46.5997 38.1672 46.0931 38.3135 45.4964C38.3698 46.1719 38.336 46.915 38.1672 47.5455C38.0771 47.8832 37.9195 48.221 37.7168 48.525C37.4128 48.7389 37.1088 48.9528 36.8161 49.1555ZM39.7209 50.2813C40.6328 50.4277 41.5223 50.5741 42.3892 50.8781C43.2223 51.1708 43.9767 51.5536 44.7423 51.9927C44.9562 52.1165 45.3503 52.2516 45.4854 52.4768C45.5754 52.6119 45.5642 52.5218 45.3953 52.5894C45.2602 52.6569 45.08 52.6569 44.9337 52.6682C44.2244 52.7245 43.5151 52.747 42.8058 52.8371C41.9051 52.9609 40.9931 53.096 40.0924 53.006C39.293 52.9271 38.5612 52.6006 37.9645 52.0602C37.5479 51.6774 37.2552 51.1708 36.8949 50.7317C37.1989 50.529 37.5029 50.3151 37.8069 50.1125C38.4374 50.0899 39.1016 50.18 39.7209 50.2813ZM42.6819 38.5835C42.4117 38.8987 42.0402 39.1577 41.8037 39.5067C41.4209 40.0696 40.8355 40.7339 40.7454 41.4319C40.7342 41.5108 40.8467 41.5445 40.903 41.4995C41.5335 40.914 41.7925 39.9683 42.3892 39.3378C42.5243 39.1914 42.6932 39.0451 42.8283 38.8762C42.9071 39.0451 42.9859 39.2027 43.0647 39.3716C42.5806 39.8445 42.1978 40.3961 41.815 40.9591C41.4885 41.4545 41.0719 41.9498 40.7454 42.479C40.6216 41.8936 40.6553 41.2631 40.7004 40.6776C40.7229 40.3398 40.7567 40.0021 40.8017 39.6643C41.0156 39.3153 41.2408 39.0001 41.5335 38.6961C41.7925 38.4371 42.119 38.1782 42.3329 37.8517C42.4117 38.0318 42.5018 38.2119 42.5919 38.3921C42.6144 38.4596 42.6482 38.5159 42.6819 38.5835ZM41.8263 36.8271C41.9501 37.0523 42.0627 37.2887 42.1753 37.5364C41.8826 37.9755 41.466 38.302 41.0944 38.6848C41.0494 38.7411 40.9931 38.7974 40.9368 38.8537C41.1282 38.1331 41.3984 37.4238 41.8263 36.8271ZM40.8693 42.9406C41.3309 42.524 41.6686 41.8598 41.9726 41.3757C42.3554 40.7789 42.727 40.1822 43.1661 39.6305C43.3012 39.9458 43.425 40.2723 43.5376 40.5988C43.5714 40.7001 43.5939 40.7902 43.6164 40.8803C43.3349 41.3419 42.8958 41.6909 42.5919 42.1412C42.2203 42.6929 41.7812 43.2108 41.4547 43.7963C41.2183 43.5599 41.0044 43.2896 40.8805 42.9857C40.8805 42.9744 40.8805 42.9631 40.8693 42.9406ZM42.5581 44.6857C42.2541 44.4493 41.9163 44.2129 41.6123 43.9426C42.2203 43.5599 42.5581 42.9294 42.9409 42.3439C43.1661 41.9949 43.4926 41.6796 43.7177 41.3306C43.774 41.781 43.729 42.2313 43.6051 42.7267C43.5038 43.1433 43.3575 43.7513 43.0872 44.2129C42.9071 44.3705 42.7382 44.5281 42.5581 44.6857ZM47.3768 45.2262C48.0861 45.4288 48.7391 45.7553 49.4259 46.003C49.7412 46.1156 50.0564 46.2169 50.3604 46.3408C50.518 46.4083 50.6757 46.4871 50.8333 46.5659C50.8896 46.5997 50.9346 46.6335 50.9909 46.6673C50.7657 46.7686 50.3942 46.9713 50.3379 47.005C49.9551 47.1739 49.5498 47.2978 49.1332 47.3991C48.3563 47.5905 47.557 47.658 46.7576 47.658C46.0258 47.6468 45.3277 47.5905 44.686 47.219C44.1005 46.8924 43.6389 46.4083 43.2449 45.8679C43.4588 45.6765 43.6727 45.4738 43.8866 45.2824C44.2244 45.1586 44.5847 45.0685 44.9787 45.0122C45.7781 44.9109 46.6 45.001 47.3768 45.2262ZM46.3973 37.6715C46.3635 37.6377 46.3298 37.5927 46.296 37.5589C46.1046 37.3225 45.947 37.0635 45.8006 36.7821C45.8231 36.7821 45.8456 36.7708 45.8569 36.7483C46.1947 36.3092 46.251 35.735 46.4311 35.2171C46.6 34.733 46.8814 34.3164 47.0616 33.8323C47.2417 34.0687 47.4106 34.3164 47.5682 34.5754C47.4106 35.1833 47.0954 35.735 46.8702 36.3205C46.69 36.7596 46.5437 37.2212 46.3973 37.6715ZM46.1159 32.5938C46.1384 32.6276 46.1609 32.6501 46.1834 32.6839C46.1609 32.6951 46.1496 32.7177 46.1384 32.7402C45.9132 33.3707 45.6317 33.9786 45.3615 34.5866C45.3052 34.7105 45.2489 34.8456 45.1814 34.9807C45.1251 34.6992 45.0688 34.4177 45.035 34.1363C45.1138 33.8998 45.1701 33.6521 45.2377 33.4945C45.4178 33.0779 45.7443 32.6726 45.8456 32.2335C45.947 32.3574 46.037 32.4812 46.1159 32.5938ZM45.2489 31.254C45.2714 31.2991 45.294 31.3328 45.3165 31.3666C45.4291 31.5693 45.5529 31.7607 45.6768 31.9521C45.5867 32.4024 45.2152 32.8415 45.0012 33.2581C45.0012 33.1005 45.0012 32.9316 45.0238 32.774C45.0575 32.2448 45.1476 31.7494 45.2489 31.254ZM45.3615 35.6449C45.4065 35.5098 45.4516 35.3747 45.4966 35.2396C45.6205 34.9019 45.7668 34.5866 45.9019 34.2601C46.0933 33.8098 46.251 33.3594 46.3185 32.8753C46.4986 33.123 46.69 33.3594 46.8814 33.6071C46.6675 34.1363 46.2735 34.5754 46.0821 35.1158C45.9132 35.5886 45.7556 36.0953 45.7105 36.6019C45.5642 36.2867 45.4516 35.9714 45.3615 35.6449ZM48.0411 37.0073C47.9961 37.5026 47.951 38.0205 47.8384 38.5159C47.4219 38.2907 46.9715 38.1444 46.5887 37.8517C46.8139 37.4576 46.9603 37.0298 47.1179 36.5907C47.3093 36.0277 47.5795 35.4873 47.7371 34.9244C48.0636 35.5886 48.1087 36.2191 48.0411 37.0073ZM50.2253 39.0451C50.9459 38.7636 51.6552 38.606 52.432 38.5947C53.2989 38.5835 54.1434 38.7411 54.9765 39.0113C55.2692 39.1014 56.1699 39.2815 56.2825 39.608C56.4289 40.0359 55.3368 40.3173 55.0666 40.3849C54.2785 40.5988 53.4678 40.7114 52.6459 40.7226C51.8578 40.7339 51.0697 40.6889 50.3266 40.3961C49.865 40.2047 49.4597 39.9233 49.0431 39.6531C49.4372 39.4391 49.82 39.2027 50.2253 39.0451ZM51.2048 29.6891C50.8558 30.3646 50.5293 31.0964 50.3041 31.817C50.0226 31.5918 49.7412 31.3779 49.4822 31.1414C49.6173 30.7924 49.7299 30.4321 49.8538 30.0831C50.0789 29.4751 50.3266 28.8784 50.5968 28.293C50.7207 28.4956 50.8333 28.6983 50.9346 28.9122C51.0472 29.1599 51.1373 29.4188 51.2048 29.6891ZM48.5928 25.9174C48.8067 26.1425 49.0206 26.3677 49.2345 26.6041C48.8517 27.1446 48.6603 27.8088 48.4802 28.4393C48.4464 28.5519 48.4126 28.6645 48.3789 28.7658C48.3338 28.4281 48.3113 28.0903 48.3113 27.7525C48.3226 27.1333 48.4577 26.5253 48.5928 25.9174ZM48.908 30.4321C49.0994 30.1732 49.1782 29.8242 49.2458 29.5314C49.4259 28.8334 49.8087 28.2142 49.9663 27.5049C50.0001 27.3472 49.7637 27.2684 49.7187 27.4373C49.5385 28.079 49.1557 28.6307 48.9531 29.2612C48.8742 29.5202 48.7954 29.7791 48.7279 30.0381C48.6603 29.8804 48.604 29.7116 48.559 29.5427C48.6491 29.2837 48.7054 29.0135 48.7729 28.7996C48.9756 28.1241 49.1782 27.4598 49.4259 26.7955C49.7862 27.1896 50.1465 27.6062 50.4392 28.034C50.428 28.0453 50.4167 28.0565 50.4054 28.079C49.9664 28.9122 49.4259 29.8692 49.2008 30.8374C49.0882 30.7136 48.9868 30.5785 48.908 30.4321ZM51.2611 32.6951C51.1936 32.6388 51.1147 32.5938 51.0359 32.515C50.8558 32.3574 50.6869 32.1772 50.518 32.0084C50.8671 31.4792 51.126 30.86 51.3174 30.2295C51.4412 31.0401 51.3962 31.8958 51.2611 32.6951ZM57.6899 32.2561C57.1494 32.7177 56.5415 33.1342 55.8772 33.4044C54.6725 33.8998 53.5241 33.8661 52.387 33.4945C52.4883 33.2693 52.5896 33.0442 52.6797 32.819C53.3778 32.1097 54.1321 31.4905 55.1341 31.1977C55.7871 31.0063 56.4627 30.95 57.1382 30.9275C57.4197 30.9163 58.6581 30.7361 58.8045 31.0288C58.9171 31.254 57.825 32.1435 57.6899 32.2561Z" fill="#FFF06A"/>
</g>
<defs>
<clipPath id="clip0_701_122">
<rect width="61" height="58.0164" fill="white"/>
</clipPath>
</defs>
</svg>
