<svg width="79" height="62" viewBox="0 0 79 62" fill="none" xmlns="http://www.w3.org/2000/svg">
<g clip-path="url(#clip0_1_641)">
<path d="M22.4876 49.0991C22.5459 48.8797 22.5896 48.6895 22.7061 48.4848C22.8081 48.3093 22.9246 48.1337 23.012 47.9436C23.1139 47.7388 22.8226 47.5487 22.6915 47.7535C22.4585 48.1484 22.0361 48.5433 22.0361 49.0406C22.0507 49.3038 22.4294 49.3623 22.4876 49.0991ZM21.2496 48.7627C21.2787 48.4555 21.4244 48.2215 21.57 47.9729C21.7157 47.7242 21.3516 47.5195 21.1913 47.7535C20.9729 48.0606 20.769 48.3824 20.7398 48.7773C20.7398 49.0844 21.2205 49.0698 21.2496 48.7627ZM27.6727 51.1175C27.7456 51.1175 27.8184 51.059 27.8329 51.0005C27.8475 50.9127 27.8329 50.8249 27.8475 50.7372C27.8621 50.6056 27.9203 50.4739 27.964 50.3569C28.066 50.1229 28.1825 49.9035 28.2699 49.6695C28.3427 49.4355 27.9932 49.3477 27.9058 49.5671C27.8184 49.8158 26.9736 51.0736 27.6727 51.1175ZM26.3765 50.4886C26.4493 50.0351 26.6678 49.5964 26.959 49.2453C27.1193 49.0552 26.8717 48.8065 26.6823 48.9674C26.3036 49.3331 25.9395 49.8743 25.9104 50.4154C25.8958 50.6933 26.3328 50.7518 26.3765 50.4886ZM23.5654 49.5379C23.6528 49.5525 23.7256 49.5232 23.7548 49.4355C23.7839 49.3477 23.7985 49.2015 23.8567 49.0991C23.9296 48.9821 24.0169 48.8651 24.0752 48.7334C24.1772 48.514 23.8713 48.3239 23.7402 48.5433C23.6383 48.7042 23.5072 48.8504 23.4198 49.0259C23.347 49.1868 23.3033 49.494 23.5654 49.5379ZM24.9928 50.1229C25.0656 50.1522 25.1384 50.1521 25.1967 50.0936C25.3132 49.9766 25.3278 49.728 25.4006 49.5817C25.488 49.377 25.5899 49.1868 25.6628 48.9821C25.7356 48.748 25.386 48.6603 25.3132 48.8797C25.1967 49.1137 24.585 49.9181 24.9928 50.1229ZM28.8379 51.5124C29.071 51.4392 29.1438 51.2784 29.0418 51.1467C29.1147 50.6787 29.3477 50.2984 29.6244 49.9035C29.7555 49.7134 29.4496 49.4793 29.304 49.6549C28.9253 50.1229 28.5175 50.6348 28.5175 51.2637C28.5175 51.4246 28.6777 51.5563 28.8379 51.5124ZM33.6152 53.0042C33.7317 53.0481 33.8774 52.9604 33.9065 52.8433C33.9211 52.7702 33.9211 52.6825 33.9356 52.6093C33.9502 52.4923 34.023 52.3753 34.0813 52.2583C34.1832 52.0535 34.3143 51.8634 34.46 51.6879C34.6348 51.4977 34.3726 51.2199 34.1687 51.3954C33.8919 51.6586 32.9161 52.7556 33.6152 53.0042ZM19.6038 48.2946C19.7203 48.3239 19.8077 48.2508 19.8514 48.1484C19.9533 47.8997 20.0699 47.6803 20.2446 47.4902C20.3903 47.3293 20.1718 47.0953 20.0116 47.2562C19.7786 47.4756 19.5746 47.7535 19.4581 48.046C19.429 48.1484 19.5164 48.2654 19.6038 48.2946ZM30.2798 51.5563C30.2798 51.5416 30.2944 51.527 30.2944 51.5124C30.309 51.4831 30.309 51.4539 30.2944 51.4246C30.3381 51.0151 30.6148 50.6494 30.7896 50.2692C30.8916 50.0498 30.5857 49.8596 30.4546 50.079C30.207 50.4885 29.7409 50.9566 29.7846 51.4831C29.8138 51.761 30.1925 51.8488 30.2798 51.5563ZM37.2273 54.0573C37.3875 54.0573 37.4312 53.8964 37.4603 53.7794C37.504 53.6332 37.5332 53.4723 37.5332 53.326C37.5332 53.0481 37.1108 53.0481 37.0962 53.326C37.0817 53.4723 37.038 53.6039 37.0088 53.7502C37.0088 53.8672 37.0525 54.0427 37.2273 54.0573ZM36.2951 53.7648C36.4554 53.8379 36.6301 53.7502 36.6447 53.56C36.6593 53.3406 36.6447 53.1798 36.7321 52.975C36.8049 52.7702 36.9069 52.5947 36.9651 52.3899C37.038 52.1413 36.6447 51.9658 36.5428 52.2144C36.3825 52.5801 35.6834 53.4723 36.2951 53.7648ZM55.9578 41.552C55.6228 42.6928 55.3315 43.8337 55.2441 45.0184C55.1713 45.9252 55.0839 47.1538 55.4771 48.0021C55.5062 48.0752 55.6519 48.0899 55.6956 48.0021C56.0451 47.1977 55.7393 46.1446 55.7684 45.2817C55.7975 44.0531 56.0597 42.8391 56.3656 41.6544C56.4238 41.4057 56.0306 41.3034 55.9578 41.552ZM35.0571 53.0481C35.1008 52.6971 35.2028 52.4631 35.4358 52.1998C35.6252 51.995 35.3339 51.6879 35.13 51.8927C34.8095 52.1998 34.5474 52.5801 34.5474 53.0481C34.5328 53.3845 35.0134 53.3699 35.0571 53.0481ZM31.5033 51.9512C31.4742 51.761 31.6053 51.5124 31.6926 51.3515C31.7946 51.1467 31.9257 50.9712 32.0422 50.7811C32.1733 50.5617 31.8529 50.4008 31.7072 50.5909C31.4305 50.9712 30.8187 51.6148 31.0663 52.1413C31.1974 52.3753 31.547 52.1852 31.5033 51.9512ZM32.7559 52.4484C32.8578 52.112 33.0326 51.761 33.2802 51.4977C33.4404 51.3222 33.1928 51.0736 33.018 51.2345C32.7413 51.5124 32.3626 51.9804 32.3772 52.4046C32.3772 52.624 32.6831 52.6678 32.7559 52.4484ZM13.5593 46.1007C13.6322 45.8667 13.6904 45.6327 13.8506 45.4426C14.0109 45.267 13.7632 45.0184 13.5885 45.1793C13.37 45.3987 13.2535 45.6912 13.137 45.9837C13.0496 46.247 13.472 46.364 13.5593 46.1007ZM46.7964 22.2602C47.1606 22.3479 47.3353 22.0408 47.3499 21.719C47.3499 21.5728 47.2043 21.4996 47.0877 21.5728C46.8984 21.6751 46.9275 21.5289 46.8984 21.3534C46.8547 21.1047 46.8401 20.8561 46.8693 20.6074C46.913 20.1248 47.044 19.6567 47.2334 19.218C47.3499 18.9547 46.9712 18.7207 46.8401 18.9839C46.4469 19.7591 46.141 20.7391 46.3158 21.6166C46.3595 21.8799 46.5051 22.2017 46.7964 22.2602ZM44.8884 23.3279C45.238 23.3133 45.3254 22.9915 45.2817 22.7136C45.2671 22.6112 45.136 22.582 45.0632 22.6258C44.903 22.7136 44.903 22.6112 44.8739 22.4211C44.8302 22.1432 44.8593 21.8507 44.903 21.5728C44.9904 20.9438 45.1797 20.3588 45.4856 19.803C45.6167 19.5544 45.2526 19.3203 45.0923 19.569C44.5826 20.4173 44.0291 21.7483 44.3204 22.7429C44.3932 22.9915 44.5826 23.3279 44.8884 23.3279ZM48.6462 21.5581C48.8064 21.485 48.8647 21.3972 48.9375 21.2364C48.9812 21.1486 48.9666 21.0316 48.8792 20.9877C48.7918 20.9438 48.7336 20.9292 48.6753 20.9292C48.5442 20.5051 48.6753 19.9493 48.7481 19.569C48.8501 19.0863 48.9812 18.6037 49.156 18.1356C49.2579 17.8431 48.821 17.7407 48.7044 18.004C48.3258 18.8962 47.6412 20.5197 48.2238 21.4411C48.3112 21.5874 48.486 21.6313 48.6462 21.5581ZM56.6277 24.4687C56.9919 23.5034 57.1666 22.4211 57.6618 21.4996C57.7638 21.3095 57.4871 21.1486 57.3851 21.3387C56.9482 22.1286 56.788 23.0207 56.4675 23.8544C56.0597 24.9221 55.6519 25.9898 55.3023 27.0722C54.9382 28.2276 54.5595 29.3685 54.0789 30.4801C53.6711 31.4307 53.1467 32.3668 52.8991 33.376C52.87 33.493 53.0302 33.5662 53.103 33.4638C54.2245 31.694 54.9673 29.5586 55.5791 27.5548C55.8995 26.531 56.2491 25.4926 56.6277 24.4687ZM53.2924 24.147C53.6128 23.2694 53.7002 22.3333 54.1371 21.4996C54.2245 21.3387 53.9915 21.2071 53.8895 21.3534C53.4817 22.0847 53.3361 22.8891 53.0739 23.6789C52.7535 24.6881 52.2728 25.6388 51.9378 26.6334C51.6029 27.5841 51.2533 28.5348 50.9037 29.4855C50.7144 29.9974 50.4959 30.5093 50.3211 31.0212C50.1609 31.46 50.0881 31.9427 49.8551 32.3522C49.7968 32.4546 49.9279 32.5423 50.0007 32.4692C50.5833 31.9573 50.7581 31.0651 51.0203 30.3777C51.3844 29.3977 51.7631 28.4031 52.0835 27.4086C52.4622 26.297 52.8991 25.2293 53.2924 24.147ZM34.8969 23.4303C34.9406 23.3864 34.9552 23.2986 34.926 23.2401C34.8095 23.0646 34.6639 23.0207 34.5911 22.8014C34.5037 22.5088 34.5765 22.1139 34.6056 21.8214C34.6784 21.2949 34.8241 20.7976 34.9843 20.3003C35.0571 20.0516 34.6784 19.9493 34.5911 20.1979C34.3435 20.9146 34.0813 21.6751 34.0376 22.4211C34.023 22.7136 34.0376 23.0939 34.2415 23.3279C34.4163 23.518 34.7221 23.635 34.8969 23.4303ZM6.75753 42.1224C6.84492 42.0347 6.87405 41.9323 6.87405 41.8153C6.87405 41.7568 6.78666 41.7568 6.80123 41.8153C6.80123 41.9177 6.80123 42.0054 6.7284 42.0932C6.68471 42.1078 6.7284 42.1517 6.75753 42.1224ZM59.4096 36.2427C59.5262 36.3451 59.7009 36.272 59.7009 36.1257C59.7155 35.6431 60.0942 35.1165 60.3418 34.7216C60.6185 34.2828 60.9098 33.8733 61.2157 33.4492C61.3905 33.2005 60.9972 32.9811 60.8224 33.2151C60.4292 33.7417 60.0359 34.2682 59.6864 34.824C59.4825 35.1458 58.9873 35.8771 59.4096 36.2427ZM18.5988 47.812C18.7444 47.5341 18.8755 47.2269 18.9629 46.9198C19.0357 46.6565 18.6571 46.5688 18.5697 46.8174C18.4531 47.0953 18.2638 47.3439 18.1764 47.6365C18.1036 47.8851 18.4823 48.0606 18.5988 47.812ZM32.785 22.7136C32.8433 22.699 32.887 22.6258 32.8724 22.5673C32.8141 22.3918 32.7267 22.2456 32.6976 22.0554C32.6685 21.7775 32.7413 21.4704 32.7996 21.2071C32.9015 20.7537 33.0763 20.3003 33.0909 19.8323C33.0909 19.5836 32.7267 19.5836 32.6976 19.8323C32.6831 20.1102 31.6781 23.1085 32.785 22.7136ZM60.9972 35.8478C61.2885 35.9795 61.3176 35.6284 61.3905 35.4237C61.5361 34.9849 61.8565 34.6046 62.1478 34.2536C62.3372 34.0196 62.0022 33.6978 61.8274 33.9318C61.4342 34.4291 60.939 34.9849 60.9098 35.6577C60.8953 35.7308 60.939 35.8186 60.9972 35.8478ZM57.5745 37.2519C57.6473 37.2812 57.7201 37.2227 57.7347 37.1642C57.9531 36.4914 58.1279 35.8478 58.4338 35.1897C58.8999 34.1805 59.4096 33.2005 60.0214 32.2644C60.1816 32.0304 59.8029 31.8257 59.6572 32.045C59.3368 32.5131 56.3219 36.857 57.5745 37.2519ZM11.0105 44.5942C11.1561 44.3017 11.2727 44.0238 11.4329 43.7459C11.5348 43.5558 11.2727 43.4241 11.1561 43.585C10.9668 43.8483 10.7192 44.1116 10.6172 44.4333C10.559 44.6527 10.9085 44.8136 11.0105 44.5942ZM14.8265 46.4517C14.9867 46.2177 15.1032 45.9545 15.2634 45.7058C15.3945 45.4864 15.0741 45.3109 14.9284 45.5011C14.7682 45.7351 14.608 45.9691 14.4624 46.2177C14.2876 46.4664 14.6663 46.6858 14.8265 46.4517ZM11.9426 45.0623C12.0446 44.8429 12.1174 44.6381 12.2776 44.448C12.4233 44.3017 12.2048 44.0823 12.0592 44.2286C11.8552 44.4187 11.7096 44.6674 11.6368 44.9306C11.5931 45.1061 11.8552 45.2524 11.9426 45.0623ZM7.38382 42.532C7.38382 42.3272 7.45665 42.1517 7.52947 41.9762C7.6023 41.8153 7.38382 41.6836 7.29643 41.8445C7.17991 42.0639 7.09253 42.2833 7.0634 42.5466C7.03427 42.7367 7.36926 42.7367 7.38382 42.532ZM15.948 46.8759C16.1519 46.6273 16.2393 46.2762 16.4141 45.9983C16.5306 45.7936 16.2247 45.6181 16.0936 45.8082C15.9043 46.0715 15.7149 46.3786 15.5984 46.6711C15.511 46.8613 15.8169 47.0368 15.948 46.8759ZM16.9238 47.7096C17.186 47.695 17.2297 47.4317 17.3316 47.2269C17.4336 47.0075 17.5501 46.7881 17.6812 46.5834C17.8269 46.364 17.4773 46.1592 17.3316 46.3786C17.186 46.5834 17.0695 46.7881 16.953 47.0075C16.851 47.1977 16.6617 47.4171 16.7927 47.6365C16.8219 47.6803 16.8801 47.7242 16.9238 47.7096ZM12.8311 45.6034C12.8894 45.3694 12.9039 45.15 13.0641 44.9599C13.2098 44.7844 12.9767 44.5357 12.8165 44.7112C12.5981 44.916 12.4378 45.2524 12.467 45.5742C12.4961 45.7497 12.7874 45.8228 12.8311 45.6034ZM8.65097 43.3218C8.76749 43.117 8.82575 42.8976 8.98596 42.7075C9.13161 42.5466 8.89857 42.3126 8.73836 42.4588C8.51989 42.6636 8.34511 42.9269 8.30141 43.2194C8.28685 43.4241 8.56358 43.468 8.65097 43.3218ZM7.77708 43.0877C7.98098 43.1316 8.01011 42.8245 8.06837 42.6928C8.15576 42.5027 8.28685 42.3418 8.35967 42.1371C8.4325 41.9323 8.12663 41.8592 8.03924 42.0493C7.96642 42.2394 7.79164 42.3857 7.70425 42.5758C7.63143 42.7221 7.5586 43.0439 7.77708 43.0877ZM9.07335 43.7167C9.10248 43.7605 9.14618 43.7752 9.18987 43.7605C9.32095 43.7167 9.37921 43.5558 9.42291 43.4388C9.48117 43.3071 9.55399 43.1901 9.65595 43.0877C9.78703 42.9415 9.58312 42.7367 9.43747 42.8684C9.32096 42.9854 9.219 43.1024 9.14618 43.2486C9.07335 43.3656 8.9714 43.585 9.07335 43.7167ZM10.1366 44.1408C10.2094 43.8922 10.3259 43.6582 10.3988 43.4095C10.4425 43.234 10.1803 43.1024 10.0929 43.2779C9.97638 43.5412 9.74334 43.7752 9.74334 44.0969C9.74334 44.3163 10.0783 44.3748 10.1366 44.1408ZM78.7227 39.4312C78.1401 38.5683 76.8438 38.071 75.8243 37.8809C75.6641 37.6761 75.4165 37.5298 75.1397 37.5883C74.9067 37.1642 74.8193 36.5938 74.7902 36.1404C74.7028 35.2189 74.6445 34.239 74.8484 33.3468C75.0232 32.5716 75.0669 31.7671 75.2563 30.992C75.4019 30.4069 75.6058 29.8511 75.7952 29.2807C75.9262 29.2076 76.0573 29.1345 76.1884 29.0613C76.6399 28.8127 77.0477 28.4909 77.4992 28.213C77.9216 27.9497 78.3149 27.6865 78.6499 27.3062C79.0868 26.7797 78.781 26.0776 78.111 26.0045C76.4943 25.8436 75.0523 25.0099 73.5813 24.381C71.8626 23.6643 70.1731 22.9037 68.469 22.1724C67.8282 21.8945 67.1873 21.6459 66.5464 21.3826C66.4736 19.8176 66.1386 18.3111 65.0026 17.1118C64.8715 16.9802 64.7404 16.8485 64.5947 16.7315C65.2939 16.4536 65.993 16.1757 66.663 15.854C67.1582 15.6199 67.6242 15.342 68.134 15.1227C68.5855 14.9179 69.0079 14.757 69.2409 14.289C70.1148 12.607 67.3766 11.3052 66.1823 10.9688C64.0121 10.3399 61.8565 9.79876 59.7592 8.9797C57.5162 8.10213 55.2441 7.28307 53.0448 6.33237C50.962 5.42556 48.8355 4.57724 46.7673 3.62655C45.7623 3.15851 44.7282 2.73435 43.6796 2.3687C42.5872 2.00305 41.3929 1.65202 40.3733 1.09623C39.7179 0.745206 39.1936 0.321049 38.509 0.13091C38.0575 -0.20549 37.2273 -0.000724908 37.2273 0.73058V0.745206C35.2902 1.65202 33.1928 2.20782 31.1829 2.92449C29.0273 3.68505 26.9008 4.50411 24.818 5.41093C22.6333 6.36163 20.5068 7.42933 18.2929 8.3069C16.3995 9.05283 14.4624 9.72563 12.5689 10.5008C11.4474 10.9688 9.93268 11.627 9.65595 12.9726C9.30639 14.6692 11.36 15.9417 12.5835 16.5999C14.7537 17.7554 17.0258 18.6475 19.327 19.4812C19.1668 21.3534 19.2979 23.2548 19.3125 25.1415C18.2055 25.4194 17.1714 26.0045 16.181 26.5456C15.0304 27.1746 13.9235 27.8766 12.802 28.5494C10.4716 29.9389 8.0975 31.2845 5.88364 32.8641C4.00477 34.2097 2.22785 35.7454 1.12092 37.8077C0.0139843 39.8554 -0.364703 42.3564 0.334412 44.6089C1.45591 48.2069 5.00974 50.0059 8.31598 51.1467C12.9767 52.7556 17.7249 54.1304 22.4439 55.5638C25.3278 56.4414 28.1971 57.3921 31.0663 58.3428C33.8482 59.2642 36.601 60.3027 39.1207 61.8384C39.2955 61.9408 39.4557 61.97 39.6014 61.9554C39.7179 62.0285 39.8781 62.0432 40.0238 61.97C41.5531 61.1802 43.0241 60.2734 44.5243 59.4251C46.1119 58.5329 47.7577 57.7431 49.3453 56.8509C52.5059 55.1104 55.6956 53.4576 58.8999 51.8341C62.2061 50.1521 65.4832 48.397 68.7457 46.6419C70.2751 45.8228 71.8044 44.9891 73.3483 44.1993C74.0765 43.8337 74.8047 43.4534 75.4747 43C76.0573 42.6051 76.5962 42.2394 77.2225 41.9469C78.2858 41.5081 79.5529 40.6744 78.7227 39.4312ZM74.2658 30.8603C74.0328 31.4015 73.9308 31.9427 73.7561 32.4985C73.6104 32.9665 73.4065 33.4345 73.3337 33.9172C73.188 34.9849 73.2317 36.1404 73.4065 37.1934C73.4648 37.5445 73.5813 37.9686 73.7706 38.3196C72.9696 38.7877 72.1685 39.2703 71.382 39.7676C71.615 39.0802 71.6296 37.7785 71.6587 37.5445C71.717 36.6961 71.8044 35.8478 71.9355 34.9995C72.0228 34.3998 72.0957 33.8002 72.2268 33.2151C72.3578 32.6301 72.5617 32.0743 72.5763 31.4746C72.5909 31.1967 72.1831 31.2114 72.1539 31.4746C72.0957 32.0743 71.8481 32.6155 71.7024 33.2005C71.5568 33.7417 71.4839 34.2975 71.382 34.8533C71.2509 35.6138 71.1198 36.3744 71.0761 37.1349C71.047 37.6761 71.0033 38.2173 70.9596 38.7584C70.9305 39.0217 70.9159 39.285 70.8868 39.5629C70.8868 39.6506 70.8431 40.0455 70.8722 39.987C70.8577 40.0309 70.8431 40.0748 70.8577 40.104C70.4498 40.3527 70.042 40.6159 69.6342 40.8646C69.7362 40.455 69.7653 40.0163 69.7944 39.6067C69.8672 38.7877 69.8964 37.9832 69.9546 37.1642C70.0711 35.6138 70.0275 33.9903 70.6537 32.5423C70.6829 32.4692 70.6683 32.3961 70.6246 32.3376C71.3674 31.8549 72.1102 31.3576 72.8822 30.9188C73.4939 30.5678 74.1202 30.2314 74.7319 29.8804C74.5717 30.1875 74.4115 30.5093 74.2658 30.8603ZM67.1727 34.1512C67.6242 34.1805 67.8718 33.9172 68.2651 33.6832C68.4108 33.5954 68.5564 33.5223 68.702 33.4492C68.5564 34.0196 68.3671 34.6046 68.236 35.175C68.1049 35.7893 68.0029 36.4036 67.9301 37.0179C67.8427 35.9795 67.566 35.0873 67.1727 34.1512ZM67.5369 40.6306C67.464 41.1864 67.3621 41.7421 67.2893 42.2979C66.9543 42.4881 66.6338 42.6782 66.2843 42.8537C66.5464 42.4296 66.8377 42.02 67.0853 41.5813C67.2747 41.2741 67.4203 40.9523 67.5369 40.6306ZM68.0321 41.1425C68.1777 40.0894 68.2505 39.0217 68.3525 37.9686C68.4544 36.974 68.5418 35.9941 68.7166 35.0141C68.8186 34.4437 68.9496 33.8587 69.0225 33.2736C69.2701 33.1566 69.5177 33.0396 69.7507 32.8934C69.9255 32.791 70.1003 32.674 70.2751 32.5716C69.7216 33.8002 69.6051 35.1312 69.5031 36.4621C69.4449 37.2373 69.3575 38.0125 69.3138 38.7877C69.2701 39.5775 69.1099 40.3965 69.0953 41.201C68.7457 41.4204 68.4107 41.6251 68.0612 41.8299C68.0321 41.8445 67.9884 41.8738 67.9592 41.8884C67.9884 41.6398 68.0029 41.3765 68.0321 41.1425ZM66.6338 27.8912C66.5756 26.4433 66.4882 25.0099 66.5319 23.5619C66.5464 23.2986 66.5464 23.0207 66.5464 22.7575C67.231 23.05 67.901 23.3571 68.571 23.6643C70.2168 24.4249 71.8626 25.2 73.5376 25.9313C74.4989 26.3555 75.4019 26.8235 76.3632 27.1599C75.9845 27.4232 75.6204 27.6718 75.2126 27.8912C74.2222 28.4324 73.2463 29.0174 72.2559 29.5586C71.28 30.0851 70.3333 30.6848 69.4157 31.2991C68.702 31.7818 67.8864 32.1182 67.1727 32.6008C66.9397 32.6155 66.7212 32.7178 66.5756 32.8934C66.5027 32.7763 66.4008 32.674 66.2697 32.5862C66.7795 31.1236 66.6921 29.3977 66.6338 27.8912ZM65.2065 33.5515C65.2356 33.5808 65.2502 33.6247 65.2939 33.6539C65.3084 33.6539 65.3521 33.6685 65.3812 33.7124C65.4249 33.7417 65.4686 33.7563 65.5269 33.7709C65.4686 33.7563 65.4395 33.7563 65.3958 33.7417C65.4104 33.7563 65.4249 33.7855 65.4249 33.8148C65.4686 33.9611 65.5269 34.1073 65.5997 34.239C65.8036 34.6777 66.0221 35.0726 66.1823 35.5407C66.5027 36.5353 66.561 37.6907 66.4882 38.7292C66.4154 39.7969 65.9347 40.6452 65.3521 41.5081C65.1773 41.7714 65.0171 42.0347 64.8715 42.2979C64.8278 42.1956 64.7841 42.0932 64.7404 41.9908C64.2743 40.8938 63.8082 39.7676 63.5315 38.5975C63.2839 37.5591 63.2256 36.4475 63.5752 35.4237C63.75 34.941 64.0267 34.4437 64.3908 34.0781C64.6239 33.8441 64.9297 33.727 65.2065 33.5515ZM63.4587 44.2871C63.3422 44.3456 63.2402 44.3895 63.1237 44.4333C63.1383 44.2432 63.1237 44.0384 63.1383 43.8337C63.1528 43.4388 63.1674 43.0585 63.2402 42.6782C63.4296 43.2048 63.5606 43.7605 63.4587 44.2871ZM64.8278 20.7098C64.4491 20.5489 64.0704 20.3881 63.6917 20.2125C62.3372 19.6129 61.0409 18.9693 59.5844 18.7353C60.6768 18.2965 61.7837 17.8724 62.8761 17.4336C64.1869 18.1649 64.6676 19.3789 64.8278 20.7098ZM58.696 17.3312C58.5503 17.0826 58.5212 16.8047 58.5357 16.5268C58.6814 16.5414 58.827 16.5706 58.9873 16.5853C59.3514 16.6438 59.7301 16.673 60.1088 16.7169C60.1088 16.7315 60.1088 16.7608 60.1088 16.7754C59.6281 16.9802 59.162 17.1557 58.696 17.3312ZM66.5901 12.6947C66.6484 12.724 66.7066 12.7532 66.7649 12.7971C66.9397 12.9141 67.129 13.0457 67.3038 13.192C67.2747 13.309 67.2601 13.426 67.2456 13.543C67.231 13.6454 67.2164 13.7332 67.2019 13.8356C67.129 13.8648 67.0562 13.8941 66.9834 13.9233C66.6775 14.0549 66.3862 14.2012 66.0804 14.3328C66.1241 13.8209 66.2551 13.1335 66.561 12.7386C66.5756 12.724 66.5901 12.7094 66.5901 12.6947ZM11.5785 13.9818C11.2727 13.6893 11.025 13.426 11.3163 13.0311C11.4329 12.8702 11.6076 12.724 11.7824 12.607C11.7387 13.0604 11.6805 13.5284 11.5785 13.9818ZM19.3125 17.7992C18.861 17.6383 18.424 17.4628 17.9725 17.3019C17.9434 17.1703 17.9142 17.0387 17.9288 16.8924C17.9579 16.3951 18.089 15.8101 18.3512 15.3859C18.4677 15.1812 18.1618 14.991 18.0308 15.1958C17.7686 15.6053 17.6375 16.1026 17.5501 16.5706C17.521 16.7315 17.4919 16.9217 17.4919 17.1118C17.1569 16.9802 16.8219 16.8485 16.5014 16.7169C16.4578 16.7023 16.3995 16.673 16.3558 16.6584C16.2684 16.0148 16.3995 15.342 16.7345 14.7863C16.851 14.5961 16.5597 14.4352 16.4432 14.6107C16.283 14.8448 15.8752 15.8393 15.9043 16.4683C15.5839 16.3366 15.2634 16.205 14.943 16.0587C14.943 16.0441 14.9284 16.0295 14.9284 16.0002C14.8847 15.7223 14.9284 15.4444 14.9867 15.1812C15.0741 14.7863 15.2197 14.406 15.2926 13.9964C15.3363 13.7771 15.0158 13.6893 14.9576 13.9087C14.8556 14.3182 14.4332 15.1665 14.4187 15.8101C14.1419 15.6784 13.8798 15.5468 13.603 15.4006C13.603 15.3128 13.6176 15.2397 13.6176 15.1519C13.6613 14.6692 13.7487 14.1866 13.8215 13.6893C13.8506 13.4699 13.5302 13.3821 13.4865 13.6015C13.3991 14.0696 13.3117 14.5376 13.2389 15.0056C13.2243 15.0642 13.2243 15.1227 13.2098 15.1812C12.9913 15.0495 12.7728 14.9179 12.5544 14.7716C12.5835 14.5376 12.5981 14.289 12.6418 14.0696C12.7291 13.6454 12.8311 13.2213 12.8894 12.7971C12.9185 12.6216 12.6563 12.5485 12.6272 12.724C12.5252 13.2505 12.2631 13.8941 12.1902 14.5084C12.0883 14.4352 12.0009 14.3621 11.9135 14.2743C12.0446 13.6015 12.03 12.6362 12.0155 12.4753C12.0155 12.4607 12.0155 12.4461 12.0009 12.4315C12.2776 12.2706 12.5835 12.1536 12.8311 12.0365C14.6954 11.2175 16.6325 10.5739 18.526 9.79876C20.7253 8.90657 22.8372 7.83886 24.9928 6.85891C27.163 5.86434 29.3623 4.91364 31.5907 4.03608C33.6152 3.24627 35.596 2.54422 37.4021 1.3595C37.5477 1.50576 37.7516 1.59352 37.9555 1.60815C38.3779 1.6374 38.742 1.94455 39.0916 2.16394C39.4557 2.39795 39.8199 2.58809 40.2277 2.74898C41.2618 3.15851 42.2959 3.53879 43.3446 3.88982C45.2963 4.56262 47.1314 5.51331 49.0686 6.21536C51.0348 6.93204 52.9283 7.85349 54.8945 8.58479C56.9773 9.35997 59.0455 10.179 61.1574 10.8518C62.1041 11.159 63.0509 11.4515 63.9976 11.7587C64.7113 11.9927 65.4978 12.1682 66.1969 12.49C65.8765 12.7971 65.6871 13.309 65.5415 13.7186C65.4541 13.9672 65.3376 14.3036 65.3521 14.6107C64.9734 14.7863 64.6093 14.9471 64.2161 15.108C64.2015 14.8155 64.3617 14.3913 64.42 14.2012C64.5365 13.7771 64.6821 13.3821 64.7987 12.958C64.8569 12.7386 64.5219 12.5777 64.4345 12.7971C64.1724 13.3968 63.8374 13.9672 63.6626 14.5961C63.6189 14.7716 63.5752 15.0934 63.6043 15.3567C63.3276 15.4737 63.0363 15.5907 62.7596 15.6931C62.7304 15.6784 62.7013 15.6784 62.6722 15.6638C62.8033 14.991 63.0363 14.3328 63.0509 13.6308C63.0509 13.3675 62.6722 13.3821 62.6576 13.6308C62.6139 14.289 62.2789 14.8594 62.075 15.4883C61.9148 15.4444 61.7546 15.4152 61.5944 15.3859C61.3176 15.342 61.0409 15.2982 60.7642 15.2543C60.8079 14.9179 60.8661 14.5815 60.9827 14.2743C61.0555 14.0696 60.7496 13.9526 60.6477 14.1281C60.4729 14.4352 60.3418 14.8009 60.2398 15.1812C59.7592 15.1227 59.264 15.0641 58.7833 15.0203C58.827 14.9471 58.8562 14.874 58.9144 14.8155C59.0746 14.6107 58.8125 14.3328 58.6231 14.523C58.5503 14.6107 58.4484 14.7716 58.3464 14.9764C57.9823 14.9325 57.6182 14.8886 57.254 14.8448C54.108 14.4206 50.962 14.0842 47.7868 13.8502C44.3058 13.6015 40.854 13.2213 37.3584 13.4992C37.1545 13.5138 37.1108 13.7917 37.3147 13.8648C38.5964 14.3182 39.8781 14.3621 41.2181 14.4937C42.6746 14.64 44.1311 14.874 45.5876 15.0056C48.6025 15.2982 51.6465 15.5029 54.6469 15.9417C55.2441 16.0295 55.8558 16.1172 56.453 16.205C56.2345 16.9655 56.0888 17.8724 56.4384 18.1503C55.8704 18.3696 55.2878 18.6037 54.7197 18.8377C54.7197 18.7207 54.6906 18.589 54.6906 18.472C54.7052 17.7846 54.778 16.9655 55.0402 16.3366C55.1421 16.1026 54.7489 15.9417 54.6324 16.1611C54.3411 16.7608 54.1954 17.5067 54.0935 18.1649C54.0643 18.3404 54.0498 18.7646 54.1226 19.0863C53.5837 19.3057 53.0448 19.5397 52.5059 19.7738H52.4913C52.302 19.7591 52.3311 19.8469 52.3457 19.6275C52.3602 19.5105 52.3457 19.3789 52.3457 19.2472C52.4039 18.589 52.5496 17.887 52.8263 17.2727C52.9283 17.024 52.5787 16.8047 52.4476 17.0533C52.0689 17.8285 51.6757 18.8231 51.7339 19.7153C51.7485 19.8469 51.7922 19.9639 51.8505 20.0663C51.7631 20.1102 51.6757 20.1394 51.6029 20.1833C51.3116 20.3149 51.0348 20.4466 50.7435 20.5782C50.7581 20.4758 50.6707 20.3588 50.5542 20.4027C49.7385 20.7098 50.4814 18.238 50.6416 17.887C50.7435 17.6383 50.394 17.419 50.2629 17.6676C49.8842 18.4135 49.4181 19.5251 49.6075 20.3734C49.6657 20.6221 49.8114 20.8268 50.0007 20.9438C48.617 21.602 47.2625 22.2894 45.8788 22.9769C44.9613 23.4303 44.0145 23.8691 43.0241 24.2055C43.0533 24.1908 43.0824 24.1762 43.097 24.147C43.228 24.0007 43.3009 23.8837 43.3446 23.6789C43.3737 23.5327 43.2572 23.4303 43.1261 23.4595C43.0533 23.4742 42.995 23.4888 42.9513 23.518C42.6163 22.8452 43.2717 21.368 43.5193 20.8268C43.6359 20.5636 43.2572 20.3295 43.1261 20.5928C42.6891 21.4411 41.6842 23.4742 42.7328 24.1908C42.7911 24.2347 42.8785 24.2347 42.9513 24.2201C42.4852 24.381 42.0191 24.5126 41.5531 24.6004C41.5531 24.5857 41.5676 24.5565 41.5676 24.5419C41.5822 24.4102 41.4366 24.3078 41.3346 24.4102C40.8977 24.8198 41.0724 23.0354 41.1016 22.9037C41.189 22.3772 41.3492 21.8653 41.5094 21.3387C41.5968 21.0608 41.1744 20.9438 41.0724 21.2217C40.752 22.1432 40.1403 23.518 40.4898 24.498C40.519 24.5857 40.5627 24.6735 40.6209 24.7466C40.5335 24.7613 40.4607 24.7613 40.3733 24.7759C40.082 24.8051 39.7907 24.8051 39.4994 24.7905C39.4849 24.7759 39.4849 24.7759 39.4703 24.7613C39.4266 24.7027 39.412 24.7027 39.3975 24.7174C39.3392 24.4102 39.3683 24.0885 39.3975 23.7813C39.4557 23.1085 39.5577 22.4211 39.747 21.7775C39.8199 21.5143 39.412 21.3973 39.3246 21.6605C39.077 22.4065 38.9023 23.2255 38.8149 24.0153C38.8003 24.1323 38.7857 24.4541 38.844 24.7466C38.4944 24.7174 38.1449 24.6589 37.7953 24.5857C37.7808 24.5711 37.7808 24.5419 37.7662 24.5272C37.4603 24.1323 37.4749 23.8252 37.5623 23.3133C37.6351 22.8745 37.7516 22.3626 37.9847 21.9677C38.1303 21.719 37.7516 21.4996 37.606 21.7483C37.2419 22.3187 37.038 23.1231 36.9797 23.7959C36.9651 23.9276 36.9943 24.1908 37.0671 24.4102C36.8486 24.3517 36.6156 24.2932 36.3971 24.2201C36.4117 24.2201 36.4262 24.2055 36.4262 24.2055C36.4991 24.1616 36.5282 24.0738 36.5136 24.0007C36.4554 23.7959 36.266 23.6789 36.1932 23.4595C36.0912 23.1085 36.1786 22.6697 36.2369 22.3187C36.3243 21.7775 36.5282 21.2364 36.5428 20.6806C36.5428 20.4173 36.1495 20.4173 36.1349 20.6806C36.0767 21.485 35.6689 22.2309 35.6106 23.0354C35.596 23.2548 35.6543 23.7374 35.8291 24.0299C35.3047 23.8544 34.795 23.6643 34.2852 23.4595C33.2656 23.0646 32.2461 22.6258 31.2266 22.2017C31.2266 22.1724 31.212 22.1432 31.212 22.0993C31.1537 21.8068 30.9935 21.602 30.9935 21.2802C30.979 20.6221 31.1392 19.9054 31.4013 19.3057C31.5033 19.0717 31.1829 18.8816 31.0663 19.101C30.7605 19.7153 30.2507 21.0609 30.5274 21.8945C30.1925 21.7483 29.8429 21.6166 29.5079 21.4704C29.3186 20.7098 29.4351 19.686 29.8283 19.0132C29.9594 18.7792 29.6099 18.5598 29.4642 18.7938C29.1729 19.2472 29.0564 19.8323 28.969 20.3588C28.9253 20.6221 28.8816 20.9438 28.9107 21.2364C28.8379 21.2071 28.7797 21.1779 28.7068 21.1486C28.3864 21.017 28.066 20.9 27.7456 20.783C27.5562 19.9639 27.9058 18.9986 28.0805 18.2234C28.1388 17.9747 27.7747 17.8724 27.7019 18.121C27.5271 18.7499 27.0756 19.7591 27.1484 20.5636C26.7697 20.4173 26.391 20.2857 26.0123 20.154C26.0706 19.3496 26.2162 18.5452 26.2162 17.7407C26.2162 17.4775 25.823 17.4775 25.8084 17.7407C25.7793 18.4867 25.5899 19.218 25.5026 19.9639C25.1239 19.8323 24.7452 19.7006 24.3665 19.569C24.3956 18.8523 24.483 18.1941 24.7306 17.4921C24.818 17.2727 24.4684 17.1849 24.3811 17.3897C24.1189 18.0186 23.9441 18.7061 23.8859 19.3935C23.5072 19.2618 23.143 19.1302 22.7644 18.9986C22.7207 18.8669 22.7352 18.7353 22.7352 18.6037C22.7498 17.9601 22.9828 17.3458 22.9974 16.7023C22.9974 16.439 22.6187 16.4536 22.6041 16.7023C22.5604 17.3312 22.2837 17.9309 22.24 18.5598C22.24 18.6183 22.24 18.706 22.24 18.8231C21.9342 18.7207 21.6283 18.6037 21.3224 18.5013C21.3224 18.5013 21.3224 18.5013 21.3224 18.4867C21.2933 18.3843 21.2059 18.2965 21.1768 18.1941C21.1331 18.0479 21.1622 17.8724 21.1768 17.7261C21.235 17.0826 21.4972 16.4683 21.5118 15.8247C21.5118 15.6053 21.2059 15.6199 21.1913 15.8247C21.1331 16.4683 20.7981 17.0679 20.7107 17.7115C20.6961 17.8139 20.6816 18.0479 20.7107 18.2673C20.3757 18.1503 20.0407 18.0332 19.7057 17.9016C19.7931 17.7261 19.6766 17.3897 19.6912 17.1849C19.7349 16.5853 19.9096 15.9856 20.0844 15.4152C20.1572 15.1812 19.8077 15.0934 19.7349 15.3128C19.6912 15.5761 19.196 17.1557 19.3125 17.7992ZM57.4871 29.6025C57.123 30.4801 56.6714 31.4015 56.4967 32.3229C55.4771 33.1859 54.1954 33.7709 53.0011 34.2975C51.1076 35.1165 49.1705 35.8186 47.1606 36.2866C42.6891 37.3251 38.3488 36.5353 33.9065 35.7747C31.7072 35.3944 29.4933 34.9995 27.3377 34.4145C25.7065 33.9757 23.9732 33.4345 22.6624 32.3229C20.8272 30.7726 20.7253 28.5494 20.7981 26.3116C20.8564 24.1908 20.769 21.9092 20.3029 19.803C21.8905 20.3588 23.478 20.9 25.051 21.4996C27.2503 22.3187 29.4205 23.1816 31.5616 24.1177C33.5715 24.9953 35.596 25.8875 37.7516 26.3116C41.5385 27.0429 44.8302 25.4633 48.0927 23.7959C47.5975 24.6442 47.1897 25.7412 47.379 26.5749C47.4082 26.6773 47.5392 26.6626 47.5684 26.5749C47.7286 26.0191 47.7723 25.4487 47.9471 24.8929C48.0927 24.4395 48.2821 24.0007 48.5151 23.5912C48.821 23.4303 49.1414 23.2694 49.4473 23.1231C49.0831 23.8398 48.7773 24.5857 48.5297 25.3463C48.2092 26.3555 47.8451 27.5841 48.0927 28.6372C48.1218 28.7395 48.2675 28.7395 48.2966 28.6372C48.5734 27.5987 48.6025 26.5018 48.9083 25.4633C49.1705 24.5857 49.5055 23.7374 49.8842 22.9037C49.957 22.8599 50.0444 22.8306 50.1172 22.7867C50.627 22.5381 51.1368 22.2894 51.6611 22.0554C51.195 23.3864 50.6853 24.6881 50.1901 26.0191C49.7385 27.2331 49.2725 28.6225 49.0977 29.895C49.0831 30.0266 49.2433 30.1144 49.3162 29.9828C50.0444 28.7981 50.1755 27.2623 50.6707 25.9606C51.1659 24.6735 51.5737 23.3718 51.9815 22.0554C51.9961 21.9969 51.9815 21.9384 51.9524 21.9092C53.2924 21.2949 54.6615 20.7244 56.0306 20.1687C55.113 22.1724 54.3702 24.2493 53.6274 26.3262C53.205 27.5256 52.8263 28.7395 52.4185 29.9535C52.0252 31.1529 51.4718 32.3229 51.1368 33.5369C51.1076 33.6685 51.2679 33.7124 51.3407 33.6247C52.0544 32.6886 52.4185 31.4454 52.7972 30.3338C53.1904 29.1637 53.5254 27.979 53.9332 26.8089C54.7343 24.5126 55.4917 22.2017 56.4675 19.9785C56.9627 19.7738 57.4579 19.5836 57.9386 19.3935C57.9095 20.7976 57.9968 22.2017 58.1279 23.5912C58.0551 23.5619 57.9823 23.5912 57.924 23.6789C57.1521 25.0977 56.7006 26.6626 56.0888 28.1545C55.783 28.9297 55.5354 29.7049 55.2878 30.4947C55.011 31.3576 54.6324 32.2059 54.4576 33.0981C54.4284 33.2444 54.6032 33.3175 54.6906 33.2005C55.6519 31.8988 55.8267 30.1144 56.4093 28.6225C57.0064 27.1014 57.4288 25.4926 58.1571 24.0153C58.2153 24.5565 58.2736 25.083 58.3318 25.6242C58.4047 26.2092 58.4484 26.8235 58.4629 27.4086C58.2444 28.1691 57.7784 28.8858 57.4871 29.6025ZM58.4338 28.6225C58.3318 29.544 58.0551 30.4215 57.5016 31.226C57.4434 31.3137 57.3851 31.3869 57.3123 31.4746C57.6036 30.8018 57.8221 30.0851 58.0697 29.427C58.1862 29.1637 58.3027 28.9004 58.4338 28.6225ZM58.0842 17.5652C57.7492 17.6968 57.3997 17.8285 57.0647 17.9601C57.0647 17.9601 57.0647 17.9601 57.0647 17.9455C57.0793 17.8577 57.0356 17.7992 56.9627 17.7846C56.8899 17.4921 56.9627 16.9948 57.0064 16.6876C57.021 16.5706 57.0356 16.4536 57.0501 16.322C57.356 16.3659 57.6473 16.4098 57.9531 16.4536C57.8658 16.9217 57.8803 17.3458 58.0842 17.5652ZM5.62147 34.8386C7.8499 33.0689 10.3551 31.6355 12.7583 30.129C13.9672 29.3831 15.1469 28.5933 16.3558 27.862C17.3171 27.2769 18.3658 26.8089 19.3125 26.1946C19.3125 26.2824 19.3125 26.3701 19.2979 26.4579C19.2105 28.5348 19.327 30.6702 20.6233 32.3961C21.7885 33.9318 23.5363 34.824 25.2986 35.4383C25.3278 35.4529 25.3715 35.4676 25.4006 35.4676C25.3278 35.5553 25.2404 35.6284 25.1676 35.7016C24.9054 35.9502 24.6141 36.1842 24.4248 36.4914C24.3811 36.5499 24.4539 36.623 24.5121 36.5791C24.8471 36.3597 25.1239 36.0526 25.4006 35.7747C25.4734 35.7016 25.5463 35.6138 25.6191 35.5407C25.9541 35.6577 26.3036 35.7601 26.6386 35.8625C26.3619 36.0965 26.056 36.3597 25.9395 36.7108C25.9104 36.7985 26.0123 36.8278 26.0706 36.7839C26.3765 36.5353 26.6532 36.2281 26.959 35.9648C26.959 35.9648 26.959 35.9648 26.9736 35.9502C27.2358 36.0233 27.4834 36.0818 27.7456 36.155C27.7456 36.155 27.7456 36.1696 27.731 36.1696C27.4979 36.4329 27.163 36.7547 27.163 37.1203C27.163 37.2081 27.2649 37.2666 27.3377 37.2227C27.6436 37.0472 27.8475 36.623 28.066 36.3451C28.0951 36.3159 28.1097 36.2866 28.1388 36.2574C28.5321 36.3451 28.9399 36.4329 29.3331 36.5206C29.2457 36.623 29.1729 36.7254 29.0855 36.8132C28.8816 37.0618 28.5903 37.3543 28.634 37.7053C28.634 37.7785 28.7214 37.8516 28.7942 37.7931C29.0855 37.5883 29.2749 37.1934 29.5079 36.9155C29.5953 36.8132 29.6681 36.7108 29.7555 36.6084C30.1488 36.6815 30.542 36.7547 30.9207 36.8278C30.8042 36.9594 30.7022 37.091 30.5857 37.2227C30.3818 37.486 30.1196 37.7639 30.1779 38.1295C30.1925 38.2026 30.2944 38.2465 30.3527 38.2026C30.6585 38.0271 30.8624 37.603 31.0809 37.3251C31.1829 37.1934 31.2848 37.0472 31.3868 36.9155C31.5761 36.9448 31.7509 36.9887 31.9402 37.0179C31.9694 37.0179 31.9839 37.0325 32.0131 37.0325C31.9111 37.1642 31.8092 37.2958 31.7218 37.4274C31.5324 37.7053 31.1537 38.2026 31.3431 38.5537C31.3722 38.6268 31.4596 38.6268 31.5179 38.5975C31.8092 38.4659 31.9257 38.0125 32.0713 37.7492C32.1878 37.5298 32.3189 37.3104 32.4791 37.1203C32.8724 37.1934 33.2511 37.2666 33.6443 37.3251C33.5278 37.4713 33.4259 37.6176 33.3239 37.7785C33.1491 38.0564 32.7559 38.5683 32.8724 38.9193C32.9015 38.9924 32.9743 39.0509 33.0617 39.0217C33.3822 38.9047 33.4696 38.4513 33.6152 38.1734C33.7463 37.9101 33.8919 37.6176 34.0958 37.3982C34.5182 37.4713 34.9406 37.5445 35.363 37.6176C35.2173 37.8077 35.0717 37.9979 34.9406 38.2026C34.7076 38.5537 34.3143 39.0363 34.4454 39.4897C34.4745 39.5775 34.5765 39.6214 34.6493 39.5775C35.0134 39.3581 35.1591 38.8169 35.3776 38.4659C35.5232 38.2026 35.6834 37.954 35.8582 37.7053C36.3534 37.7931 36.8632 37.8662 37.3729 37.9394C37.1836 38.2173 36.9943 38.5098 36.8195 38.8023C36.6447 39.0948 36.266 39.519 36.4117 39.87C36.4408 39.9431 36.4991 39.987 36.5719 39.9578C36.936 39.87 37.0671 39.3435 37.2273 39.0363C37.4166 38.6853 37.6351 38.3343 37.8536 37.9979C38.2323 38.0564 38.6255 38.1002 39.0042 38.1441C38.844 38.3489 38.6838 38.539 38.5381 38.7584C38.4071 38.9486 37.9118 39.636 38.3342 39.7969C38.6692 39.9285 38.9023 39.168 39.0333 38.9778C39.2081 38.7145 39.3829 38.4659 39.5431 38.2173C39.9946 38.2611 40.4461 38.2904 40.9122 38.3196C40.8248 38.422 40.752 38.5244 40.6646 38.6268C40.4461 38.9047 40.082 39.3142 40.2131 39.6945C40.2422 39.7822 40.3296 39.8115 40.4024 39.7676C40.7229 39.6067 40.8977 39.0948 41.1016 38.8023C41.2181 38.6414 41.32 38.4805 41.4366 38.3196C41.8298 38.3343 42.2231 38.3489 42.6163 38.3343C42.5581 38.422 42.4998 38.5098 42.4415 38.5975C42.1939 38.9924 41.8444 39.5336 42.0483 40.0016C42.092 40.0894 42.2085 40.0894 42.2813 40.0309C42.6454 39.7237 42.7474 39.1095 42.9804 38.7145C43.0533 38.5829 43.1406 38.4513 43.228 38.3343C43.665 38.3196 44.1019 38.2904 44.5389 38.2611C44.4078 38.4366 44.2767 38.5975 44.1456 38.773C43.8689 39.168 43.4902 39.6652 43.5922 40.1772C43.6067 40.2503 43.7232 40.3088 43.7815 40.2503C44.1893 39.9578 44.3787 39.3873 44.6408 38.9778C44.8156 38.7145 45.005 38.4513 45.1797 38.2026C45.5439 38.1588 45.8934 38.1003 46.2575 38.0417C46.6071 37.9832 46.9712 37.9101 47.3208 37.8224C46.8693 38.4513 46.3886 39.0802 46.1265 39.8261C46.0973 39.9139 46.2138 40.0163 46.2867 39.9578C46.811 39.5921 47.0586 38.9486 47.379 38.4074C47.5101 38.1734 47.6558 37.954 47.8014 37.72C48.384 37.5737 48.952 37.4128 49.5201 37.2373C49.4181 37.3836 49.3162 37.5152 49.2142 37.6468C48.7044 38.2904 47.9034 39.0802 47.9471 39.9578C47.9471 40.0601 48.0927 40.1333 48.1655 40.0455C48.6753 39.4312 49.0103 38.656 49.5055 38.0125C49.724 37.72 49.957 37.3543 50.2046 37.0033C50.9183 36.7546 51.632 36.4768 52.3311 36.1842C52.1563 36.4182 51.9815 36.6376 51.8068 36.8717C51.5155 37.2812 51.297 37.7346 51.0494 38.1588C50.8309 38.539 50.5833 38.8901 50.4814 39.3288C50.4668 39.4312 50.5687 39.519 50.6561 39.4605C51.3989 38.9632 51.6902 37.954 52.1563 37.2227C52.4767 36.7254 52.8263 36.272 53.1904 35.804C53.6856 35.5846 54.1663 35.3652 54.6469 35.1312C54.4721 35.3944 54.2974 35.6577 54.1226 35.921C53.54 36.7839 52.7535 37.7053 52.5059 38.7438C52.4767 38.8754 52.637 38.9778 52.7389 38.8754C53.4817 38.1295 54.0061 37.0764 54.5887 36.1989C54.9236 35.6869 55.2441 35.1897 55.5499 34.6631C56.3219 34.2243 57.0501 33.7124 57.6764 33.0689C57.2832 33.7417 56.8753 34.3998 56.4967 35.0873C55.9432 36.0965 54.8654 37.1496 54.9673 38.3928C54.9819 38.5098 55.113 38.5244 55.1567 38.422C55.6228 37.2666 56.3947 36.3159 56.9773 35.2189C57.2977 34.6192 57.6473 34.0342 57.9823 33.4345C58.259 32.9372 58.4775 32.3814 58.8999 32.0012C59.0601 31.8549 58.8999 31.6501 58.7251 31.6794C59.5116 30.2607 59.7301 28.5933 59.6427 26.9259C59.497 24.3663 59.0892 21.8653 59.2057 19.2911C59.2057 19.2618 59.2203 19.2326 59.2203 19.1887V19.1741C61.0263 20.2857 62.9489 21.1779 64.9006 22.0262C64.9006 22.3333 64.886 22.6551 64.886 22.9622C64.8278 24.4249 64.8569 25.8728 64.9006 27.3208C64.9297 28.1691 64.9589 29.0174 64.9297 29.8658C64.9006 30.7726 64.7404 31.6501 64.6967 32.5423C64.6967 32.5862 64.6967 32.6301 64.6967 32.674C63.2111 32.9372 62.2644 34.5022 61.9294 36.0087C58.594 38.071 55.2586 40.1186 51.8796 42.1371C49.6949 43.4534 47.4956 44.7551 45.2526 45.9837C44.4369 46.4371 43.6359 46.8759 42.8057 47.2854C42.1939 47.5926 41.8444 47.7827 41.3492 47.929C39.9218 48.3678 38.4653 47.2562 37.1545 46.8174C36.6301 46.6419 36.1058 46.4664 35.596 46.2762C33.688 45.6181 31.7946 44.9306 29.8866 44.2578C25.1239 42.5612 20.3757 40.85 15.5984 39.1826C13.9672 38.6122 12.3359 38.0564 10.7192 37.486C9.07335 36.9009 7.50034 36.0087 5.72342 35.9502C5.18452 35.9356 4.63106 36.0087 4.12129 36.1696C4.58736 35.7016 5.09713 35.2482 5.62147 34.8386ZM62.5993 44.6674C62.1624 44.8575 61.7109 45.0623 61.2739 45.2378C61.4487 43.8337 61.74 42.4734 62.1041 41.084C62.177 40.8061 61.7546 40.6891 61.6818 40.967C61.3613 42.0932 61.0118 43.2048 60.7787 44.3602C60.7205 44.6527 60.6185 45.1354 60.7205 45.4718C60.4146 45.6034 60.1233 45.7351 59.8175 45.8813C59.9777 45.5596 59.9485 45.2232 59.9631 44.8429C59.9777 44.2871 59.9922 43.7313 60.0359 43.1755C60.1233 42.0347 60.3127 40.9085 60.6331 39.8115C60.7205 39.5482 60.3127 39.4312 60.2107 39.6945C59.8466 40.7476 59.599 41.8153 59.4825 42.9122C59.4242 43.468 59.3805 44.0238 59.3659 44.5796C59.3514 45.0623 59.2931 45.5449 59.5262 45.9691C59.5262 45.9837 59.5407 45.9837 59.5553 45.9983C57.6182 46.9344 55.7684 48.0899 53.9041 49.1722C53.7876 49.2307 53.6711 49.3038 53.5691 49.3623C53.8167 48.4409 53.5546 47.2854 53.6128 46.364C53.6711 45.1646 54.0206 44.0092 54.1954 42.8245C54.21 42.7221 54.1517 42.6636 54.0789 42.6197C55.4771 41.786 56.8608 40.9377 58.2444 40.0894C57.9823 41.2595 57.6473 42.4149 57.5016 43.6143C57.4288 44.1993 57.4288 44.7697 57.4288 45.3548C57.4288 45.8667 57.3851 46.364 57.6036 46.832C57.6473 46.9198 57.7784 46.9198 57.8221 46.832C58.259 45.9106 57.9386 44.682 58.0405 43.6874C58.1716 42.4442 58.4629 41.2156 58.696 40.0016C58.7105 39.9431 58.696 39.8846 58.6668 39.8408C59.7155 39.1972 60.7787 38.539 61.8274 37.8955C61.9148 38.9632 62.177 40.0163 62.5411 41.0255C62.6576 41.3326 62.8033 41.669 62.9635 42.0054C62.5993 42.766 62.41 43.8337 62.5993 44.6674ZM53.1759 49.5817C52.6078 49.9035 52.0398 50.2399 51.4863 50.5763C51.4863 50.3277 51.4572 50.079 51.4426 49.8304C51.4135 49.1722 51.3989 48.5433 51.4572 47.8851C51.5155 47.2269 51.5592 46.5541 51.6174 45.896C51.6757 45.2524 51.865 44.6235 51.8796 43.9653C51.8796 43.9653 51.8796 43.9653 51.8796 43.9507C52.535 43.5558 53.1904 43.1755 53.8459 42.7806C53.5546 43.9361 53.1613 45.0476 53.0448 46.247C52.9574 47.2269 52.8117 48.6164 53.1759 49.5817ZM50.86 49.8158C50.8746 50.1668 50.86 50.5617 50.9329 50.9127C50.7872 51.0005 50.6416 51.0882 50.4959 51.1906C49.5783 51.7756 48.6462 52.2729 47.6849 52.7556C47.9471 51.761 47.8451 50.6056 47.9325 49.5964C48.0345 48.397 48.2529 47.2123 48.3986 46.013C48.821 45.7643 49.2288 45.5303 49.6512 45.2817C49.3599 46.364 49.2142 47.4756 49.1268 48.6018C49.0686 49.2746 48.7773 50.7518 49.389 51.2199C49.4764 51.2784 49.6075 51.2199 49.622 51.1175C49.7822 50.2838 49.6075 49.3331 49.6657 48.4848C49.7385 47.3147 49.8551 46.1446 50.1318 45.0038C50.4668 44.799 50.8018 44.6089 51.1368 44.4041C51.2533 44.331 51.3698 44.2725 51.4863 44.1993C51.4135 44.7697 51.2096 45.3109 51.1368 45.8813C51.0494 46.5395 50.9766 47.2123 50.9037 47.8705C50.8163 48.5287 50.8164 49.1576 50.86 49.8158ZM47.3936 52.8872C47.3062 52.9311 47.2188 52.975 47.1314 53.0189C46.7236 53.2236 46.3158 53.443 45.9225 53.677C46.0391 52.6825 46.0245 51.6294 46.0682 50.6494C46.1119 49.9035 46.2575 49.1576 46.3012 48.4116C46.3304 47.9875 46.3012 47.578 46.3595 47.1684C46.8838 46.8759 47.4082 46.5688 47.9325 46.2762C47.7432 47.3293 47.5247 48.3824 47.3936 49.4501C47.2625 50.5324 47.0732 51.8195 47.3936 52.8872ZM45.3254 54.0134C45.0195 54.1889 44.7282 54.3791 44.4369 54.5692C44.6554 53.5454 44.5534 52.4046 44.6554 51.3807C44.7574 50.2253 44.9758 49.0552 45.0486 47.8997C45.3254 47.7535 45.6021 47.5926 45.8788 47.4317C45.8643 47.5926 45.8497 47.7535 45.8352 47.9144C45.7769 48.6457 45.6312 49.377 45.573 50.1083C45.5147 50.8396 45.5002 51.5709 45.4419 52.3022C45.3691 52.8726 45.2963 53.4576 45.3254 54.0134ZM43.9563 54.8764C43.6941 55.0519 43.4319 55.2128 43.1552 55.3737C42.995 55.476 42.8348 55.5784 42.6746 55.6662C42.7183 55.2859 42.7183 54.9056 42.7474 54.5546C42.8057 53.8087 42.893 53.0774 42.9804 52.3314C43.1261 51.1613 43.2717 49.9913 43.4028 48.8065C43.8252 48.5872 44.233 48.3531 44.6263 48.1338C44.4806 49.2161 44.2476 50.2984 44.1311 51.3807C44.0582 52.0243 44.0437 52.6678 44.0145 53.3114C43.9854 53.8379 43.9272 54.3645 43.9563 54.8764ZM42.1502 55.9733C41.9318 56.0903 41.7133 56.2074 41.4948 56.339C41.3346 55.9587 41.2472 55.5492 41.1161 55.1689C41.1016 55.125 41.087 55.0958 41.0724 55.0519C41.32 54.9641 41.3055 54.7447 41.3346 54.5107C41.4074 53.8526 41.5094 53.209 41.5968 52.5655C41.7424 51.4977 42.0337 50.4447 42.1939 49.377C42.4707 49.2746 42.7474 49.1576 43.0096 49.0259C42.8202 50.079 42.6454 51.1467 42.5144 52.2144C42.4124 52.9457 42.325 53.6917 42.2668 54.4376C42.2085 54.9056 42.1211 55.4614 42.1502 55.9733ZM40.9122 54.5985C40.7374 54.0866 40.5481 53.56 40.4024 53.0335C40.5627 52.4192 40.5772 51.7171 40.6646 51.0882C40.7229 50.6056 40.8248 50.1229 40.8831 49.6402C41.1744 49.6256 41.4657 49.5671 41.757 49.494C41.5531 50.2692 41.32 51.0443 41.1889 51.8488C41.1016 52.3607 41.0433 52.8872 40.9705 53.4138C40.9413 53.6917 40.8831 53.9988 40.8831 54.2913C40.8831 54.3937 40.8977 54.4961 40.9122 54.5985ZM6.01472 39.0656C6.33515 38.8901 6.49536 38.5098 6.65558 38.2173C6.78666 37.9832 6.91775 37.7346 7.0634 37.5006C7.09253 37.5152 7.12165 37.5152 7.15078 37.5298C7.39839 37.6176 7.66056 37.72 7.90816 37.8224C7.74795 38.0125 7.6023 38.188 7.44208 38.3781C7.17991 38.6853 6.88862 38.9632 6.74297 39.3435C6.71384 39.4166 6.81579 39.4897 6.87405 39.4459C7.22361 39.2411 7.45665 38.8901 7.70425 38.5829C7.86446 38.3781 8.02468 38.1588 8.18489 37.9394C8.4325 38.0417 8.69466 38.1588 8.94227 38.2758C8.85488 38.422 8.75292 38.5537 8.65097 38.6853C8.47619 38.9047 8.27228 39.0948 8.11207 39.3142C8.06837 39.3873 8.1412 39.4897 8.22859 39.4605C8.50532 39.3581 8.69466 39.0948 8.86944 38.8754C8.98596 38.7145 9.10248 38.5537 9.20444 38.3781C9.4666 38.4952 9.74334 38.6122 10.0055 38.7292C9.94724 38.8023 9.88899 38.8901 9.81616 38.9632C9.67051 39.1387 9.49573 39.3142 9.43747 39.5336C9.40834 39.6214 9.5103 39.6945 9.59769 39.6506C9.81616 39.519 9.97637 39.285 10.1366 39.0948C10.1948 39.0217 10.2531 38.9339 10.3114 38.8608C10.3988 38.8901 10.4861 38.9339 10.5735 38.9632C10.792 39.0363 10.9959 39.1241 11.2144 39.1972C10.9231 39.5044 10.6318 39.9139 10.5153 40.3234C10.5007 40.3965 10.5881 40.4697 10.6464 40.4258C11.025 40.1772 11.1853 39.7237 11.5057 39.402C11.5348 39.3727 11.5348 39.3581 11.5494 39.3288C11.797 39.4166 12.0446 39.5044 12.2776 39.6067C12.2048 39.753 12.1174 39.8846 12.03 40.0163C11.9426 40.1479 11.8552 40.2795 11.7533 40.3965C11.6805 40.4843 11.5639 40.5721 11.5494 40.7037C11.5348 40.7768 11.5639 40.8353 11.6368 40.8646C11.9281 40.967 12.1757 40.5574 12.3068 40.3527C12.4233 40.1479 12.5252 39.9431 12.6272 39.7237C12.8894 39.8261 13.1661 39.9285 13.4283 40.0163C13.268 40.221 13.0641 40.4112 12.9185 40.6306C12.8165 40.7914 12.5981 41.2156 12.8748 41.3326C13.1078 41.435 13.2098 41.0108 13.2972 40.8646C13.4428 40.6159 13.6613 40.4258 13.8215 40.1772C14.1565 40.2942 14.4769 40.4258 14.8119 40.5428C14.6954 40.6891 14.5789 40.8353 14.4478 40.9816C14.2585 41.201 13.9963 41.4057 13.9672 41.7129C13.9526 41.8007 14.0691 41.8884 14.1565 41.8592C14.4478 41.7568 14.6371 41.435 14.8265 41.201C14.9576 41.0255 15.0741 40.8646 15.1906 40.6744C15.3945 40.7476 15.5984 40.8207 15.7878 40.8938C15.6567 41.0693 15.5547 41.2595 15.4382 41.4496C15.2926 41.6836 15.0595 41.9177 15.045 42.1956C15.045 42.2833 15.1323 42.3564 15.2197 42.3272C15.4965 42.2394 15.6276 41.9323 15.7586 41.6983C15.8897 41.4789 16.0062 41.2449 16.1519 41.0255C16.5306 41.1717 16.9238 41.3034 17.3025 41.4496C17.186 41.6105 17.084 41.7568 16.9675 41.9177C16.8219 42.1078 16.5743 42.3126 16.5306 42.5612C16.516 42.649 16.5743 42.7221 16.6762 42.7075C16.9238 42.6636 17.0695 42.4003 17.2006 42.1956C17.3462 41.9908 17.4627 41.7714 17.6084 41.5666C17.7103 41.6105 17.8123 41.6398 17.9142 41.6836C17.7832 41.9177 17.6375 42.1517 17.5064 42.3857C17.3462 42.6343 17.1132 42.883 17.084 43.1755C17.0695 43.2633 17.186 43.3364 17.2588 43.3071C17.5501 43.2048 17.6958 42.8976 17.8414 42.6343C18.0016 42.3711 18.1473 42.0932 18.3075 41.8153C18.5988 41.9177 18.9047 42.0347 19.196 42.1371C19.094 42.2833 19.0066 42.4442 18.9192 42.6051C18.7736 42.883 18.4968 43.1901 18.4386 43.5119C18.424 43.6143 18.4968 43.7167 18.6134 43.6874C18.9338 43.6143 19.0794 43.2925 19.2105 43.0146C19.327 42.766 19.4436 42.5027 19.5892 42.2687C19.764 42.3272 19.9388 42.4003 20.1135 42.4588C19.8077 43 19.2105 43.4973 19.4144 44.1554C19.4436 44.2432 19.5601 44.2725 19.6183 44.214C19.9242 43.9214 19.9533 43.4241 20.1718 43.0585C20.2738 42.8976 20.3611 42.7367 20.434 42.5758C20.7835 42.7075 21.1331 42.8245 21.4826 42.9561C21.3807 43.1463 21.1913 43.2925 21.0603 43.4534C20.8709 43.6874 20.7253 43.9068 20.769 44.214C20.7981 44.4041 21.104 44.4333 21.1913 44.2725C21.3224 43.9946 21.4681 43.7898 21.6574 43.5412C21.7594 43.4095 21.8468 43.2633 21.905 43.117C22.1235 43.1901 22.342 43.2779 22.5459 43.351C22.2692 43.702 21.5118 44.5211 21.9633 44.7405C22.2255 44.8575 22.3565 44.4333 22.4585 44.2871C22.6187 44.0238 22.8372 43.7898 22.9828 43.5119C23.2304 43.5997 23.478 43.6874 23.7402 43.7752C23.5217 43.9946 23.245 44.2578 23.2304 44.565C23.2304 44.7405 23.4489 44.8283 23.5654 44.6966C23.6674 44.5796 23.7402 44.4333 23.8422 44.3163C23.9441 44.1993 24.0461 44.0823 24.148 43.9799C24.1626 43.9653 24.1772 43.9507 24.1917 43.9214C24.3956 43.9946 24.6141 44.0677 24.818 44.1408C24.6869 44.2871 24.5704 44.4626 24.4685 44.6381C24.3374 44.8429 24.1917 45.1208 24.2937 45.3548C24.3519 45.4864 24.5558 45.501 24.6432 45.3987C24.7743 45.2524 24.8034 45.0184 24.8908 44.8575C24.9782 44.682 25.0802 44.5065 25.2113 44.3748C25.2258 44.3602 25.2404 44.331 25.255 44.3163C25.4734 44.3895 25.6773 44.4626 25.8958 44.5504C25.6773 44.9014 25.3132 45.1646 25.3132 45.6181C25.3132 45.8667 25.6919 45.9252 25.7502 45.6766C25.8521 45.2963 26.1288 45.0623 26.3182 44.7259C26.3182 44.7112 26.3328 44.7112 26.3328 44.6966C26.5949 44.7844 26.8425 44.8721 27.1047 44.9745C27.1047 44.9745 27.1047 44.9745 27.0901 44.9891C26.9008 45.2524 26.6969 45.5157 26.5367 45.8082C26.4056 46.0276 26.7406 46.3201 26.9008 46.1007C27.1193 45.8228 27.294 45.5157 27.4834 45.2232C27.4979 45.1939 27.5125 45.1647 27.5125 45.1354C27.7164 45.2085 27.9203 45.2817 28.1242 45.3548C28.1242 45.3548 28.1242 45.3548 28.1097 45.3548C27.8912 45.5596 27.6436 45.8667 27.5708 46.1739C27.5271 46.4079 27.8329 46.5541 27.964 46.3347C28.1097 46.1007 28.1971 45.8521 28.3864 45.6473C28.4301 45.5888 28.4447 45.5303 28.4301 45.4718C28.6194 45.5449 28.8088 45.6034 28.9981 45.6766H29.0127C28.8234 45.9983 28.4738 46.2616 28.4155 46.6419C28.3718 46.8905 28.7214 47.0807 28.8525 46.832C29.0273 46.5103 29.2457 46.2324 29.406 45.9106C29.4205 45.8813 29.4205 45.8521 29.4351 45.8228C29.7555 45.9398 30.0759 46.0422 30.3818 46.1592C30.3235 46.1592 30.2798 46.1739 30.2216 46.2177C30.0322 46.3932 29.8429 46.598 29.7118 46.832C29.5953 47.0222 29.4642 47.4902 29.8138 47.5341C29.9012 47.5487 30.0177 47.5341 30.0468 47.4317C30.1196 47.2708 30.1051 47.1392 30.1925 46.9783C30.2798 46.8174 30.3964 46.6565 30.5274 46.5249C30.6294 46.4079 30.5857 46.2616 30.4838 46.1885C30.8479 46.3201 31.1974 46.4517 31.5616 46.5688C31.445 46.7296 31.2994 46.8613 31.212 47.0368C31.0663 47.2854 31.0227 47.6218 31.3576 47.7388C31.5179 47.7973 31.6635 47.6218 31.6344 47.4609C31.6052 47.3586 31.6635 47.2416 31.7509 47.0953C31.8237 46.9637 31.9257 46.8467 31.9839 46.715C32.2024 46.7881 32.4209 46.8759 32.6539 46.949C32.3772 47.1977 32.1441 47.5487 32.1005 47.8851C32.0713 48.1484 32.4355 48.1776 32.552 48.0021C32.7559 47.7096 32.8287 47.3586 33.12 47.1392C33.1346 47.1392 33.1346 47.1245 33.1346 47.1245C33.3239 47.1977 33.5133 47.2562 33.7026 47.3293C33.4841 47.6218 33.0909 47.9582 33.1928 48.3239C33.2511 48.5287 33.5861 48.6018 33.688 48.3824C33.7317 48.2946 33.7317 48.2654 33.7754 48.163C33.8191 48.0752 33.8628 47.9875 33.9211 47.9144C34.0085 47.7681 34.1104 47.6365 34.1832 47.4902C34.4163 47.578 34.6493 47.6511 34.8824 47.7388C34.9406 47.7535 34.9843 47.7681 35.0426 47.7973C34.9406 47.9582 34.8387 48.1337 34.7658 48.3239C34.693 48.4994 34.5474 48.8358 34.7804 48.9674C35.028 49.0991 35.1445 48.7627 35.2028 48.5872C35.2902 48.3678 35.3776 48.1484 35.4941 47.9436C35.8436 48.0606 36.1932 48.1776 36.5428 48.2946C37.4458 48.6018 38.3051 49.0844 39.2081 49.377C38.844 50.5909 38.8003 51.8634 39.0479 53.1359C39.2227 53.9988 39.4703 54.8179 39.7033 55.6662C39.8199 56.0757 39.9364 56.5145 40.1111 56.924C37.4749 55.6077 34.6493 54.7594 31.8383 53.8964C28.8379 52.9896 25.8521 52.0389 22.8663 51.1028C19.8659 50.1668 16.8801 49.1722 13.938 48.0606C12.3941 47.4756 10.8794 46.832 9.40834 46.0861C8.19946 45.4718 6.71384 45.0623 5.66516 44.1993C4.58736 43.3071 4.67475 41.7421 5.00974 40.4989C5.19909 39.8261 5.49039 39.2118 5.86907 38.6268C5.97103 38.4659 6.10211 38.3196 6.21863 38.1734C6.05842 38.422 5.8982 38.6707 5.82538 38.9339C5.82538 39.0363 5.92733 39.1095 6.01472 39.0656ZM40.1111 51.9073C40.0383 51.5416 39.9946 51.1614 39.9946 50.7664C40.0092 50.4008 40.0529 50.0059 40.0675 49.611C40.1694 49.6256 40.2568 49.6402 40.3588 49.6402C40.4316 49.6402 40.4898 49.6402 40.5627 49.6549C40.4316 50.1521 40.3005 50.6494 40.2131 51.1613C40.184 51.41 40.1403 51.644 40.1111 51.9073ZM77.0914 40.3088C76.9021 40.4112 76.6982 40.4989 76.4943 40.5867C75.8971 40.85 75.3728 41.1864 74.8339 41.5666C73.5085 42.4881 72.0083 43.1024 70.5809 43.8337C69.139 44.5796 67.7408 45.3987 66.3134 46.1446C63.2985 47.7242 60.2981 49.3623 57.254 50.8981C54.2537 52.4192 51.2824 53.9842 48.3403 55.6223C46.7527 56.5145 45.1069 57.3043 43.5485 58.2404C42.762 58.723 41.99 59.2057 41.2472 59.7469C40.8685 60.0248 40.4898 60.288 40.1694 60.5806C40.1111 60.5221 40.0529 60.4635 39.9655 60.405C35.7562 57.8601 30.9061 56.5291 26.2745 55.0226C21.4098 53.443 16.5014 51.9512 11.6076 50.4447C8.54901 49.5086 4.80584 48.6018 2.70849 45.9691C1.45591 44.3895 1.19374 42.2541 1.68895 40.3234C1.92199 39.4166 2.30067 38.5975 2.79588 37.837C3.62608 37.2227 4.70388 37.0618 5.76712 37.1934C5.18452 37.7931 4.70388 38.5098 4.35432 39.1826C3.78629 40.2795 3.48043 41.5374 3.56782 42.766C3.65521 44.0531 4.35432 45.0038 5.38843 45.7204C6.65558 46.5834 8.17033 47.1684 9.53943 47.8559C12.5398 49.377 15.8606 50.43 19.0649 51.4831C22.3128 52.5508 25.5754 53.5454 28.8379 54.5546C32.4646 55.6808 36.1349 56.69 39.5723 58.3428C39.747 58.4305 39.9364 58.4451 40.0966 58.4013C40.1548 58.4013 40.2277 58.4013 40.3005 58.3866C40.7374 58.255 41.1307 58.021 41.5094 57.787C42.0337 57.4652 42.6163 57.2458 43.1552 56.9387C44.3787 56.2512 45.5584 55.5053 46.7673 54.8032C47.9179 54.1304 49.1996 53.6917 50.3357 52.9604C51.3989 52.2876 52.4767 51.6294 53.5546 50.9858C54.7489 50.2692 55.9723 49.611 57.1812 48.9236C58.3318 48.2508 59.4825 47.5487 60.6914 46.9929C61.7983 46.481 62.9052 45.9983 64.0121 45.4864C64.3471 45.5449 64.7404 45.4425 64.9734 45.1354C65.0171 45.0769 65.0463 45.033 65.09 44.9745C65.9784 44.5504 66.8669 44.1116 67.7408 43.6289C69.0953 42.8976 70.3479 42.0054 71.6442 41.201C72.7656 40.5136 73.9163 39.8408 75.0669 39.1972C75.1252 39.2265 75.2126 39.2557 75.2854 39.2703C75.6641 39.3435 76.0428 39.4605 76.4069 39.6214C76.6108 39.7091 76.8147 39.8115 77.004 39.9285C77.0623 39.9724 77.2079 40.0601 77.3099 40.1479C77.2079 40.2357 77.106 40.2942 77.0914 40.3088ZM65.3958 33.7417C65.3958 33.727 65.3812 33.727 65.3812 33.7124C65.3521 33.6978 65.323 33.6685 65.2939 33.6539C65.2647 33.6539 65.2793 33.6978 65.3958 33.7417Z" fill="#FFF06A"/>
</g>
<defs>
<clipPath id="clip0_1_641">
<rect width="79" height="62" fill="white"/>
</clipPath>
</defs>
</svg>
